<svg width="64" height="64" viewBox="0 0 64 64" fill="none" xmlns="http://www.w3.org/2000/svg">
<path d="M41.8122 25.605C44.7823 27.7271 48.421 28.9757 52.3508 28.9757V21.4175C51.607 21.4177 50.8653 21.3401 50.1376 21.186V27.1354C46.2081 27.1354 42.5699 25.8869 39.5991 23.765V39.1892C39.5991 46.9053 33.3407 53.1598 25.6213 53.1598C22.741 53.1598 20.0637 52.2895 17.8398 50.7968C20.3781 53.3909 23.9179 55 27.8339 55C35.554 55 41.8125 48.7454 41.8125 41.029V25.605H41.8122ZM44.5425 17.9797C43.0245 16.3222 42.0278 14.1802 41.8122 11.8121V10.84H39.7149C40.2428 13.8498 42.0437 16.4211 44.5425 17.9797ZM22.7224 44.8759C21.8743 43.7646 21.4159 42.4049 21.4179 41.0069C21.4179 37.478 24.2804 34.6166 27.8121 34.6166C28.4702 34.6163 29.1243 34.7173 29.7517 34.916V27.1888C29.0186 27.0885 28.2788 27.0457 27.5394 27.0614V33.0758C26.9118 32.8769 26.2572 32.776 25.5989 32.7766C22.0674 32.7766 19.205 35.6376 19.205 39.1671C19.205 41.6627 20.6357 43.8233 22.7224 44.8759Z" fill="#FF004F"/>
<path d="M39.6004 23.7648C42.5714 25.8867 46.2093 27.1352 50.1389 27.1352V21.1858C47.9454 20.7188 46.0036 19.5732 44.5437 17.9797C42.0447 16.421 40.2441 13.8496 39.7162 10.84H34.2073V41.0287C34.1947 44.5481 31.3371 47.3978 27.8131 47.3978C25.7366 47.3978 23.8917 46.4085 22.7234 44.8757C20.637 43.8233 19.2062 41.6626 19.2062 39.1672C19.2062 35.6381 22.0685 32.7767 25.6 32.7767C26.2767 32.7767 26.9288 32.882 27.5406 33.076V27.0616C19.9566 27.2182 13.8574 33.4117 13.8574 41.0289C13.8574 44.8313 15.3762 48.2784 17.8413 50.7971C20.0652 52.2895 22.7423 53.1601 25.6228 53.1601C33.3424 53.1601 39.6006 46.9051 39.6006 39.1892V23.765L39.6004 23.7648Z" fill="white"/>
<path d="M50.1391 21.1856V19.5773C48.1611 19.5803 46.2221 19.0267 44.5439 17.9797C46.0294 19.6052 47.9856 20.7261 50.1391 21.186V21.1856ZM39.7162 10.8399C39.6659 10.5523 39.6273 10.2628 39.6004 9.97208V9H31.9939V39.189C31.9818 42.7081 29.1242 45.5577 25.6001 45.5577C24.601 45.5592 23.6156 45.3257 22.7234 44.876C23.8917 46.4085 25.7367 47.3976 27.8131 47.3976C31.337 47.3976 34.1949 44.5483 34.2073 41.0289V10.84H39.7162V10.8399ZM27.5411 27.0614V25.3489C26.9054 25.262 26.2646 25.2186 25.6231 25.2188C17.9027 25.2188 11.6445 31.4737 11.6445 39.189C11.6445 44.0262 14.1041 48.2892 17.8417 50.7968C15.3766 48.2782 13.8578 44.831 13.8578 41.0287C13.8578 33.4117 19.9568 27.218 27.5411 27.0614Z" fill="#00C6F2"/>
</svg>
