<svg width="100" height="100" viewBox="0 0 100 100" fill="none" xmlns="http://www.w3.org/2000/svg">
<path d="M80.7677 21.7103C79.6769 20.7853 77.9635 20.6529 76.1919 21.3641H76.189C74.3258 22.1118 23.4481 43.9348 21.377 44.8264C21.0002 44.9573 17.7102 46.1849 18.0491 48.9193C18.3516 51.3846 20.9959 52.4057 21.3188 52.5235L34.2535 56.9524C35.1116 59.809 38.2751 70.3481 38.9747 72.5997C39.4111 74.0032 40.1223 75.8475 41.3688 76.2271C42.4625 76.6489 43.5505 76.2635 44.2545 75.7108L52.1625 68.3759L64.9284 78.3318L65.2324 78.5136C66.0993 78.8976 66.9298 79.0896 67.7225 79.0896C68.3348 79.0896 68.9224 78.9746 69.4839 78.7448C71.3965 77.9594 72.1616 76.137 72.2416 75.9304L81.7771 26.3661C82.3589 23.719 81.5502 22.3721 80.7677 21.7103ZM45.661 58.7239L41.2975 70.3598L36.9341 55.815L70.3871 31.0888L45.661 58.7239Z" fill="white"/>
</svg>
