<svg width="100" height="100" viewBox="0 0 100 100" fill="none" xmlns="http://www.w3.org/2000/svg">
<path d="M76.0275 26.5145C71.2405 24.3541 66.1071 22.7625 60.7399 21.8509C60.6421 21.8333 60.5445 21.8772 60.4941 21.9652C59.8339 23.1201 59.1027 24.6267 58.5906 25.811C52.8177 24.9609 47.0745 24.9609 41.4201 25.811C40.9079 24.6004 40.15 23.1201 39.4869 21.9652C39.4365 21.8802 39.3389 21.8362 39.2411 21.8509C33.8769 22.7596 28.7435 24.3512 23.9535 26.5145C23.912 26.5321 23.8765 26.5614 23.8529 26.5995C14.116 40.9069 11.4486 54.8627 12.7572 68.6455C12.7631 68.7129 12.8016 68.7774 12.8548 68.8184C19.279 73.4585 25.5019 76.2755 31.6092 78.1427C31.7069 78.172 31.8105 78.1368 31.8727 78.0577C33.3174 76.1172 34.6052 74.0712 35.7093 71.9196C35.7745 71.7936 35.7123 71.6441 35.5791 71.5943C33.5364 70.8321 31.5914 69.9029 29.7204 68.8477C29.5724 68.7627 29.5606 68.5545 29.6967 68.4548C30.0904 68.1647 30.4843 67.8627 30.8602 67.5579C30.9282 67.5022 31.023 67.4905 31.103 67.5256C43.3946 73.0453 56.7018 73.0453 68.8484 67.5256C68.9284 67.4876 69.0232 67.4993 69.0941 67.555C69.4702 67.8598 69.8639 68.1647 70.2606 68.4548C70.3968 68.5545 70.3879 68.7627 70.2399 68.8477C68.3689 69.9234 66.4238 70.8321 64.3782 71.5913C64.245 71.6412 64.1858 71.7936 64.2509 71.9196C65.3788 74.0682 66.6666 76.1142 68.0847 78.0547C68.1439 78.1368 68.2504 78.172 68.3482 78.1427C74.4851 76.2755 80.7079 73.4585 87.1321 68.8184C87.1883 68.7774 87.2239 68.7158 87.2298 68.6484C88.7958 52.714 84.6068 38.8727 76.1252 26.6024C76.1044 26.5614 76.069 26.5321 76.0275 26.5145ZM37.5449 60.2532C33.8443 60.2532 30.7951 56.9116 30.7951 52.8078C30.7951 48.7041 33.7851 45.3625 37.5449 45.3625C41.3342 45.3625 44.3539 48.7334 44.2946 52.8078C44.2946 56.9116 41.3046 60.2532 37.5449 60.2532ZM62.5013 60.2532C58.8008 60.2532 55.7515 56.9116 55.7515 52.8078C55.7515 48.7041 58.7415 45.3625 62.5013 45.3625C66.2907 45.3625 69.3103 48.7334 69.2511 52.8078C69.2511 56.9116 66.2907 60.2532 62.5013 60.2532Z" fill="white"/>
</svg>
