<svg width="64" height="64" viewBox="0 0 64 64" fill="none" xmlns="http://www.w3.org/2000/svg">
<path d="M48.839 16.0671C45.6889 14.6475 42.3109 13.6016 38.779 13.0025C38.7147 12.991 38.6504 13.0198 38.6173 13.0776C38.1829 13.8365 37.7017 14.8266 37.3647 15.6048C33.5659 15.0462 29.7866 15.0462 26.0657 15.6048C25.7287 14.8093 25.23 13.8365 24.7936 13.0776C24.7605 13.0218 24.6962 12.9929 24.6319 13.0025C21.1019 13.5996 17.724 14.6456 14.5719 16.0671C14.5446 16.0787 14.5213 16.0979 14.5057 16.123C8.09842 25.5247 6.34318 34.6954 7.20424 43.7524C7.20814 43.7967 7.23346 43.8391 7.26853 43.866C11.4959 46.9152 15.5908 48.7663 19.6097 49.9933C19.674 50.0125 19.7422 49.9894 19.7831 49.9374C20.7338 48.6623 21.5812 47.3178 22.3078 45.9039C22.3507 45.8211 22.3098 45.7229 22.2221 45.6901C20.8779 45.1893 19.598 44.5787 18.3668 43.8853C18.2694 43.8295 18.2616 43.6927 18.3512 43.6272C18.6103 43.4365 18.8695 43.2381 19.1169 43.0377C19.1616 43.0012 19.224 42.9934 19.2766 43.0165C27.3651 46.6436 36.1218 46.6436 44.1148 43.0165C44.1674 42.9915 44.2298 42.9993 44.2765 43.0358C44.524 43.2362 44.783 43.4365 45.0441 43.6272C45.1337 43.6927 45.1278 43.8295 45.0304 43.8853C43.7992 44.5922 42.5193 45.1893 41.1732 45.6882C41.0855 45.721 41.0466 45.8211 41.0894 45.9039C41.8316 47.3158 42.6791 48.6603 43.6122 49.9355C43.6512 49.9894 43.7213 50.0125 43.7856 49.9933C47.824 48.7663 51.9189 46.9152 56.1462 43.866C56.1833 43.8391 56.2067 43.7986 56.2106 43.7543C57.2411 33.2835 54.4845 24.188 48.9032 16.1249C48.8896 16.0979 48.8662 16.0787 48.839 16.0671ZM23.5157 38.2376C21.0805 38.2376 19.074 36.0418 19.074 33.3451C19.074 30.6484 21.0416 28.4526 23.5157 28.4526C26.0092 28.4526 27.9963 30.6677 27.9573 33.3451C27.9573 36.0418 25.9897 38.2376 23.5157 38.2376ZM39.9381 38.2376C37.503 38.2376 35.4965 36.0418 35.4965 33.3451C35.4965 30.6484 37.464 28.4526 39.9381 28.4526C42.4317 28.4526 44.4187 30.6677 44.3798 33.3451C44.3798 36.0418 42.4317 38.2376 39.9381 38.2376Z" fill="white"/>
</svg>
