<svg width="34" height="33" viewBox="0 0 34 33" fill="none" xmlns="http://www.w3.org/2000/svg">
<path d="M30.1073 5.67256C29.6471 5.29098 28.9243 5.23639 28.1769 5.52977H28.1757C27.3897 5.83815 5.92616 14.8399 5.0524 15.2077C4.89348 15.2617 3.50553 15.7681 3.6485 16.896C3.77612 17.9129 4.89164 18.3341 5.02786 18.3827L10.4845 20.2095C10.8466 21.3879 12.1811 25.7352 12.4763 26.6639C12.6603 27.2429 12.9604 28.0036 13.4862 28.1602C13.9477 28.3342 14.4066 28.1752 14.7036 27.9472L18.0397 24.9216L23.4252 29.0283L23.5535 29.1033C23.9192 29.2617 24.2695 29.3409 24.6039 29.3409C24.8623 29.3409 25.1102 29.2935 25.347 29.1987C26.1539 28.8747 26.4766 28.123 26.5104 28.0378L30.5331 7.59302C30.7785 6.5011 30.4374 5.94554 30.1073 5.67256ZM15.297 20.9403L13.4562 25.74L11.6154 19.7404L25.7281 9.54109L15.297 20.9403Z" fill="white"/>
</svg>
