<svg width="64" height="64" viewBox="0 0 64 64" fill="none" xmlns="http://www.w3.org/2000/svg">
<path d="M53.7751 12.5603C52.9966 11.9122 51.7739 11.8195 50.5096 12.3178H50.5076C49.178 12.8415 12.8703 28.1285 11.3923 28.7531C11.1235 28.8448 8.7756 29.7048 9.01745 31.6202C9.23333 33.3472 11.1203 34.0625 11.3508 34.145L20.5812 37.2473C21.1937 39.2485 23.4512 46.6312 23.9505 48.2084C24.2618 49.1917 24.7694 50.4835 25.6589 50.7494C26.4395 51.0449 27.2158 50.7749 27.7182 50.3877L33.3616 45.2496L42.4716 52.2237L42.6887 52.351C43.3073 52.62 43.8999 52.7545 44.4655 52.7545C44.9026 52.7545 45.322 52.6741 45.7226 52.5131C47.0875 51.9628 47.6334 50.6863 47.6906 50.5416L54.4953 15.8216C54.9105 13.9673 54.3335 13.0238 53.7751 12.5603ZM28.722 38.4884L25.6081 46.6394L22.4942 36.4507L46.3672 19.1299L28.722 38.4884Z" fill="white"/>
</svg>
