<svg width="100" height="100" viewBox="0 0 100 100" fill="none" xmlns="http://www.w3.org/2000/svg">
<path d="M34.0332 10.2737C33.761 10.2799 33.4957 10.3601 33.2656 10.5057C33.0356 10.6512 32.8495 10.8566 32.7272 11.0999C32.605 11.3431 32.5513 11.6151 32.5718 11.8865C32.5923 12.158 32.6863 12.4188 32.8438 12.6409L37.2793 19.051C33.0205 22.3147 30.0376 27.163 29.2402 32.7268H70.7598C69.9624 27.163 66.9795 22.3147 62.7207 19.051L67.1562 12.6409C67.3159 12.4155 67.4102 12.1505 67.4288 11.8749C67.4474 11.5994 67.3896 11.3241 67.2618 11.0793C67.1339 10.8345 66.941 10.6298 66.7042 10.4876C66.4675 10.3455 66.1961 10.2714 65.9199 10.2737C65.6765 10.2759 65.4373 10.3374 65.2229 10.4527C65.0085 10.5681 64.8254 10.7339 64.6895 10.9358L60.2188 17.4045C57.1948 15.71 53.7164 14.7268 50 14.7268C46.2836 14.7268 42.8052 15.71 39.7812 17.4045L35.3105 10.9358C35.1702 10.7272 34.9796 10.5573 34.7564 10.4416C34.5332 10.3259 34.2845 10.2682 34.0332 10.2737ZM41 20.7268C42.656 20.7268 44 22.0708 44 23.7268C44 25.3828 42.656 26.7268 41 26.7268C39.344 26.7268 38 25.3828 38 23.7268C38 22.0708 39.344 20.7268 41 20.7268ZM59 20.7268C60.656 20.7268 62 22.0708 62 23.7268C62 25.3828 60.656 26.7268 59 26.7268C57.344 26.7268 56 25.3828 56 23.7268C56 22.0708 57.344 20.7268 59 20.7268ZM20 38.7268C18.344 38.7268 17 40.0708 17 41.7268V65.7268C17 67.3828 18.344 68.7268 20 68.7268C21.656 68.7268 23 67.3828 23 65.7268V41.7268C23 40.0708 21.656 38.7268 20 38.7268ZM29 38.7268V68.7268C29 72.0418 31.685 74.7268 35 74.7268V85.2268C35 87.7108 37.016 89.7268 39.5 89.7268C41.984 89.7268 44 87.7108 44 85.2268V74.7268H56V85.2268C56 87.7108 58.016 89.7268 60.5 89.7268C62.984 89.7268 65 87.7108 65 85.2268V74.7268C68.315 74.7268 71 72.0418 71 68.7268V38.7268H29ZM80 38.7268C78.344 38.7268 77 40.0708 77 41.7268V65.7268C77 67.3828 78.344 68.7268 80 68.7268C81.656 68.7268 83 67.3828 83 65.7268V41.7268C83 40.0708 81.656 38.7268 80 38.7268Z" fill="white"/>
</svg>
