<svg width="192" height="57" viewBox="0 0 192 57" fill="none" xmlns="http://www.w3.org/2000/svg">
<rect width="192" height="57" rx="8.89051" fill="black"/>
<g clip-path="url(#clip0_1413_23165)">
<path d="M29.5174 10.9419C24.9293 10.9419 20.525 12.7661 17.2833 16.0099C14.0382 19.2551 12.2148 23.6562 12.2139 28.2455C12.2139 32.8328 14.0389 37.2371 17.2833 40.481C20.525 43.7249 24.9293 45.549 29.5174 45.549C34.1056 45.549 38.5099 43.7249 41.7516 40.481C44.996 37.2371 46.821 32.8328 46.821 28.2455C46.821 23.6581 44.996 19.2538 41.7516 16.0099C38.5099 12.7661 34.1056 10.9419 29.5174 10.9419Z" fill="url(#paint0_linear_1413_23165)"/>
<path d="M20.0474 28.0627C25.0925 25.8651 28.4559 24.4163 30.1376 23.7162C34.9447 21.7174 35.9424 21.3703 36.594 21.3585C36.7373 21.3562 37.0563 21.3916 37.2645 21.5599C37.4375 21.7019 37.4862 21.8938 37.5105 22.0286C37.5322 22.1633 37.5619 22.4701 37.5376 22.7097C37.278 25.4458 36.1506 32.0855 35.5774 35.1501C35.3368 36.4468 34.8582 36.8816 34.3959 36.924C33.3901 37.0165 32.6277 36.26 31.6544 35.6222C30.1322 34.6237 29.2724 34.0024 27.7935 33.0283C26.0848 31.9025 27.1933 31.2836 28.1666 30.2724C28.4207 30.0077 32.8494 25.9806 32.9332 25.6153C32.944 25.5696 32.9548 25.3993 32.8521 25.3095C32.752 25.2195 32.6033 25.2503 32.4952 25.2747C32.3411 25.3093 29.9105 26.9174 25.1953 30.0988C24.5058 30.5731 23.8813 30.8042 23.3189 30.7921C22.7025 30.7788 21.5128 30.4427 20.6287 30.1556C19.5473 29.8033 18.6848 29.617 18.7605 29.0187C18.7983 28.7072 19.2282 28.3885 20.0474 28.0627Z" fill="white"/>
</g>
<path d="M63.4492 36.2681V19.5935H57.3465V17.372H71.6427V19.5935H65.8798V36.2681H63.4492ZM78.1613 36.5294C76.9068 36.5294 75.8004 36.255 74.8421 35.7061C73.8838 35.1573 73.1346 34.3689 72.5944 33.3409C72.0543 32.3129 71.7842 31.0801 71.7842 29.6427C71.7842 28.2226 72.0282 26.9768 72.516 25.9053C73.0039 24.8337 73.7096 23.9974 74.633 23.3963C75.5652 22.7951 76.6847 22.4946 77.9915 22.4946C79.2634 22.4946 80.3393 22.769 81.2192 23.3178C82.0991 23.8667 82.7656 24.6421 83.2186 25.6439C83.6803 26.6371 83.9112 27.8175 83.9112 29.1853V30.0739H74.2279C74.2279 30.9277 74.3673 31.703 74.6461 32.4C74.9336 33.0882 75.3648 33.6371 75.9398 34.0465C76.5148 34.456 77.2422 34.6607 78.1221 34.6607C78.9846 34.6607 79.7251 34.4604 80.3437 34.0596C80.9709 33.6589 81.3717 33.0795 81.5459 32.3216H83.8197C83.6629 33.2363 83.297 34.0073 82.722 34.6346C82.1557 35.2618 81.4719 35.7366 80.6704 36.059C79.8776 36.3726 79.0412 36.5294 78.1613 36.5294ZM74.241 28.4404H81.5851C81.5851 27.6651 81.4544 26.9681 81.1931 26.3496C80.9317 25.7223 80.531 25.2301 79.9908 24.8729C79.4594 24.507 78.7886 24.3241 77.9784 24.3241C77.1333 24.3241 76.432 24.5288 75.8745 24.9383C75.3169 25.339 74.9031 25.8574 74.633 26.4933C74.363 27.1206 74.2323 27.7696 74.241 28.4404ZM90.6648 36.4379C89.933 36.4379 89.3406 36.3378 88.8876 36.1374C88.4433 35.937 88.0991 35.6669 87.8552 35.3272C87.62 34.9874 87.4588 34.5997 87.3717 34.1641C87.2933 33.7198 87.2541 33.2625 87.2541 32.792V16.8493H89.6324V32.5568C89.6324 33.2363 89.7631 33.746 90.0245 34.0857C90.2945 34.4255 90.6692 34.6128 91.1483 34.6477L91.8801 34.6607V36.2289C91.6797 36.2898 91.4706 36.3378 91.2529 36.3726C91.0351 36.4162 90.839 36.4379 90.6648 36.4379ZM100.239 36.5294C98.9843 36.5294 97.8779 36.255 96.9196 35.7061C95.9613 35.1573 95.2121 34.3689 94.6719 33.3409C94.1318 32.3129 93.8617 31.0801 93.8617 29.6427C93.8617 28.2226 94.1057 26.9768 94.5935 25.9053C95.0814 24.8337 95.787 23.9974 96.7105 23.3963C97.6427 22.7951 98.7622 22.4946 100.069 22.4946C101.341 22.4946 102.417 22.769 103.297 23.3178C104.177 23.8667 104.843 24.6421 105.296 25.6439C105.758 26.6371 105.989 27.8175 105.989 29.1853V30.0739H96.3054C96.3054 30.9277 96.4448 31.703 96.7236 32.4C97.0111 33.0882 97.4423 33.6371 98.0173 34.0465C98.5923 34.456 99.3197 34.6607 100.2 34.6607C101.062 34.6607 101.803 34.4604 102.421 34.0596C103.048 33.6589 103.449 33.0795 103.623 32.3216H105.897C105.74 33.2363 105.374 34.0073 104.799 34.6346C104.233 35.2618 103.549 35.7366 102.748 36.059C101.955 36.3726 101.119 36.5294 100.239 36.5294ZM96.3185 28.4404H103.663C103.663 27.6651 103.532 26.9681 103.271 26.3496C103.009 25.7223 102.608 25.2301 102.068 24.8729C101.537 24.507 100.866 24.3241 100.056 24.3241C99.2108 24.3241 98.5095 24.5288 97.9519 24.9383C97.3944 25.339 96.9806 25.8574 96.7105 26.4933C96.4404 27.1206 96.3098 27.7696 96.3185 28.4404ZM114.94 40.7373C112.823 40.7373 111.172 40.428 109.987 39.8094C108.803 39.1996 108.21 38.3241 108.21 37.1828C108.21 36.6949 108.323 36.2811 108.55 35.9414C108.776 35.5929 109.047 35.3054 109.36 35.0789C109.674 34.8524 109.966 34.6738 110.236 34.5431C110.506 34.4037 110.684 34.3035 110.771 34.2426C110.615 34.1554 110.427 34.0465 110.21 33.9159C109.992 33.7852 109.796 33.6109 109.622 33.3931C109.456 33.1753 109.373 32.8922 109.373 32.5437C109.373 32.1169 109.574 31.7248 109.974 31.3676C110.375 31.0104 110.972 30.7447 111.765 30.5705C110.972 30.1697 110.353 29.6383 109.909 28.9762C109.465 28.3141 109.243 27.5954 109.243 26.82C109.243 25.9488 109.478 25.1909 109.948 24.5462C110.419 23.9015 111.094 23.4093 111.974 23.0696C112.854 22.7211 113.903 22.5468 115.123 22.5468C116.003 22.5468 116.739 22.6514 117.332 22.8605C117.933 23.0608 118.49 23.3483 119.004 23.723C119.144 23.662 119.366 23.5705 119.671 23.4485C119.976 23.3178 120.307 23.1785 120.664 23.0304C121.03 22.8823 121.369 22.7429 121.683 22.6122C122.005 22.4728 122.262 22.3683 122.454 22.2986L122.441 24.5332L120.076 24.9775C120.215 25.2562 120.324 25.5612 120.402 25.8922C120.481 26.2233 120.52 26.5325 120.52 26.82C120.52 27.6128 120.311 28.3315 119.893 28.9762C119.483 29.6209 118.86 30.1349 118.024 30.5182C117.188 30.9015 116.142 31.0932 114.888 31.0932C114.783 31.0932 114.648 31.0932 114.483 31.0932C114.326 31.0845 114.191 31.0758 114.078 31.0671C113.154 31.0932 112.518 31.1977 112.17 31.3807C111.83 31.5549 111.66 31.751 111.66 31.9688C111.66 32.2214 111.856 32.3956 112.248 32.4915C112.64 32.5873 113.302 32.6701 114.234 32.7398C114.574 32.7572 114.992 32.779 115.489 32.8051C115.994 32.8312 116.556 32.8661 117.175 32.9096C118.586 32.9968 119.675 33.3583 120.442 33.9943C121.208 34.6302 121.592 35.4884 121.592 36.5686C121.592 37.797 121.043 38.7989 119.945 39.5742C118.856 40.3496 117.188 40.7373 114.94 40.7373ZM115.371 39.1822C116.617 39.1822 117.571 38.9949 118.233 38.6203C118.904 38.2457 119.239 37.6794 119.239 36.9215C119.239 36.3813 119.035 35.9414 118.625 35.6016C118.216 35.2531 117.597 35.0528 116.77 35.0005L112.98 34.7522C112.64 34.7348 112.287 34.8219 111.921 35.0136C111.556 35.1965 111.246 35.4535 110.994 35.7846C110.741 36.1156 110.615 36.4902 110.615 36.9084C110.615 37.6228 111.002 38.1803 111.778 38.5811C112.553 38.9818 113.751 39.1822 115.371 39.1822ZM114.966 29.5381C115.933 29.5381 116.713 29.3116 117.305 28.8586C117.907 28.4056 118.207 27.7348 118.207 26.8462C118.207 25.9314 117.907 25.2345 117.305 24.7553C116.713 24.2762 115.933 24.0366 114.966 24.0366C113.973 24.0366 113.172 24.2805 112.562 24.7684C111.961 25.2475 111.66 25.9401 111.66 26.8462C111.66 27.6999 111.948 28.362 112.523 28.8325C113.106 29.3029 113.921 29.5381 114.966 29.5381ZM125.488 36.2681V22.7559H127.788V25.3564C128.014 24.7118 128.332 24.1803 128.742 23.7622C129.151 23.3353 129.617 23.0173 130.14 22.8082C130.671 22.5991 131.22 22.4946 131.786 22.4946C131.987 22.4946 132.183 22.5076 132.374 22.5338C132.566 22.5599 132.714 22.6035 132.819 22.6645V25.0036C132.688 24.9426 132.518 24.9034 132.309 24.886C132.109 24.8599 131.939 24.8468 131.799 24.8468C131.259 24.8119 130.754 24.8468 130.284 24.9513C129.813 25.0472 129.399 25.217 129.042 25.461C128.685 25.7049 128.402 26.0272 128.193 26.428C127.992 26.82 127.892 27.2992 127.892 27.8655V36.2681H125.488ZM139.002 36.5294C138.122 36.5294 137.346 36.377 136.676 36.072C136.013 35.7584 135.491 35.3098 135.107 34.7261C134.733 34.1424 134.546 33.4367 134.546 32.6091C134.546 31.1106 135.068 29.9955 136.114 29.2637C137.159 28.5319 138.836 28.1399 141.145 28.0876L143.549 28.0223V26.9638C143.549 26.1361 143.301 25.4828 142.804 25.0036C142.308 24.5157 141.541 24.2718 140.504 24.2718C139.729 24.2805 139.045 24.4635 138.453 24.8206C137.86 25.1778 137.481 25.7615 137.316 26.5717H135.186C135.238 25.6918 135.482 24.9513 135.918 24.3502C136.362 23.7404 136.985 23.2786 137.786 22.965C138.588 22.6514 139.533 22.4946 140.622 22.4946C141.798 22.4946 142.774 22.6601 143.549 22.9912C144.333 23.3222 144.917 23.8101 145.3 24.4548C145.692 25.0994 145.888 25.8922 145.888 26.8331V36.2681H143.824L143.641 33.7329C143.127 34.787 142.465 35.5188 141.654 35.9283C140.853 36.329 139.969 36.5294 139.002 36.5294ZM139.72 34.7914C140.182 34.7914 140.635 34.7086 141.079 34.5431C141.532 34.3776 141.942 34.1554 142.308 33.8767C142.682 33.5892 142.983 33.2712 143.21 32.9227C143.436 32.5655 143.549 32.1996 143.549 31.825V29.512L141.55 29.5512C140.513 29.5686 139.651 29.6732 138.962 29.8648C138.274 30.0565 137.756 30.3571 137.407 30.7665C137.059 31.176 136.885 31.7118 136.885 32.3739C136.885 33.1318 137.15 33.7242 137.682 34.1511C138.213 34.578 138.893 34.7914 139.72 34.7914ZM149.658 36.2681V22.7559H151.984V24.7161C152.359 24.1237 152.873 23.6053 153.526 23.161C154.18 22.7167 155.029 22.4946 156.074 22.4946C156.562 22.4946 157.059 22.5773 157.564 22.7429C158.078 22.9084 158.549 23.1567 158.975 23.4877C159.402 23.8188 159.733 24.2239 159.969 24.703C160.387 24.0409 160.953 23.5095 161.667 23.1088C162.382 22.6993 163.188 22.4946 164.085 22.4946C164.555 22.4946 165.048 22.5686 165.562 22.7167C166.076 22.8561 166.55 23.1088 166.986 23.4747C167.43 23.8319 167.792 24.3328 168.071 24.9775C168.349 25.6134 168.489 26.4323 168.489 27.4342V36.2681H166.058V27.6694C166.058 26.8505 165.928 26.2189 165.666 25.7746C165.405 25.3216 165.061 25.0036 164.634 24.8206C164.216 24.6377 163.767 24.5462 163.288 24.5462C162.87 24.5462 162.425 24.629 161.955 24.7945C161.484 24.96 161.084 25.2388 160.753 25.6309C160.422 26.0229 160.256 26.5587 160.256 27.2382V36.2681H157.852V26.9638C157.852 26.4323 157.708 25.988 157.42 25.6309C157.142 25.2737 156.789 25.0036 156.362 24.8206C155.944 24.6377 155.526 24.5462 155.107 24.5462C154.646 24.5462 154.18 24.6377 153.709 24.8206C153.247 25.0036 152.855 25.2954 152.533 25.6962C152.219 26.0882 152.063 26.6022 152.063 27.2382V36.2681H149.658Z" fill="white"/>
<defs>
<linearGradient id="paint0_linear_1413_23165" x1="1742.57" y1="10.9419" x2="1742.57" y2="3471.66" gradientUnits="userSpaceOnUse">
<stop stop-color="#2AABEE"/>
<stop offset="1" stop-color="#229ED9"/>
</linearGradient>
<clipPath id="clip0_1413_23165">
<rect width="34.6071" height="34.6071" fill="white" transform="translate(12.2139 10.9419)"/>
</clipPath>
</defs>
</svg>
