<svg width="256" height="256" viewBox="0 0 256 256" fill="none" xmlns="http://www.w3.org/2000/svg">
<circle cx="128" cy="128" r="120" fill="black"/>
<path d="M165.117 103.81C176.352 111.837 190.116 116.56 204.981 116.56V87.9705C202.168 87.9711 199.362 87.6775 196.609 87.0947V109.599C181.745 109.599 167.984 104.876 156.746 96.8499V155.194C156.746 184.381 133.073 208.039 103.874 208.039C92.9785 208.039 82.8515 204.747 74.4395 199.101C84.0407 208.913 97.4303 215 112.243 215C141.445 215 165.119 191.341 165.119 162.153V103.81H165.117ZM175.445 74.9665C169.703 68.6969 165.933 60.5946 165.117 51.637V47.96H157.184C159.181 59.3447 165.993 69.0711 175.445 74.9665ZM92.9081 176.704C89.7003 172.501 87.9662 167.357 87.974 162.07C87.974 148.721 98.8017 137.897 112.161 137.897C114.65 137.896 117.124 138.278 119.497 139.03V109.801C116.724 109.421 113.926 109.26 111.129 109.319V132.069C108.755 131.317 106.279 130.935 103.789 130.937C90.4305 130.937 79.6034 141.76 79.6034 155.11C79.6034 164.55 85.0152 172.723 92.9081 176.704Z" fill="#FF004F"/>
<path d="M156.747 96.8493C167.985 104.876 181.745 109.598 196.61 109.598V87.0941C188.313 85.3274 180.968 80.9942 175.445 74.9665C165.993 69.0705 159.182 59.3441 157.185 47.96H136.347V162.152C136.299 175.465 125.49 186.244 112.16 186.244C104.306 186.244 97.3268 182.502 92.9076 176.704C85.0158 172.723 79.6034 164.55 79.6034 155.111C79.6034 141.762 90.4306 130.938 103.789 130.938C106.348 130.938 108.815 131.336 111.129 132.07V109.32C82.4419 109.912 59.3711 133.34 59.3711 162.153C59.3711 176.536 65.1161 189.575 74.4407 199.102C82.8528 204.747 92.9791 208.04 103.875 208.04C133.075 208.04 156.747 184.38 156.747 155.194V96.8499L156.747 96.8493Z" fill="white"/>
<path d="M196.61 87.0936V81.0099C189.128 81.0212 181.793 78.927 175.445 74.9666C181.065 81.1152 188.464 85.3554 196.61 87.0948V87.0936ZM157.184 47.9594C156.994 46.8717 156.848 45.7766 156.746 44.677V41H127.974V155.193C127.928 168.505 117.119 179.284 103.788 179.284C100.009 179.289 96.2818 178.406 92.9071 176.705C97.3263 182.502 104.305 186.243 112.16 186.243C125.489 186.243 136.299 175.465 136.346 162.153V47.96H157.184V47.9594ZM111.13 109.319V102.842C108.726 102.513 106.302 102.349 103.876 102.35C74.6723 102.35 51 126.009 51 155.193C51 173.491 60.3035 189.616 74.4414 199.101C65.1168 189.574 59.3718 176.535 59.3718 162.152C59.3718 133.34 82.442 109.912 111.13 109.319Z" fill="#00C6F2"/>
</svg>
