<svg width="255" height="256" viewBox="0 0 255 256" fill="none" xmlns="http://www.w3.org/2000/svg">
<ellipse cx="127.5" cy="128" rx="119.531" ry="120" fill="#4B5DFF"/>
<path d="M188.13 67.7184C185.743 65.7309 181.993 65.4465 178.115 66.9746H178.109C174.031 68.5809 62.6715 115.468 58.1381 117.383C57.3136 117.665 50.1125 120.302 50.8543 126.177C51.5164 131.474 57.3041 133.668 58.0108 133.921L86.3215 143.436C88.2002 149.574 95.1239 172.217 96.6555 177.055C97.6102 180.071 99.1672 184.033 101.895 184.848C104.29 185.755 106.67 184.927 108.211 183.739L125.52 167.98L153.462 189.37L154.127 189.761C156.025 190.586 157.842 190.998 159.577 190.998C160.918 190.998 162.204 190.751 163.433 190.258C167.619 188.57 169.293 184.655 169.469 184.211L190.34 77.7214C191.613 72.0339 189.843 69.1402 188.13 67.7184ZM111.29 147.243L101.74 172.242L92.1889 140.993L165.41 87.8682L111.29 147.243Z" fill="white"/>
</svg>
