<svg width="168" height="42" viewBox="0 0 168 42" fill="none" xmlns="http://www.w3.org/2000/svg">
<path d="M59.3462 11.6627V9.8869H50.9674V11.6627H54.2086V18.8174H55.9843V11.6627H59.3462ZM63.8702 15.2659C64.2322 15.1107 64.5943 15.059 64.9908 15.059C65.8701 15.059 66.7493 15.3004 67.6803 15.3004C68.0424 15.3004 68.3872 15.2487 68.732 15.0763V18.8174H70.4905V9.8869H68.732V13.266C68.3699 13.4384 67.9906 13.4901 67.6113 13.4901C66.7148 13.4901 65.6632 13.2315 64.9218 13.2315C64.5598 13.2315 64.1977 13.3005 63.8702 13.4557V9.8869H62.1117V18.8174H63.8702V15.2659ZM76.3795 15.6107C77.1554 15.1969 77.5347 15.0935 79.1725 15.0935H80.4828V13.3177H79.1725C78.1381 13.3177 77.1554 13.3867 76.3795 13.8349V11.6627H81.6551V9.8869H74.621V18.8174H81.9827V17.0244H76.3795V15.6107ZM93.1729 14.2832C93.1729 16.2141 91.4661 17.283 89.7765 17.283C88.0697 17.283 86.3457 16.3693 86.3457 14.3522C86.3457 12.335 88.0352 11.4213 89.7593 11.4213C91.4488 11.4213 93.1729 12.2833 93.1729 14.2832ZM95.0348 14.266C95.0348 11.1627 92.4488 9.59382 89.7593 9.59382C87.087 9.59382 84.4837 11.2834 84.4837 14.3177C84.4837 17.3347 87.0353 19.0933 89.742 19.0933C92.4488 19.0933 95.0348 17.3003 95.0348 14.266ZM104.827 15.1797C106.12 14.7832 106.878 13.9384 106.878 12.5764C106.878 11.0248 105.706 9.8869 104.068 9.8869H98.3097V18.8174H100.12V15.6797C100.844 15.3004 101.223 15.1625 102.62 15.1625H102.74L104.12 17.4037C104.947 18.7485 105.792 18.8174 106.723 18.8174H107.499V16.9037H106.878C106.43 16.9037 105.809 16.8348 105.378 16.1107L104.827 15.1797ZM102.62 13.3867C101.689 13.3867 100.81 13.5246 100.12 13.9039V11.6627H103.758C104.378 11.6627 105.068 11.7316 105.068 12.5247C105.068 13.0936 104.602 13.3867 104.068 13.3867H102.62ZM112.712 15.6107C113.488 15.1969 113.867 15.0935 115.505 15.0935H116.815V13.3177H115.505C114.471 13.3177 113.488 13.3867 112.712 13.8349V11.6627H117.988V9.8869H110.954V18.8174H118.315V17.0244H112.712V15.6107ZM128.678 11.6627V9.8869H120.299V11.6627H123.54V18.8174H125.316V11.6627H128.678ZM133.202 18.8174V9.8869H131.444V18.8174H133.202ZM144.05 16.3348C143.361 16.9555 142.378 17.3003 141.447 17.3003C139.74 17.3003 138.034 16.3693 138.034 14.3522C138.034 12.335 139.706 11.3868 141.43 11.3868C142.275 11.3868 143.154 11.6282 143.826 12.0937L145.016 10.7144C144.033 9.97311 142.74 9.59382 141.43 9.59382C138.758 9.59382 136.154 11.2834 136.154 14.3177C136.154 17.3347 138.706 19.0933 141.413 19.0933C142.775 19.0933 144.102 18.6623 145.085 17.8175L144.05 16.3348ZM153.333 15.8521C151.489 15.8521 150.282 16.3348 149.713 16.6279L151.833 12.5419L153.575 15.8521H153.333ZM150.92 10.8006L146.644 18.8174H148.506L148.558 18.714C148.851 18.3347 151.144 17.4727 153.35 17.4727H154.419L155.126 18.8174H157.074L152.247 9.68002H150.333L150.92 10.8006ZM166.095 18.8174V17.0244H161.354V9.8869H159.51V18.8174H166.095ZM59.191 25.7144C57.8808 24.8179 56.6567 24.5938 55.3637 24.5938C53.381 24.5938 51.6742 25.6627 51.6742 27.2833C51.6742 29.2315 53.2259 29.9383 55.3637 29.9383C57.2256 29.9383 58.1221 30.1107 58.1221 30.921C58.1221 31.852 56.9843 32.3692 55.3637 32.3692C53.7776 32.3692 53.1224 31.4727 52.588 30.9038L51.3122 32.1968C52.2949 33.3519 53.812 34.0933 55.3637 34.0933C57.9153 34.0933 59.8807 33.0588 59.8807 30.921C59.8807 29.4728 59.2945 28.1798 55.4844 28.1798C53.7431 28.1798 53.5362 27.8178 53.5362 27.2833C53.5362 26.7661 54.4844 26.3179 55.3464 26.3179C56.3809 26.3179 57.3118 26.5247 58.0015 27.0937L59.191 25.7144ZM69.9867 26.6627V24.8869H61.6079V26.6627H64.8491V33.8174H66.6249V26.6627H69.9867ZM76.0653 34.0933C78.5479 34.0933 80.3582 32.9382 80.3582 30.3176V24.8869H78.5824V30.3176C78.5824 31.8348 77.5652 32.3003 76.0481 32.3003C74.5309 32.3003 73.5137 31.8348 73.5137 30.3176V24.8869H71.738V30.3176C71.738 32.9382 73.5482 34.0933 76.0308 34.0933H76.0653ZM88.5807 26.6627C90.3048 26.6627 91.2875 27.5764 91.2875 29.3177C91.2875 31.0417 90.3048 32.0244 88.5807 32.0244H86.805V26.6627H88.5807ZM83.8396 26.6627H84.943V33.8174H88.5807C91.3047 33.8174 93.0977 32.0589 93.0977 29.2832C93.0977 26.4385 91.2702 24.8869 88.5807 24.8869H83.0466L83.8396 26.6627ZM98.132 33.8174V24.8869H96.3735V33.8174H98.132ZM110.093 29.2832C110.093 31.2141 108.387 32.283 106.697 32.283C104.99 32.283 103.266 31.3693 103.266 29.3522C103.266 27.335 104.956 26.4213 106.68 26.4213C108.369 26.4213 110.093 27.2833 110.093 29.2832ZM111.955 29.266C111.955 26.1627 109.369 24.5938 106.68 24.5938C104.008 24.5938 101.404 26.2834 101.404 29.3177C101.404 32.3347 103.956 34.0933 106.663 34.0933C109.369 34.0933 111.955 32.3003 111.955 29.266Z" fill="black"/>
<ellipse cx="20.8161" cy="20.9587" rx="20.0454" ry="20.0058" transform="rotate(-90 20.8161 20.9587)" fill="#FF0000"/>
<ellipse rx="10.5517" ry="10.5525" transform="matrix(0.19201 -0.981393 0.981399 0.191982 20.8491 21.0007)" fill="white"/>
<path d="M19.3121 22.4358L27.4534 9.55245L35.3661 7.49438L32.352 15.1092L19.3121 22.4358Z" fill="#1E1E1E"/>
</svg>
