<svg width="222" height="117" viewBox="0 0 222 117" fill="none" xmlns="http://www.w3.org/2000/svg">
<rect x="62.0488" y="53.96" width="134" height="32" rx="9.85811" fill="white"/>
<path d="M45.8086 20.4868C46.1796 20.4868 46.5513 20.509 46.9199 20.5532L46.9346 20.5552L46.9482 20.5571L47.2559 20.6001L47.2783 20.603L47.3008 20.6069L47.7246 20.6792L47.7363 20.6812C49.9847 21.0831 52.1393 21.7785 54.1133 22.7417C55.7555 21.3308 57.8864 20.4868 60.1895 20.4868H67.5967C69.7559 20.4868 71.7235 21.217 73.2881 22.4253C74.8683 21.2073 76.8466 20.4868 78.9785 20.4868H86.0479C89.1441 20.4868 91.865 21.9913 93.5557 24.2837C97.8757 21.85 102.898 20.487 108.088 20.4868H108.105L108.754 20.4946H108.771C113.556 20.6048 118.176 21.8711 122.211 24.0591C123.91 21.8938 126.555 20.487 129.551 20.4868H131.554C133.441 20.4868 135.277 21.0594 136.823 22.1187L137.129 22.3374L137.142 22.3462L137.154 22.3569L137.42 22.564L137.445 22.5835L141.525 25.9087C142.992 22.7368 146.198 20.4868 149.995 20.4868H156.856L157.341 20.4995C158.254 20.5469 159.135 20.7296 159.966 21.0239C160.854 20.7414 161.803 20.5835 162.792 20.5835H182.611C186.582 20.5835 190.085 23.0916 191.397 26.7808L191.518 27.1411L191.521 27.1558L191.526 27.1704L191.618 27.4888L191.622 27.5044L191.627 27.52L193.314 33.8872L193.319 33.9087L193.324 33.9292L193.434 34.395L193.439 34.4175L193.443 34.4399C193.903 36.712 193.485 38.9382 192.453 40.7944L193.739 45.8745L193.749 45.9155L193.853 46.3784L193.862 46.4233C193.872 46.4754 193.878 46.5281 193.887 46.5796C195.769 47.721 197.232 49.5146 197.933 51.6948L198.077 52.1919L198.081 52.2065L198.085 52.2222L198.165 52.5571L198.173 52.5903L199.75 59.9253L199.754 59.9468L199.759 59.9692L199.843 60.4253L199.846 60.4458L199.85 60.4663C200.693 65.8946 196.653 70.8908 191.167 71.1978L190.632 71.2124H168.856C168.076 71.2124 167.315 71.1125 166.586 70.9292C165.439 71.4954 164.156 71.8368 162.79 71.8833L162.468 71.8892H160.851C158.787 71.8892 156.786 71.2055 155.157 69.9507L155.145 69.9399L155.131 69.9292L154.862 69.7124L154.85 69.7026L154.838 69.6919L149.159 64.9028C148.165 68.7423 144.775 71.6614 140.624 71.8765L140.132 71.8892H132.034C128.733 71.8891 125.811 70.1672 124.152 67.5483C119.69 70.4437 114.341 72.1389 108.771 72.2671H108.754L108.105 72.2749H108.088C102.11 72.2747 96.3527 70.4663 91.6338 67.2935C90.0254 69.7397 87.3048 71.3759 84.208 71.4956L83.8428 71.5024H75.7598C73.2604 71.5023 71.0089 70.5216 69.3457 68.9429C67.732 70.4724 65.579 71.4244 63.2256 71.4976L62.9326 71.5024H54.7637C53.1904 71.5024 51.7941 70.9393 50.5732 70.2515C49.381 69.5798 48.1862 68.6832 47.1377 67.9556C44.9016 66.4039 43.0511 65.4247 40.8535 65.9575C39.6352 66.2529 38.9091 67.1186 37.7783 68.4146C36.746 69.5976 35.2952 71.2124 32.7637 71.2124H24.624C18.5075 71.2124 14.0468 65.4238 15.6055 59.5093V59.5083L24.0605 27.4351L24.0645 27.4185L24.0693 27.4019L24.1611 27.0835L24.1689 27.0562C25.3718 23.165 28.976 20.4868 33.0791 20.4868H45.8086Z" fill="#221E1E" stroke="white" stroke-width="3"/>
<path d="M108.088 28.9868C118.814 28.9868 127.51 36.7748 127.51 46.3813C127.51 55.9877 118.814 63.7749 108.088 63.7749C97.3625 63.7747 88.6676 55.9877 88.6674 46.3813C88.6674 36.7749 97.3624 28.987 108.088 28.9868ZM149.554 43.4168C150.135 43.8902 150.996 43.4082 150.896 42.6655L149.176 29.9239C149.109 29.428 149.494 28.9868 149.995 28.9868H156.856C157.259 28.9868 157.603 29.2769 157.671 29.6737L163.282 62.4231C163.369 62.928 162.98 63.3892 162.468 63.3892H160.85C160.655 63.3892 160.466 63.3202 160.317 63.1945L141.098 46.9856C140.536 46.5117 139.681 46.9523 139.741 47.685L140.955 62.4951C140.995 62.9766 140.615 63.3892 140.132 63.3892H132.034C131.602 63.3892 131.243 63.0561 131.21 62.6251L128.727 29.8758C128.691 29.3961 129.07 28.9868 129.551 28.9868H131.554C131.744 28.9868 131.929 29.0524 132.076 29.1726L149.554 43.4168ZM66.8005 39.6201C66.7165 40.1239 67.105 40.5825 67.6157 40.5825H76.2381C76.6601 40.5825 77.0144 40.2646 77.0598 39.8451L78.1568 29.7243C78.2023 29.3047 78.5565 28.9868 78.9785 28.9868H86.0483C86.5269 28.9868 86.9054 29.392 86.8729 29.8695L84.6672 62.2321C84.6376 62.6658 84.2772 63.0024 83.8426 63.0024H75.7602C75.2737 63.0024 74.8925 62.5844 74.9372 62.1L76.0275 50.2789C76.0722 49.7945 75.691 49.3765 75.2045 49.3765H66.3868C65.9773 49.3765 65.6296 49.6762 65.5693 50.0812L63.7499 62.2977C63.6896 62.7027 63.3419 63.0024 62.9324 63.0024H54.7641C54.2531 63.0024 53.8645 62.5433 53.949 62.0393L59.374 29.6767C59.4408 29.2785 59.7854 28.9868 60.1892 28.9868H67.597C68.1078 28.9868 68.4963 29.4454 68.4123 29.9492L66.8005 39.6201ZM45.8089 28.9868C45.8519 28.9868 45.8962 28.9904 45.9387 28.9972C59.3714 31.1545 60.4317 45.7368 42.8199 51.9386C42.7327 51.9693 42.6378 51.9858 42.5453 51.9858H36.7576C36.379 51.9858 36.0488 52.2431 35.9562 52.6102L33.5652 62.0881C33.4725 62.4552 33.1423 62.7124 32.7637 62.7124H24.6238C24.0818 62.7124 23.6864 62.1994 23.8246 61.6752L32.2795 29.6026C32.3752 29.2397 32.7034 28.9868 33.0787 28.9868H45.8089ZM185.098 36.0657C185.237 36.5901 184.842 37.104 184.299 37.104H173.216C172.671 37.104 172.276 37.6223 172.419 38.1481L173.128 40.747C173.226 41.1065 173.553 41.356 173.926 41.356H183.184C183.563 41.356 183.893 41.6129 183.985 41.9796L185.5 47.9604C185.632 48.4826 185.237 48.9897 184.698 48.9897H176.026C175.51 48.9897 175.12 49.4578 175.213 49.9656L175.779 53.048C175.851 53.4402 176.193 53.7251 176.592 53.7251H189.054C189.444 53.7251 189.781 53.997 189.862 54.3778L191.44 61.7121C191.55 62.2268 191.158 62.7124 190.632 62.7124H168.857C168.46 62.7124 168.119 62.43 168.045 62.0399L161.98 30.064C161.884 29.5549 162.274 29.0835 162.792 29.0835H182.612C182.986 29.0835 183.314 29.3358 183.41 29.6982L185.098 36.0657ZM108.088 36.8638C103.246 36.8639 99.3198 40.7355 99.3198 45.5112C99.3198 50.287 103.246 54.1585 108.088 54.1587C112.931 54.1587 116.857 50.287 116.857 45.5112C116.857 40.7355 112.931 36.8638 108.088 36.8638ZM38.3609 42.5675C38.2424 43.0851 38.6356 43.5786 39.1666 43.5786H42.5014C46.0409 43.5785 48.0531 36.9155 44.0278 36.9155H40.3143C39.9289 36.9155 39.5947 37.1818 39.5086 37.5575L38.3609 42.5675Z" fill="#FFFB00"/>
<path d="M17.9785 77.7022C16.5978 75.3107 17.6408 72.7927 20.3081 72.078L92.3572 52.7725C95.0246 52.0578 98.3061 53.417 99.6869 55.8085L112.161 77.4144C113.542 79.8059 112.499 82.3239 109.831 83.0386L37.7823 102.344C35.115 103.059 31.8334 101.7 30.4527 99.3081L17.9785 77.7022Z" fill="white"/>
<path d="M27.5029 100.098L15.0288 78.4925C12.805 74.6407 14.4851 70.5845 18.7812 69.4334L20.3081 72.078L20.0634 72.1504C17.5782 72.9499 16.6408 75.3853 17.9785 77.7022L30.4526 99.308L30.5881 99.5295C31.9918 101.71 34.9965 102.954 37.5307 102.405L37.7822 102.344L109.831 83.0385L110.076 82.9661C112.481 82.1923 113.436 79.8869 112.283 77.6393L112.161 77.4143L99.6869 55.8085C98.3493 53.4916 95.2277 52.1439 92.6088 52.7119L92.3573 52.7724L90.8304 50.1278C95.1266 48.9768 100.412 51.1666 102.636 55.0184L115.11 76.6242C117.334 80.476 115.654 84.5319 111.358 85.6831L39.3091 104.989C35.0129 106.14 29.7268 103.95 27.5029 100.098ZM90.8304 50.1278L92.3573 52.7724L20.3081 72.078L18.7812 69.4334L90.8304 50.1278Z" fill="#221E1E"/>
<path d="M84.2967 60.3324C89.1397 59.0348 95.068 61.2214 97.4467 65.3411C99.7951 69.4087 97.8127 73.8817 92.8821 75.2029L90.2419 75.9103L93.8288 82.1231L87.5852 83.796L75.4128 62.7129L84.2967 60.3324ZM44.3817 76.8519L35.3082 79.2831L37.2789 82.6964L44.7469 80.6954L47.45 85.3774L39.982 87.3784L44.4903 95.187L38.3193 96.8405L26.1016 75.6787L41.346 71.594L44.3817 76.8519ZM60.2582 84.8644L69.259 82.4526L72.2942 87.7096L57.0507 91.7941L44.8783 70.711L51.121 69.0383L60.2582 84.8644ZM82.6457 84.8754L76.4021 86.5484L64.2297 65.4652L70.4734 63.7923L82.6457 84.8754ZM87.259 70.7438L89.907 70.0499C91.5922 69.6134 92.1846 68.2765 91.437 66.9817C90.697 65.7 88.9421 65.0526 87.2791 65.4982L84.6388 66.2056L87.259 70.7438Z" fill="#E51D00"/>
<path d="M186.749 76.5105H184.599V77.2882H186.369V78.5222H184.599V79.3206H186.749V80.7067H183.137V75.1348H186.749V76.5105Z" fill="#221E1E"/>
<path d="M179.956 77.506C179.983 77.6926 180.001 77.8724 180.001 78.0487C180.001 79.7424 178.722 80.8381 177.139 80.8381C175.369 80.8381 174.031 79.5177 174.031 77.9277C174.031 76.3377 175.372 75 177.101 75C177.809 75.0104 178.628 75.3111 179.088 75.7362L178.269 76.8596C177.958 76.5693 177.512 76.3826 177.101 76.3826C176.271 76.3826 175.542 77.0636 175.542 77.9242C175.542 78.7054 176.167 79.4659 177.197 79.4659C177.871 79.4659 178.352 79.1409 178.373 78.6086H177.097V77.506H179.956Z" fill="#221E1E"/>
<path d="M169.41 75.1277H170.893V80.7619H170.423L167.558 77.9863V80.7101H166.078V75.0793H166.555L169.41 77.8446V75.1277Z" fill="#221E1E"/>
<path d="M162.846 76.5105H160.696V77.2882H162.466V78.5222H160.696V79.3206H162.846V80.7067H159.234V75.1348H162.846V76.5105Z" fill="#221E1E"/>
<path d="M154.063 79.3172H156.196V80.7067H152.584V75.1348H154.063V79.3172Z" fill="#221E1E"/>
<path d="M147.411 79.3172H149.544V80.7067H145.932V75.1348H147.411V79.3172Z" fill="#221E1E"/>
<path d="M141.346 80.7067L141.066 80.0569H138.985L138.702 80.7067H137.084L139.673 75.0657H140.375L142.967 80.7067H141.346ZM139.452 78.975H140.596L140.026 77.6546L139.452 78.975Z" fill="#221E1E"/>
<path d="M132.645 75.1348H134.121V80.7067H132.645V78.6086H130.989V80.7067H129.51V75.1348H130.989V77.226H132.645V75.1348Z" fill="#221E1E"/>
<path d="M124.386 80.8309C122.813 80.8309 121.344 79.6695 121.344 77.9205C121.344 76.2717 122.678 75.0032 124.413 75.0032C125.132 75.0135 125.903 75.3281 126.473 75.8466L125.623 76.9388C125.281 76.6277 124.828 76.4238 124.417 76.4238C123.559 76.4238 122.844 77.0771 122.844 77.9309C122.844 78.795 123.591 79.431 124.386 79.431C124.852 79.431 125.27 79.2098 125.63 78.8883L126.473 80.0117C125.941 80.4956 125.232 80.8309 124.386 80.8309Z" fill="#221E1E"/>
</svg>
