<svg width="242" height="127" viewBox="0 0 242 127" fill="none" xmlns="http://www.w3.org/2000/svg">
<path d="M9.77196 82.8553C8.87835 82.8553 8.19218 82.5999 7.71346 82.0893C7.23474 81.5787 6.99539 80.8766 6.99539 79.9829V51.2119C6.99539 50.2864 7.2507 49.5843 7.76134 49.1055C8.27197 48.5949 8.97409 48.3396 9.8677 48.3396C10.6656 48.3396 11.2879 48.4992 11.7347 48.8183C12.2134 49.1055 12.6443 49.6162 13.0273 50.3502L24.8516 72.2277H23.3197L35.1441 50.3502C35.5271 49.6162 35.942 49.1055 36.3888 48.8183C36.8356 48.4992 37.4579 48.3396 38.2558 48.3396C39.1494 48.3396 39.8355 48.5949 40.3143 49.1055C40.793 49.5843 41.0323 50.2864 41.0323 51.2119V79.9829C41.0323 80.8766 40.793 81.5787 40.3143 82.0893C39.8675 82.5999 39.1813 82.8553 38.2558 82.8553C37.3622 82.8553 36.676 82.5999 36.1973 82.0893C35.7186 81.5787 35.4792 80.8766 35.4792 79.9829V57.8182H36.5324L26.4793 76.1532C26.1601 76.6957 25.825 77.0947 25.474 77.35C25.1229 77.6053 24.6442 77.733 24.0378 77.733C23.4314 77.733 22.9367 77.6053 22.5538 77.35C22.1708 77.0628 21.8357 76.6638 21.5485 76.1532L11.3996 57.7704H12.5485V79.9829C12.5485 80.8766 12.3092 81.5787 11.8305 82.0893C11.3836 82.5999 10.6975 82.8553 9.77196 82.8553ZM63.5879 82.951C60.3326 82.951 57.4762 82.2329 55.0188 80.7968C52.5933 79.3606 50.7103 77.35 49.3699 74.7649C48.0295 72.1479 47.3593 69.0841 47.3593 65.5735C47.3593 62.9246 47.7423 60.5469 48.5082 58.4406C49.2742 56.3023 50.3593 54.4832 51.7635 52.9832C53.1997 51.4513 54.9071 50.2864 56.8858 49.4885C58.8964 48.6587 61.1305 48.2438 63.5879 48.2438C66.8751 48.2438 69.7314 48.9619 72.157 50.3981C74.5825 51.8023 76.4654 53.797 77.8059 56.3821C79.1463 58.9672 79.8165 62.015 79.8165 65.5256C79.8165 68.1745 79.4335 70.5681 78.6675 72.7064C77.9016 74.8447 76.8005 76.6798 75.3644 78.2117C73.9601 79.7436 72.2527 80.9244 70.2421 81.7542C68.2634 82.5521 66.0453 82.951 63.5879 82.951ZM63.5879 77.6851C65.6623 77.6851 67.4176 77.2064 68.8538 76.2489C70.3219 75.2915 71.4389 73.9032 72.2048 72.0841C73.0027 70.2649 73.4016 68.0947 73.4016 65.5735C73.4016 61.7437 72.5399 58.7757 70.8165 56.6693C69.1251 54.5629 66.7155 53.5098 63.5879 53.5098C61.5453 53.5098 59.79 53.9885 58.322 54.9459C56.8539 55.8714 55.7209 57.2438 54.9231 59.0629C54.1571 60.8501 53.7741 63.0203 53.7741 65.5735C53.7741 69.3713 54.6358 72.3394 56.3592 74.4777C58.0826 76.616 60.4922 77.6851 63.5879 77.6851ZM88.9196 82.8553C87.9941 82.8553 87.276 82.5999 86.7654 82.0893C86.2867 81.5787 86.0473 80.8446 86.0473 79.8872V51.4034C86.0473 50.414 86.2867 49.664 86.7654 49.1534C87.276 48.6109 87.9303 48.3396 88.7281 48.3396C89.4622 48.3396 90.0047 48.4832 90.3558 48.7704C90.7388 49.0258 91.1856 49.4726 91.6962 50.1109L110.031 73.9032H108.786V51.2598C108.786 50.3343 109.026 49.6162 109.505 49.1055C110.015 48.5949 110.733 48.3396 111.659 48.3396C112.584 48.3396 113.286 48.5949 113.765 49.1055C114.244 49.6162 114.483 50.3343 114.483 51.2598V79.9829C114.483 80.8766 114.26 81.5787 113.813 82.0893C113.366 82.5999 112.76 82.8553 111.994 82.8553C111.26 82.8553 110.669 82.7116 110.223 82.4244C109.808 82.1372 109.345 81.6744 108.834 81.0361L90.5473 57.2438H91.7441V79.8872C91.7441 80.8446 91.5047 81.5787 91.026 82.0893C90.5473 82.5999 89.8451 82.8553 88.9196 82.8553ZM133.491 82.951C132.086 82.951 130.682 82.8393 129.278 82.6159C127.874 82.4244 126.549 82.1212 125.305 81.7063C124.06 81.2595 122.943 80.717 121.954 80.0787C121.379 79.6957 120.98 79.233 120.757 78.6904C120.533 78.1479 120.454 77.6213 120.517 77.1106C120.613 76.5681 120.821 76.1053 121.14 75.7223C121.491 75.3075 121.922 75.0521 122.432 74.9564C122.943 74.8606 123.501 75.0043 124.108 75.3872C125.512 76.217 126.996 76.8234 128.56 77.2064C130.124 77.5894 131.767 77.7808 133.491 77.7808C136.012 77.7808 137.847 77.3659 138.996 76.5362C140.145 75.6745 140.719 74.5734 140.719 73.233C140.719 72.116 140.304 71.2383 139.475 70.6C138.677 69.9618 137.288 69.4352 135.31 69.0203L130.044 67.9192C127.012 67.2809 124.746 66.2118 123.246 64.7118C121.778 63.1799 121.044 61.1693 121.044 58.6799C121.044 57.1161 121.363 55.6959 122.001 54.4193C122.64 53.1427 123.533 52.0417 124.682 51.1162C125.863 50.1906 127.251 49.4885 128.847 49.0098C130.475 48.4992 132.262 48.2438 134.209 48.2438C136.124 48.2438 137.943 48.4832 139.666 48.9619C141.39 49.4406 142.937 50.1428 144.31 51.0683C144.82 51.4194 145.155 51.8502 145.315 52.3608C145.507 52.8715 145.554 53.3821 145.459 53.8927C145.363 54.3715 145.139 54.7863 144.788 55.1374C144.437 55.4885 143.991 55.6959 143.448 55.7597C142.937 55.8236 142.347 55.664 141.677 55.281C140.496 54.6108 139.299 54.1321 138.086 53.8449C136.874 53.5576 135.565 53.414 134.161 53.414C132.693 53.414 131.432 53.6215 130.379 54.0364C129.326 54.4512 128.512 55.0417 127.938 55.8076C127.395 56.5416 127.124 57.4193 127.124 58.4406C127.124 59.5895 127.507 60.515 128.273 61.2171C129.039 61.8874 130.347 62.4139 132.198 62.7969L137.416 63.898C140.576 64.5682 142.921 65.6214 144.453 67.0575C146.017 68.4937 146.799 70.4086 146.799 72.8022C146.799 74.3341 146.48 75.7223 145.842 76.967C145.235 78.2117 144.342 79.2808 143.161 80.1744C142.012 81.068 140.624 81.7542 138.996 82.2329C137.368 82.7116 135.533 82.951 133.491 82.951ZM162.559 82.8553C161.57 82.8553 160.804 82.584 160.261 82.0414C159.751 81.467 159.495 80.6851 159.495 79.6957V53.8449H150.16C149.33 53.8449 148.676 53.6215 148.197 53.1747C147.751 52.6959 147.527 52.0576 147.527 51.2598C147.527 50.43 147.751 49.8077 148.197 49.3928C148.676 48.946 149.33 48.7226 150.16 48.7226H174.958C175.788 48.7226 176.426 48.946 176.873 49.3928C177.351 49.8077 177.591 50.43 177.591 51.2598C177.591 52.0576 177.351 52.6959 176.873 53.1747C176.426 53.6215 175.788 53.8449 174.958 53.8449H165.623V79.6957C165.623 80.6851 165.368 81.467 164.857 82.0414C164.346 82.584 163.58 82.8553 162.559 82.8553ZM184.345 82.4723C183.292 82.4723 182.478 82.201 181.904 81.6585C181.361 81.084 181.09 80.2702 181.09 79.217V51.9779C181.09 50.9247 181.361 50.1268 181.904 49.5843C182.478 49.0098 183.292 48.7226 184.345 48.7226H201.436C202.233 48.7226 202.84 48.93 203.255 49.3449C203.701 49.7598 203.925 50.3502 203.925 51.1162C203.925 51.914 203.701 52.5364 203.255 52.9832C202.84 53.3981 202.233 53.6055 201.436 53.6055H186.978V62.8927H200.382C201.212 62.8927 201.834 63.1001 202.249 63.515C202.664 63.9299 202.872 64.5363 202.872 65.3341C202.872 66.132 202.664 66.7384 202.249 67.1533C201.834 67.5682 201.212 67.7756 200.382 67.7756H186.978V77.5894H201.436C202.233 77.5894 202.84 77.7968 203.255 78.2117C203.701 78.6266 203.925 79.233 203.925 80.0308C203.925 80.8287 203.701 81.4351 203.255 81.85C202.84 82.2648 202.233 82.4723 201.436 82.4723H184.345ZM212.718 82.8553C211.729 82.8553 210.963 82.584 210.42 82.0414C209.909 81.467 209.654 80.6851 209.654 79.6957V51.8342C209.654 50.813 209.925 50.047 210.468 49.5364C211.011 48.9938 211.776 48.7226 212.766 48.7226H224.303C228.005 48.7226 230.861 49.6162 232.872 51.4034C234.883 53.1587 235.888 55.6321 235.888 58.8235C235.888 60.898 235.425 62.6852 234.5 64.1852C233.606 65.6852 232.298 66.8341 230.574 67.632C228.851 68.4299 226.76 68.8288 224.303 68.8288L224.734 68.1107H226.314C227.622 68.1107 228.755 68.4299 229.713 69.0681C230.702 69.7064 231.564 70.7117 232.298 72.0841L235.888 78.7383C236.271 79.4085 236.447 80.0627 236.415 80.701C236.383 81.3393 236.143 81.8659 235.697 82.2808C235.25 82.6638 234.595 82.8553 233.734 82.8553C232.872 82.8553 232.17 82.6797 231.627 82.3287C231.085 81.9457 230.606 81.3712 230.191 80.6053L225.356 71.7011C224.782 70.616 224.096 69.8979 223.298 69.5469C222.532 69.1639 221.542 68.9724 220.33 68.9724H215.782V79.6957C215.782 80.6851 215.526 81.467 215.016 82.0414C214.505 82.584 213.739 82.8553 212.718 82.8553ZM215.782 64.4246H223.25C225.452 64.4246 227.111 63.9778 228.228 63.0841C229.377 62.1586 229.952 60.7863 229.952 58.9672C229.952 57.1799 229.377 55.8395 228.228 54.9459C227.111 54.0204 225.452 53.5576 223.25 53.5576H215.782V64.4246Z" fill="white"/>
<path d="M53.1389 115.283C52.4791 115.283 51.9725 115.094 51.6191 114.717C51.2657 114.34 51.089 113.822 51.089 113.162V91.9206C51.089 91.2373 51.2774 90.7189 51.6544 90.3655C52.0314 89.9885 52.5498 89.8 53.2096 89.8C53.7986 89.8 54.2581 89.9178 54.588 90.1535C54.9414 90.3655 55.2595 90.7425 55.5422 91.2844L64.2721 107.436H63.1411L71.871 91.2844C72.1537 90.7425 72.46 90.3655 72.7899 90.1535C73.1198 89.9178 73.5793 89.8 74.1683 89.8C74.8281 89.8 75.3347 89.9885 75.6881 90.3655C76.0415 90.7189 76.2182 91.2373 76.2182 91.9206V113.162C76.2182 113.822 76.0415 114.34 75.6881 114.717C75.3582 115.094 74.8516 115.283 74.1683 115.283C73.5086 115.283 73.002 115.094 72.6485 114.717C72.2951 114.34 72.1184 113.822 72.1184 113.162V96.798H72.8959L65.4738 110.335C65.2382 110.735 64.9908 111.03 64.7316 111.218C64.4724 111.407 64.119 111.501 63.6713 111.501C63.2236 111.501 62.8584 111.407 62.5756 111.218C62.2929 111.006 62.0455 110.712 61.8334 110.335L54.3406 96.7627H55.1888V113.162C55.1888 113.822 55.0121 114.34 54.6587 114.717C54.3288 115.094 53.8222 115.283 53.1389 115.283ZM81.9497 115.283C81.3842 115.283 80.9247 115.153 80.5713 114.894C80.2414 114.635 80.0412 114.293 79.9705 113.869C79.8998 113.421 79.9822 112.927 80.2179 112.385L89.5486 91.7086C89.8549 91.0253 90.2201 90.5422 90.6442 90.2595C91.0919 89.9532 91.5985 89.8 92.164 89.8C92.7059 89.8 93.189 89.9532 93.6131 90.2595C94.0608 90.5422 94.4378 91.0253 94.7441 91.7086L104.11 112.385C104.369 112.927 104.464 113.421 104.393 113.869C104.322 114.317 104.122 114.67 103.792 114.929C103.462 115.165 103.026 115.283 102.484 115.283C101.825 115.283 101.306 115.13 100.929 114.823C100.576 114.493 100.258 113.999 99.9749 113.339L97.6776 108.002L99.5862 109.239H84.6712L86.5797 108.002L84.3177 113.339C84.0114 114.022 83.6933 114.517 83.3634 114.823C83.0336 115.13 82.5623 115.283 81.9497 115.283ZM92.0933 94.9955L87.1452 106.765L86.2263 105.634H98.031L97.1474 106.765L92.164 94.9955H92.0933ZM116.315 115.353C115.279 115.353 114.242 115.271 113.205 115.106C112.168 114.965 111.19 114.741 110.272 114.435C109.353 114.105 108.528 113.704 107.797 113.233C107.373 112.95 107.079 112.608 106.914 112.208C106.749 111.807 106.69 111.419 106.737 111.042C106.808 110.641 106.961 110.299 107.197 110.017C107.456 109.71 107.774 109.522 108.151 109.451C108.528 109.38 108.94 109.486 109.388 109.769C110.425 110.382 111.52 110.829 112.675 111.112C113.829 111.395 115.043 111.536 116.315 111.536C118.177 111.536 119.532 111.23 120.38 110.617C121.228 109.981 121.652 109.168 121.652 108.179C121.652 107.354 121.346 106.706 120.733 106.235C120.144 105.764 119.119 105.375 117.658 105.068L113.771 104.256C111.532 103.784 109.859 102.995 108.752 101.888C107.668 100.757 107.126 99.2721 107.126 97.4342C107.126 96.2797 107.362 95.2311 107.833 94.2887C108.304 93.3462 108.964 92.5333 109.812 91.8499C110.684 91.1666 111.709 90.6483 112.887 90.2948C114.089 89.9178 115.408 89.7293 116.845 89.7293C118.259 89.7293 119.602 89.906 120.875 90.2595C122.147 90.6129 123.29 91.1313 124.303 91.8146C124.68 92.0738 124.927 92.3919 125.045 92.7689C125.187 93.1459 125.222 93.5229 125.151 93.8999C125.08 94.2533 124.916 94.5596 124.656 94.8188C124.397 95.078 124.067 95.2311 123.667 95.2783C123.29 95.3254 122.854 95.2076 122.359 94.9248C121.487 94.43 120.604 94.0766 119.708 93.8645C118.813 93.6525 117.847 93.5464 116.81 93.5464C115.726 93.5464 114.796 93.6996 114.018 94.0059C113.24 94.3122 112.64 94.7481 112.215 95.3136C111.815 95.8556 111.615 96.5035 111.615 97.2575C111.615 98.1058 111.897 98.7891 112.463 99.3074C113.028 99.8023 113.994 100.191 115.361 100.474L119.213 101.287C121.546 101.781 123.278 102.559 124.409 103.619C125.564 104.68 126.141 106.093 126.141 107.861C126.141 108.992 125.905 110.017 125.434 110.935C124.986 111.854 124.326 112.644 123.455 113.304C122.606 113.963 121.581 114.47 120.38 114.823C119.178 115.177 117.823 115.353 116.315 115.353ZM137.776 115.283C137.046 115.283 136.48 115.082 136.08 114.682C135.703 114.258 135.514 113.681 135.514 112.95V93.8645H128.622C128.01 93.8645 127.527 93.6996 127.173 93.3697C126.843 93.0163 126.678 92.545 126.678 91.956C126.678 91.3434 126.843 90.8839 127.173 90.5776C127.527 90.2477 128.01 90.0828 128.622 90.0828H146.93C147.543 90.0828 148.014 90.2477 148.344 90.5776C148.697 90.8839 148.874 91.3434 148.874 91.956C148.874 92.545 148.697 93.0163 148.344 93.3697C148.014 93.6996 147.543 93.8645 146.93 93.8645H140.038V112.95C140.038 113.681 139.85 114.258 139.473 114.682C139.096 115.082 138.53 115.283 137.776 115.283ZM153.861 115C153.083 115 152.483 114.8 152.058 114.399C151.658 113.975 151.458 113.374 151.458 112.597V92.4861C151.458 91.7086 151.658 91.1195 152.058 90.7189C152.483 90.2948 153.083 90.0828 153.861 90.0828H166.479C167.068 90.0828 167.515 90.2359 167.822 90.5422C168.152 90.8485 168.316 91.2844 168.316 91.8499C168.316 92.439 168.152 92.8985 167.822 93.2283C167.515 93.5347 167.068 93.6878 166.479 93.6878H155.805V100.544H165.701C166.314 100.544 166.773 100.698 167.079 101.004C167.386 101.31 167.539 101.758 167.539 102.347C167.539 102.936 167.386 103.384 167.079 103.69C166.773 103.996 166.314 104.15 165.701 104.15H155.805V111.395H166.479C167.068 111.395 167.515 111.548 167.822 111.854C168.152 112.161 168.316 112.608 168.316 113.197C168.316 113.787 168.152 114.234 167.822 114.541C167.515 114.847 167.068 115 166.479 115H153.861ZM174.808 115.283C174.078 115.283 173.512 115.082 173.112 114.682C172.735 114.258 172.546 113.681 172.546 112.95V92.3801C172.546 91.6261 172.747 91.0606 173.147 90.6836C173.548 90.283 174.113 90.0828 174.844 90.0828H183.362C186.095 90.0828 188.204 90.7425 189.688 92.062C191.172 93.3579 191.915 95.184 191.915 97.5403C191.915 99.0718 191.573 100.391 190.89 101.499C190.23 102.606 189.264 103.454 187.992 104.043C186.719 104.633 185.176 104.927 183.362 104.927L183.68 104.397H184.846C185.812 104.397 186.648 104.633 187.355 105.104C188.086 105.575 188.722 106.317 189.264 107.33L191.915 112.243C192.197 112.738 192.327 113.221 192.303 113.692C192.28 114.164 192.103 114.552 191.773 114.859C191.443 115.141 190.96 115.283 190.324 115.283C189.688 115.283 189.17 115.153 188.769 114.894C188.369 114.611 188.015 114.187 187.709 113.622L184.139 107.048C183.715 106.247 183.208 105.716 182.619 105.457C182.054 105.174 181.323 105.033 180.428 105.033H177.07V112.95C177.07 113.681 176.882 114.258 176.505 114.682C176.128 115.082 175.562 115.283 174.808 115.283ZM177.07 101.675H182.584C184.21 101.675 185.435 101.346 186.26 100.686C187.108 100.003 187.532 98.9894 187.532 97.6463C187.532 96.3268 187.108 95.3372 186.26 94.6774C185.435 93.9941 184.21 93.6525 182.584 93.6525H177.07V101.675Z" fill="white"/>
<path d="M79.4676 66.9295C79.4676 77.1458 71.1856 85.4278 60.9693 85.4278C50.7529 85.4278 42.4709 77.1458 42.4709 66.9295C42.4709 56.7131 50.7529 48.4312 60.9693 48.4312C71.1856 48.4312 79.4676 56.7131 79.4676 66.9295ZM54.8254 66.9295C54.8254 70.3226 57.5761 73.0733 60.9693 73.0733C64.3624 73.0733 67.1131 70.3226 67.1131 66.9295C67.1131 63.5363 64.3624 60.7856 60.9693 60.7856C57.5761 60.7856 54.8254 63.5363 54.8254 66.9295Z" fill="#CBCF9A"/>
<g filter="url(#filter0_i_2172_6550)">
<path fill-rule="evenodd" clip-rule="evenodd" d="M60.9693 82.2995C64.8562 82.2995 68.4367 80.9877 71.2922 78.7826C71.641 78.5133 72.2789 78.7494 72.6564 78.9768C72.8259 79.0789 73.0244 79.1377 73.2367 79.1377C73.8586 79.1377 74.3628 78.6335 74.3628 78.0116V75.8931C74.3628 75.7746 74.4023 75.6596 74.4737 75.5649C76.6082 72.735 77.8739 69.2128 77.8739 65.395C77.8739 56.0589 70.3054 48.4905 60.9693 48.4905C51.6332 48.4905 44.0648 56.0589 44.0648 65.395C44.0648 71.848 47.6806 77.4566 52.9967 80.3051C53.1743 80.4003 53.2877 80.5842 53.2877 80.7857V81.8566C53.2877 82.4785 53.7919 82.9827 54.4138 82.9827C55.0358 82.9827 55.5399 82.4785 55.5399 81.8566V81.5618C55.5399 81.4867 55.6137 81.4337 55.6851 81.4572V81.4572C55.7242 81.4701 55.7527 81.5037 55.7611 81.544C55.897 82.1899 56.4701 82.6748 57.1564 82.6748C57.5113 82.6748 57.8359 82.5451 58.0854 82.3306C58.2378 82.1997 58.4317 82.1115 58.6307 82.1391C59.3951 82.2448 60.1758 82.2995 60.9693 82.2995ZM60.9693 72.5812C57.0005 72.5812 53.7832 69.3638 53.7832 65.395C53.7832 61.4262 57.0005 58.2088 60.9693 58.2088C64.9382 58.2088 68.1555 61.4262 68.1555 65.395C68.1555 69.3638 64.9382 72.5812 60.9693 72.5812Z" fill="#DD91E3"/>
</g>
<g style="mix-blend-mode:overlay" opacity="0.65">
<path d="M58.6294 51.7184C56.3789 52.1967 54.2705 53.1921 52.4711 54.6258C50.6717 56.0595 49.2305 57.8922 48.2615 59.979" stroke="white" stroke-width="3.75502" stroke-linecap="round"/>
</g>
<rect x="65.255" y="53.3071" width="5.21398" height="1.58001" rx="0.790007" transform="rotate(18.4213 65.255 53.3071)" fill="white"/>
<rect x="44.8296" y="68.3969" width="5.21398" height="1.58001" rx="0.790007" transform="rotate(-34.4363 44.8296 68.3969)" fill="white"/>
<rect x="55.7756" y="76.3074" width="5.21398" height="1.58001" rx="0.790007" transform="rotate(-34.4363 55.7756 76.3074)" fill="white"/>
<rect x="71.9021" y="70.5004" width="5.21398" height="1.58001" rx="0.790007" transform="rotate(-141.106 71.9021 70.5004)" fill="white"/>
<rect x="52.4399" y="52.1537" width="5.21398" height="1.58001" rx="0.790007" transform="rotate(17.3315 52.4399 52.1537)" fill="white"/>
<path d="M82.7852 41.7825C81.9558 41.7825 81.3138 41.5551 80.8589 41.1003C80.4309 40.6187 80.2169 39.9632 80.2169 39.1339V15.7782C80.2169 14.9221 80.4443 14.2801 80.8991 13.852C81.3539 13.3972 81.996 13.1698 82.8253 13.1698H92.4966C95.6 13.1698 97.9944 13.9189 99.6799 15.4171C101.365 16.8885 102.208 18.9619 102.208 21.6372C102.208 23.3762 101.82 24.8744 101.044 26.1318C100.295 27.3892 99.1983 28.3523 97.7537 29.0211C96.309 29.69 94.5566 30.0244 92.4966 30.0244L92.8578 29.4224H94.1821C95.279 29.4224 96.2287 29.69 97.0313 30.225C97.8607 30.7601 98.583 31.6028 99.1983 32.7532L102.208 38.3313C102.529 38.8931 102.676 39.4416 102.65 39.9766C102.623 40.5117 102.422 40.9531 102.048 41.3009C101.673 41.6219 101.125 41.7825 100.402 41.7825C99.6799 41.7825 99.0913 41.6353 98.6365 41.341C98.1817 41.02 97.7804 40.5384 97.4326 39.8964L93.3795 32.4322C92.8979 31.5226 92.3227 30.9206 91.6539 30.6263C91.0118 30.3053 90.1825 30.1448 89.1659 30.1448H85.3535V39.1339C85.3535 39.9632 85.1395 40.6187 84.7114 41.1003C84.2834 41.5551 83.6413 41.7825 82.7852 41.7825ZM85.3535 26.3324H91.6138C93.4598 26.3324 94.8509 25.9579 95.7873 25.2088C96.7504 24.4329 97.232 23.2825 97.232 21.7576C97.232 20.2594 96.7504 19.1358 95.7873 18.3867C94.8509 17.6108 93.4598 17.2229 91.6138 17.2229H85.3535V26.3324ZM110.296 41.7825C109.467 41.7825 108.825 41.5551 108.37 41.1003C107.942 40.6187 107.728 39.9632 107.728 39.1339V15.4973C107.728 14.6412 107.942 13.9858 108.37 13.531C108.825 13.0762 109.467 12.8488 110.296 12.8488C111.126 12.8488 111.754 13.0762 112.182 13.531C112.637 13.9858 112.864 14.6412 112.864 15.4973V39.1339C112.864 39.9632 112.65 40.6187 112.222 41.1003C111.794 41.5551 111.152 41.7825 110.296 41.7825ZM128.805 41.8627C127.628 41.8627 126.451 41.7691 125.274 41.5818C124.097 41.4213 122.986 41.1671 121.943 40.8193C120.9 40.4448 119.963 39.99 119.134 39.4549C118.652 39.1339 118.318 38.746 118.131 38.2912C117.943 37.8364 117.876 37.3949 117.93 36.9669C118.01 36.5121 118.184 36.1241 118.452 35.8031C118.746 35.4553 119.107 35.2413 119.535 35.161C119.963 35.0808 120.431 35.2011 120.94 35.5222C122.117 36.2178 123.361 36.7261 124.672 37.0471C125.983 37.3682 127.36 37.5287 128.805 37.5287C130.919 37.5287 132.457 37.1809 133.42 36.4853C134.383 35.763 134.865 34.84 134.865 33.7163C134.865 32.78 134.517 32.0443 133.821 31.5092C133.153 30.9741 131.989 30.5327 130.33 30.1849L125.916 29.2619C123.374 28.7268 121.475 27.8306 120.217 26.5732C118.987 25.289 118.371 23.6036 118.371 21.5168C118.371 20.2059 118.639 19.0154 119.174 17.9453C119.709 16.8751 120.458 15.9521 121.421 15.1763C122.411 14.4004 123.575 13.8119 124.913 13.4106C126.277 12.9825 127.775 12.7685 129.407 12.7685C131.012 12.7685 132.537 12.9691 133.982 13.3704C135.427 13.7717 136.724 14.3603 137.875 15.1362C138.303 15.4304 138.584 15.7916 138.717 16.2197C138.878 16.6477 138.918 17.0758 138.838 17.5038C138.757 17.9051 138.57 18.2529 138.276 18.5472C137.982 18.8415 137.607 19.0154 137.152 19.0689C136.724 19.1224 136.229 18.9886 135.667 18.6676C134.678 18.1058 133.674 17.7045 132.658 17.4637C131.641 17.2229 130.544 17.1025 129.367 17.1025C128.136 17.1025 127.08 17.2764 126.197 17.6242C125.314 17.972 124.632 18.4669 124.15 19.109C123.695 19.7244 123.468 20.4601 123.468 21.3162C123.468 22.2793 123.789 23.0551 124.431 23.6437C125.073 24.2055 126.17 24.647 127.722 24.968L132.096 25.891C134.744 26.4528 136.711 27.3357 137.995 28.5396C139.306 29.7435 139.961 31.3487 139.961 33.3552C139.961 34.6393 139.694 35.8031 139.159 36.8465C138.65 37.8899 137.901 38.7861 136.911 39.5352C135.948 40.2843 134.785 40.8595 133.42 41.2608C132.056 41.6621 130.517 41.8627 128.805 41.8627ZM147.099 41.4614C146.216 41.4614 145.534 41.234 145.052 40.7792C144.597 40.2977 144.37 39.6154 144.37 38.7326V15.8986C144.37 15.0158 144.597 14.3469 145.052 13.8921C145.534 13.4106 146.216 13.1698 147.099 13.1698H161.425C162.094 13.1698 162.602 13.3437 162.95 13.6915C163.325 14.0393 163.512 14.5342 163.512 15.1763C163.512 15.8451 163.325 16.3668 162.95 16.7414C162.602 17.0892 162.094 17.263 161.425 17.263H149.306V25.0483H160.542C161.238 25.0483 161.76 25.2222 162.107 25.57C162.455 25.9177 162.629 26.4261 162.629 27.0949C162.629 27.7637 162.455 28.272 162.107 28.6198C161.76 28.9676 161.238 29.1415 160.542 29.1415H149.306V37.3682H161.425C162.094 37.3682 162.602 37.5421 162.95 37.8899C163.325 38.2377 163.512 38.746 163.512 39.4148C163.512 40.0836 163.325 40.5919 162.95 40.9397C162.602 41.2875 162.094 41.4614 161.425 41.4614H147.099Z" fill="white"/>
<defs>
<filter id="filter0_i_2172_6550" x="44.0648" y="48.4905" width="33.8091" height="34.4922" filterUnits="userSpaceOnUse" color-interpolation-filters="sRGB">
<feFlood flood-opacity="0" result="BackgroundImageFix"/>
<feBlend mode="normal" in="SourceGraphic" in2="BackgroundImageFix" result="shape"/>
<feColorMatrix in="SourceAlpha" type="matrix" values="0 0 0 0 0 0 0 0 0 0 0 0 0 0 0 0 0 0 127 0" result="hardAlpha"/>
<feOffset dy="1.07286"/>
<feComposite in2="hardAlpha" operator="arithmetic" k2="-1" k3="1"/>
<feColorMatrix type="matrix" values="0 0 0 0 1 0 0 0 0 1 0 0 0 0 1 0 0 0 0.25 0"/>
<feBlend mode="normal" in2="shape" result="effect1_innerShadow_2172_6550"/>
</filter>
</defs>
</svg>
