<svg width="58" height="58" viewBox="0 0 58 58" fill="none" xmlns="http://www.w3.org/2000/svg">
<path d="M27.8019 47.985L29.1433 49.4387L30.4702 47.9718L51.9631 24.2108L52.848 23.2325L52.1859 22.0916L47.1097 13.3432L46.7757 12.7676L46.1481 12.5461L36.9677 9.30596L36.6792 9.20411L36.3731 9.20295L22.1165 9.14895L21.7915 9.14772L21.4864 9.25984L12.522 12.554L11.9767 12.7544L11.6503 13.235L5.71004 21.9834L4.90435 23.17L5.87697 24.224L27.8019 47.985Z" stroke="#341A39" stroke-width="3.61423"/>
<mask id="mask0_3541_160516" style="mask-type:alpha" maskUnits="userSpaceOnUse" x="7" y="10" width="44" height="37">
<path d="M7.20508 22.9976L29.13 46.7586L50.6229 22.9976L45.5467 14.2492L36.3663 11.0091L22.1097 10.9551L13.1453 14.2492L7.20508 22.9976Z" fill="black"/>
</mask>
<g mask="url(#mask0_3541_160516)">
<path d="M18.9236 28.7223L7.20508 22.998L7.96111 37.3626L29.67 47.4611L18.9236 28.7223Z" fill="url(#paint0_linear_3541_160516)"/>
<path d="M39.3361 28.7223L50.6226 22.998L50.2985 37.3626L28.5896 47.4611L39.3361 28.7223Z" fill="#0B6B37"/>
<path d="M37.9322 17.0033L39.3363 28.7218H18.8154L20.9755 14.0332L37.9322 17.0033Z" fill="url(#paint1_linear_3541_160516)"/>
<path d="M29.1299 46.8124L18.8154 28.7217H39.3363L29.1299 46.8124Z" fill="url(#paint2_radial_3541_160516)"/>
<path d="M18.8156 28.7215L7.20508 22.9973L11.9033 10.4688L21.1377 14.0869L18.8156 28.7215Z" fill="#4EB948"/>
<path d="M39.3361 28.7215L50.6226 22.9973L46.3564 10.4688L37.878 17.003L39.3361 28.7215Z" fill="url(#paint3_radial_3541_160516)"/>
<path d="M20.5973 17.8131C20.5973 17.8131 13.3606 14.2489 13.145 14.2489L20.9753 11.0088H36.3805L45.5464 14.2489L37.9861 17.8131H20.5973Z" fill="url(#paint4_radial_3541_160516)"/>
<path d="M20.1397 18.0148L13.1807 14.2832L20.4422 17.208H37.8901L45.656 14.2832L38.2936 18.0148L39.3021 28.6046L37.4867 18.0148H20.8457L19.232 28.7055C19.232 28.7055 28.9141 46.4963 28.9141 46.6576C28.9141 46.819 21.8878 34.8576 18.4251 28.9072L7.12939 22.9567L18.4251 28.1003L20.1397 18.0148Z" fill="#B4FF9F"/>
</g>
<g style="mix-blend-mode:soft-light" opacity="0.5">
<path fill-rule="evenodd" clip-rule="evenodd" d="M36.4781 11.0566L45.4542 14.284L37.6884 17.3096H20.4422L36.4781 11.0566ZM39.3016 28.7062H18.7915L37.6879 18.0155L39.3016 28.7062ZM7.22998 22.9575L18.7274 28.5045L13.1804 14.2839L7.22998 22.9575Z" fill="white"/>
</g>
<defs>
<linearGradient id="paint0_linear_3541_160516" x1="7.20508" y1="22.998" x2="29.076" y2="47.5151" gradientUnits="userSpaceOnUse">
<stop stop-color="#107F3E"/>
<stop offset="1" stop-color="#1CB042"/>
</linearGradient>
<linearGradient id="paint1_linear_3541_160516" x1="20.3275" y1="22.7276" x2="38.5803" y2="22.5656" gradientUnits="userSpaceOnUse">
<stop stop-color="#59B946"/>
<stop offset="1" stop-color="#139A4B"/>
</linearGradient>
<radialGradient id="paint2_radial_3541_160516" cx="0" cy="0" r="1" gradientUnits="userSpaceOnUse" gradientTransform="translate(18.8694 28.7217) rotate(34.0194) scale(18.2429 20.6935)">
<stop stop-color="#16A347"/>
<stop offset="1" stop-color="#168242"/>
</radialGradient>
<radialGradient id="paint3_radial_3541_160516" cx="0" cy="0" r="1" gradientUnits="userSpaceOnUse" gradientTransform="translate(37.878 17.489) rotate(22.7576) scale(13.8205 9.64979)">
<stop stop-color="#0C7E3B"/>
<stop offset="1" stop-color="#1CA051"/>
</radialGradient>
<radialGradient id="paint4_radial_3541_160516" cx="0" cy="0" r="1" gradientUnits="userSpaceOnUse" gradientTransform="translate(29.3457 17.8131) rotate(-90) scale(6.80428 32.4013)">
<stop stop-color="#48AB40"/>
<stop offset="1" stop-color="#56BA49"/>
</radialGradient>
</defs>
</svg>
