<svg width="512" height="256" viewBox="0 0 512 256" fill="none" xmlns="http://www.w3.org/2000/svg">
<path d="M24.1247 156.564L11.0925 26.261C11.0237 25.5735 11.6667 25.0331 12.3311 25.2226C40.5744 33.275 79.9789 35.9074 105.535 49.6893C106.061 49.9729 106.711 49.7307 106.97 49.1924C115.657 31.1515 172.01 26.4348 188.197 53.7037C188.581 54.3506 189.544 54.3789 189.967 53.757C211.016 22.8539 256.293 37.9958 267.498 37.9958C320.851 37.9958 404.048 35.7515 404.329 35.7439C404.338 35.7437 404.322 35.7439 404.331 35.7439C404.608 35.7438 466.942 35.7109 507.12 25.3329C507.908 25.1294 508.579 25.9229 508.259 26.6707L480.508 91.4224C480.355 91.78 480.003 92.0119 479.614 92.0119H468.943C468.433 92.0119 468.01 92.4052 467.973 92.9135L462.956 161.284C462.915 161.837 462.422 162.244 461.872 162.179L441.759 159.801C441.017 159.714 440.453 160.463 440.707 161.166C449.311 184.932 429.204 219.826 412.46 219.826L364.346 224.194C364.203 224.207 364.058 224.188 363.923 224.138L352.292 219.878C352.197 219.844 352.097 219.824 351.996 219.82L274.822 216.737C274.621 216.729 274.42 216.785 274.251 216.894C256.59 228.247 241.623 227.64 228.358 220.259C227.923 220.017 227.373 220.132 227.08 220.535L215.469 236.499C215.185 236.89 214.658 237.013 214.231 236.789L182.232 220.029C181.986 219.9 181.692 219.885 181.431 219.981C158.418 228.507 143.071 220.156 130.471 204.39C130.106 203.934 129.417 203.896 128.998 204.303C109.696 223.055 90.2106 223.338 54.0907 216.894C53.5699 216.801 53.2092 216.307 53.2917 215.784L58.2224 184.556C58.2472 184.399 58.2322 184.235 58.1803 184.085C53.2529 169.785 50.4981 161.416 54.9737 147.893C55.2361 147.1 54.464 146.332 53.6834 146.629L25.4386 157.376C24.84 157.604 24.1885 157.201 24.1247 156.564Z" fill="#341A39"/>
<g filter="url(#filter0_i_2274_98064)">
<path fill-rule="evenodd" clip-rule="evenodd" d="M450.993 145.312C450.976 145.726 450.48 145.931 450.17 145.655C441.9 138.29 433.457 135.336 422.716 132.611C422.5 132.556 422.348 132.361 422.348 132.138V94.566C430.299 95.9446 440.668 97.7438 452.921 99.8704L450.993 145.312ZM453.151 94.4361C440.796 93.6691 430.347 93.0242 422.348 92.536V74.8981C422.348 74.6294 422.13 74.4117 421.861 74.4117H406.402C406.133 74.4117 405.916 74.1939 405.916 73.9253V49.7731C405.916 49.4921 406.16 49.27 406.44 49.2878C432.723 50.9585 445.793 48.9862 467.852 45.6574C471.915 45.0444 476.282 44.3853 481.092 43.6946C481.456 43.6423 481.745 43.9977 481.618 44.3431L470.716 74.0927C470.646 74.2843 470.463 74.4117 470.259 74.4117H454.467C454.206 74.4117 453.992 74.6171 453.981 74.8774L453.151 94.4361ZM369.911 73.2513C369.642 73.2513 369.425 73.4691 369.425 73.7377V77.4921C369.425 77.7607 369.642 77.9785 369.911 77.9785H388.914C389.183 77.9785 389.401 78.1962 389.401 78.4648V97.7974C389.401 98.066 389.183 98.2837 388.914 98.2837H369.911C369.642 98.2837 369.425 98.5015 369.425 98.7701V102.901C369.425 103.169 369.642 103.387 369.911 103.387H398.929C399.198 103.387 399.415 103.605 399.415 103.873V125.462C399.415 125.731 399.198 125.948 398.929 125.948H345.197C344.928 125.948 344.711 125.731 344.711 125.462V51.8209C344.711 51.5522 344.928 51.3345 345.197 51.3345H398.821C399.09 51.3345 399.308 51.5522 399.308 51.8209V72.7649C399.308 73.0336 399.09 73.2513 398.821 73.2513H369.911ZM291.852 109.194C291.852 109.086 291.888 108.981 291.954 108.896L294.738 105.312C294.952 105.037 295.379 105.07 295.548 105.375L306.789 125.697C306.875 125.852 307.038 125.948 307.215 125.948H334.372C334.742 125.948 334.977 125.551 334.798 125.227L311.766 83.5209C311.673 83.3519 311.688 83.1438 311.806 82.9904L335.406 52.1162C335.651 51.7962 335.423 51.3345 335.02 51.3345H304.962C304.81 51.3345 304.667 51.4055 304.575 51.5264L292.726 67.107C292.444 67.4777 291.852 67.2783 291.852 66.8126V51.8209C291.852 51.5522 291.634 51.3345 291.366 51.3345H267.624C267.356 51.3345 267.138 51.5522 267.138 51.8209V125.462C267.138 125.731 267.356 125.948 267.624 125.948H291.366C291.634 125.948 291.852 125.731 291.852 125.462V109.194ZM260.376 117.981C260.526 118.175 260.508 118.45 260.335 118.623L258.754 120.2C251.826 125.93 243.229 128.795 232.963 128.795C221.943 128.795 212.52 124.874 204.695 117.031C196.87 109.26 192.957 99.8592 192.957 88.8292C192.957 77.7634 196.87 68.327 204.695 60.52C212.52 52.713 221.943 48.8095 232.963 48.8095C241.3 48.8095 249.428 51.5497 257.348 57.03C257.562 57.1781 257.62 57.4697 257.48 57.6889L244.479 78.0199C244.315 78.2771 243.957 78.3203 243.73 78.1159C240.372 75.0875 236.783 73.5734 232.963 73.5734C228.619 73.5734 224.994 75.0596 222.086 78.0319C219.071 81.0043 217.564 84.6034 217.564 88.8292C217.564 93.3773 218.856 96.9048 221.44 99.4116C224.168 102.169 228.009 103.548 232.963 103.548C238.318 103.548 242.475 102.221 245.433 99.5686C245.65 99.3748 245.987 99.3979 246.165 99.6275L260.376 117.981ZM147.491 128.36C169.526 128.36 187.388 110.498 187.388 88.4635C187.388 66.4295 169.526 48.5673 147.491 48.5673C125.457 48.5673 107.595 66.4295 107.595 88.4635C107.595 110.498 125.457 128.36 147.491 128.36ZM147.491 110.711C135.204 110.711 125.244 100.751 125.244 88.4635C125.244 82.7409 127.404 77.5229 130.954 73.5808L143.434 79.3935C141.164 81.4083 139.733 84.3481 139.733 87.622C139.733 93.6961 144.657 98.6201 150.731 98.6201C156.708 98.6201 161.571 93.8529 161.726 87.9136L169.527 91.5474C168.026 102.375 158.732 110.711 147.491 110.711ZM60.2076 73.845C60.2076 73.5764 60.4254 73.3586 60.694 73.3586H70.2763C72.3583 73.3586 74.0992 74.0569 75.4991 75.4536C76.9709 76.8503 77.7067 78.605 77.7067 80.7179C77.7067 82.795 76.9709 84.5319 75.4991 85.9285C74.0992 87.4326 72.3583 88.1847 70.2763 88.1847H60.694C60.4254 88.1847 60.2076 87.9669 60.2076 87.6983V73.845ZM60.2076 51.3344H70.2763C79.2861 51.3344 86.7883 54.3605 92.7829 60.4127C99.0287 66.5723 102.152 73.3407 102.152 80.7179C102.152 89.4918 99.0287 96.9765 92.7829 103.172C86.6447 109.296 79.1425 112.358 70.2763 112.358H60.694C60.4254 112.358 60.2076 112.575 60.2076 112.844V125.567C60.2076 125.791 60.0528 125.986 59.836 126.041C51.14 128.246 45.7605 131.632 36.2364 139.961C35.933 140.227 35.4535 140.033 35.4258 139.631L33.7061 114.68C57.3092 106.657 72.4284 101.437 71.7337 101.462C71.0699 101.485 56.0635 103.4 33.1328 106.362L29.1025 47.8898C29.0814 47.5835 29.3458 47.3345 29.6502 47.374L60.2076 51.3344Z" fill="#DBEAF7"/>
</g>
<g filter="url(#filter1_i_2274_98064)">
<path fill-rule="evenodd" clip-rule="evenodd" d="M90.251 160.11C89.8354 159.993 89.5034 159.839 89.2549 159.647C88.5809 159.134 88.3042 158.363 88.4251 157.335C88.5866 156.441 89.1225 155.87 90.0328 155.621C90.4385 155.533 91.4065 155.418 92.9369 155.276C93.8896 155.196 95.9412 155.233 99.0917 155.387C102.845 155.754 106.73 156.813 110.746 158.563C111.881 159.057 113.212 158.444 113.515 157.244L118.428 137.789C118.689 136.754 118.068 135.701 117.032 135.446C107.606 133.126 99.1094 132.278 91.5413 132.9C83.4687 133.393 77.1686 135.913 72.6411 140.461C67.7162 145.266 65.1952 152.086 65.0781 160.919C65.0919 165.417 66.4857 169.491 69.2595 173.14C72.4006 177.316 76.5431 179.604 81.6869 180.003C83.7144 180.245 86.8632 180.366 91.1335 180.363L92.7183 180.287C93.8123 180.302 94.7213 180.377 95.4453 180.513C96.9032 180.987 97.58 181.909 97.4758 183.277C97.399 184.508 96.5995 185.28 95.0773 185.592C94.7739 185.675 93.891 185.786 92.4288 185.924C91.6141 186.032 90.6103 186.115 89.4174 186.173C85.0525 186.532 80.3595 185.494 75.3382 183.056C74.1965 182.502 72.8038 183.093 72.4796 184.32L67.4143 203.492C67.1818 204.372 67.5883 205.3 68.4127 205.686C75.1983 208.86 83.175 210.113 92.3427 209.446C102.865 208.051 110.035 205.488 113.85 201.759C118.702 196.855 121.256 190.017 121.513 181.245C121.494 175.929 119.681 171.313 116.074 167.398C112.079 163.228 106.81 160.961 100.267 160.596L98.1614 160.494C93.5777 160.375 90.941 160.247 90.251 160.11ZM176.969 161.103C174.137 158.277 170.725 156.864 166.732 156.864C162.672 156.864 159.225 158.277 156.393 161.103C153.595 163.928 152.196 167.35 152.196 171.367C152.196 175.35 153.595 178.788 156.393 181.682C159.294 184.473 162.74 185.869 166.732 185.869C170.725 185.869 174.137 184.473 176.969 181.682C179.904 178.856 181.371 175.418 181.371 171.367C181.371 167.247 179.904 163.826 176.969 161.103ZM183.405 206.284C182.893 206.064 182.312 206.076 181.802 206.301C177.175 208.34 172.152 209.359 166.732 209.359C156.393 209.359 147.436 205.631 139.861 198.176C132.422 190.652 128.703 181.716 128.703 171.367C128.703 160.915 132.422 151.979 139.861 144.558C147.368 137.068 156.325 133.323 166.732 133.323C177.174 133.323 186.131 137.068 193.604 144.558C201.145 151.911 204.916 160.847 204.916 171.367C204.916 177.741 203.508 183.565 200.692 188.838C200.273 189.624 200.394 190.597 201.027 191.224L206.829 196.972C207.052 197.192 207.218 197.464 207.313 197.762L212.978 215.513C213.485 217.102 211.888 218.551 210.355 217.891L183.405 206.284ZM417.687 197.222C410.745 204.933 402.12 209.078 391.814 209.656L364.944 211.164C363.871 211.224 362.952 210.404 362.892 209.331L358.9 138.198C358.84 137.125 359.661 136.206 360.734 136.146L387.604 134.638C397.839 134.064 406.874 137.236 414.709 144.154C422.472 151.076 426.643 159.678 427.22 169.961C427.797 180.244 424.619 189.331 417.687 197.222ZM402.528 171.563C402.34 168.219 400.984 165.32 398.461 162.865C396.005 160.334 392.849 159.176 388.993 159.393L386.827 159.514C385.754 159.574 384.933 160.493 384.994 161.566L386.213 183.298C386.273 184.371 387.192 185.192 388.265 185.131L390.917 184.982C393.95 184.92 396.726 183.484 399.243 180.674C401.631 178.124 402.725 175.087 402.528 171.563ZM311.869 197.972C311.014 197.972 310.259 198.53 310.009 199.347L308.19 205.278C307.94 206.095 307.185 206.653 306.33 206.653H285.3C284.029 206.653 283.099 205.454 283.416 204.223L300.645 137.287C300.866 136.427 301.641 135.826 302.529 135.826H336.117C337.006 135.826 337.781 136.428 338.002 137.288L355.157 204.224C355.473 205.455 354.543 206.653 353.273 206.653H332.146C331.287 206.653 330.53 206.09 330.283 205.268L328.505 199.357C328.258 198.535 327.501 197.972 326.642 197.972H311.869ZM323.573 179.027C324.795 179.027 325.714 177.913 325.483 176.713L321.311 155.077C320.901 152.951 317.848 152.984 317.483 155.118L313.786 176.754C313.583 177.942 314.499 179.027 315.704 179.027H323.573ZM275.587 137.771C275.587 136.697 274.716 135.826 273.642 135.826H253.988C252.914 135.826 252.043 136.697 252.043 137.771V178.72C252.043 180.695 251.343 182.38 249.944 183.776C248.545 185.172 246.822 185.87 244.775 185.87C242.795 185.87 241.106 185.172 239.707 183.776C238.308 182.38 237.609 180.695 237.609 178.72V137.771C237.609 136.697 236.738 135.826 235.663 135.826H216.061C214.986 135.826 214.115 136.697 214.115 137.771V178.72C214.115 187.265 217.101 194.482 223.072 200.372C229.249 206.432 236.483 209.461 244.775 209.461C253.271 209.461 260.539 206.432 266.579 200.372C272.585 194.482 275.587 187.265 275.587 178.72V137.771Z" fill="#CCFF01"/>
</g>
<path d="M330.489 192.465C331.369 191.559 324.196 207.003 322.254 210.631C322.034 211.042 321.551 211.175 321.129 210.978L312.238 206.818C311.552 206.497 311.477 205.552 312.106 205.13C318.71 200.695 329.774 193.203 330.489 192.465Z" fill="#341A39"/>
<defs>
<filter id="filter0_i_2274_98064" x="29.1013" y="43.6895" width="452.547" height="102.092" filterUnits="userSpaceOnUse" color-interpolation-filters="sRGB">
<feFlood flood-opacity="0" result="BackgroundImageFix"/>
<feBlend mode="normal" in="SourceGraphic" in2="BackgroundImageFix" result="shape"/>
<feColorMatrix in="SourceAlpha" type="matrix" values="0 0 0 0 0 0 0 0 0 0 0 0 0 0 0 0 0 0 127 0" result="hardAlpha"/>
<feOffset dx="-0.486369" dy="4.37732"/>
<feComposite in2="hardAlpha" operator="arithmetic" k2="-1" k3="1"/>
<feColorMatrix type="matrix" values="0 0 0 0 1 0 0 0 0 1 0 0 0 0 1 0 0 0 1 0"/>
<feBlend mode="normal" in2="shape" result="effect1_innerShadow_2274_98064"/>
</filter>
<filter id="filter1_i_2274_98064" x="65.0781" y="132.702" width="362.208" height="85.3521" filterUnits="userSpaceOnUse" color-interpolation-filters="sRGB">
<feFlood flood-opacity="0" result="BackgroundImageFix"/>
<feBlend mode="normal" in="SourceGraphic" in2="BackgroundImageFix" result="shape"/>
<feColorMatrix in="SourceAlpha" type="matrix" values="0 0 0 0 0 0 0 0 0 0 0 0 0 0 0 0 0 0 127 0" result="hardAlpha"/>
<feOffset dx="-0.486369" dy="-3.89095"/>
<feComposite in2="hardAlpha" operator="arithmetic" k2="-1" k3="1"/>
<feColorMatrix type="matrix" values="0 0 0 0 1 0 0 0 0 0.577508 0 0 0 0 0.0815394 0 0 0 1 0"/>
<feBlend mode="normal" in2="shape" result="effect1_innerShadow_2274_98064"/>
</filter>
</defs>
</svg>
