<svg width="478" height="239" viewBox="0 0 478 239" fill="none" xmlns="http://www.w3.org/2000/svg">
<mask id="path-1-outside-1_901_1466" maskUnits="userSpaceOnUse" x="27.543" y="11.9061" width="422" height="216" fill="black">
<rect fill="white" x="27.543" y="11.9061" width="422" height="216"/>
<path fill-rule="evenodd" clip-rule="evenodd" d="M321.287 73.7352C331.474 50.0963 339.502 33.9193 366.566 22.3729C311.778 9.48206 267.942 34.6231 240.811 63.4801C224.342 51.349 201.694 46.2715 171.738 62.3668C206.624 67.9784 213.551 77.7906 219.579 92.0938C219.132 92.8911 218.7 93.6821 218.285 94.4659C210.639 90.7978 206.781 88.5152 201.894 82.4955C192.844 90.2385 188.409 95.3192 185.696 99.8911C181.313 94.9131 180.263 88.7823 182.305 79.1809C173.635 80.2528 169.333 86.1363 164.559 100.735C163.759 100.69 162.956 100.645 162.151 100.6C155.572 87.5183 147.761 78.8798 132.958 72.6652C138.267 84.5086 137.863 90.9638 121.805 97.8849C119.874 96.3401 117.972 94.8032 116.092 93.2839L116.089 93.2818L116.089 93.2818C95.6236 76.7461 77.7299 62.2885 53.7514 62.2885C63.8714 73.5024 68.2925 83.4776 68.9951 94.3075C53.8171 93.1614 42.068 92.2266 36.5665 91.7839C35.0291 91.6601 34.0719 93.2929 34.781 94.6625C53.1344 130.111 60.0705 146.393 54.2952 181.947C54.1001 183.148 55.0199 184.261 56.2371 184.261H97.8632C101.98 184.261 106.029 185.219 109.744 186.994C122.767 193.215 156.107 208.513 185.056 216.506C241.625 232.123 340.609 195.692 340.609 195.692C340.609 195.692 339.804 210.045 351.513 210.824C362.992 211.589 368.838 205.577 371.815 199.255C375.138 192.199 380.993 185.458 388.779 185.016L400.512 184.351C401.436 184.298 402.198 183.603 402.34 182.689C407.27 150.936 412.1 124.251 442.076 94.9028C443.392 93.6136 442.411 91.3265 440.571 91.4351C433.881 91.8298 427.322 92.2319 420.908 92.6352C423.548 79.514 423.899 71.9804 422.658 62.4748C422.543 61.5945 421.402 61.3256 420.877 62.0416C411.417 74.9419 399.399 83.4951 375.038 92.8743C368.325 88.0119 367.774 81.3682 372.885 69.8697C373.277 68.9883 372.304 68.0661 371.455 68.5231C367.585 70.6045 363.592 72.5247 359.389 74.4361C345.584 68.968 332.651 69.8247 321.287 73.7352Z"/>
</mask>
<path fill-rule="evenodd" clip-rule="evenodd" d="M321.287 73.7352C331.474 50.0963 339.502 33.9193 366.566 22.3729C311.778 9.48206 267.942 34.6231 240.811 63.4801C224.342 51.349 201.694 46.2715 171.738 62.3668C206.624 67.9784 213.551 77.7906 219.579 92.0938C219.132 92.8911 218.7 93.6821 218.285 94.4659C210.639 90.7978 206.781 88.5152 201.894 82.4955C192.844 90.2385 188.409 95.3192 185.696 99.8911C181.313 94.9131 180.263 88.7823 182.305 79.1809C173.635 80.2528 169.333 86.1363 164.559 100.735C163.759 100.69 162.956 100.645 162.151 100.6C155.572 87.5183 147.761 78.8798 132.958 72.6652C138.267 84.5086 137.863 90.9638 121.805 97.8849C119.874 96.3401 117.972 94.8032 116.092 93.2839L116.089 93.2818L116.089 93.2818C95.6236 76.7461 77.7299 62.2885 53.7514 62.2885C63.8714 73.5024 68.2925 83.4776 68.9951 94.3075C53.8171 93.1614 42.068 92.2266 36.5665 91.7839C35.0291 91.6601 34.0719 93.2929 34.781 94.6625C53.1344 130.111 60.0705 146.393 54.2952 181.947C54.1001 183.148 55.0199 184.261 56.2371 184.261H97.8632C101.98 184.261 106.029 185.219 109.744 186.994C122.767 193.215 156.107 208.513 185.056 216.506C241.625 232.123 340.609 195.692 340.609 195.692C340.609 195.692 339.804 210.045 351.513 210.824C362.992 211.589 368.838 205.577 371.815 199.255C375.138 192.199 380.993 185.458 388.779 185.016L400.512 184.351C401.436 184.298 402.198 183.603 402.34 182.689C407.27 150.936 412.1 124.251 442.076 94.9028C443.392 93.6136 442.411 91.3265 440.571 91.4351C433.881 91.8298 427.322 92.2319 420.908 92.6352C423.548 79.514 423.899 71.9804 422.658 62.4748C422.543 61.5945 421.402 61.3256 420.877 62.0416C411.417 74.9419 399.399 83.4951 375.038 92.8743C368.325 88.0119 367.774 81.3682 372.885 69.8697C373.277 68.9883 372.304 68.0661 371.455 68.5231C367.585 70.6045 363.592 72.5247 359.389 74.4361C345.584 68.968 332.651 69.8247 321.287 73.7352Z" fill="#341A39"/>
<path d="M366.566 22.3729L369.259 28.6859L388.492 20.4808L368.138 15.6919L366.566 22.3729ZM321.287 73.7352L314.984 71.0188L308.839 85.2769L323.52 80.2251L321.287 73.7352ZM240.811 63.4801L236.74 69.0061L241.641 72.6165L245.811 68.1814L240.811 63.4801ZM171.738 62.3668L168.489 56.3208L150.62 65.9217L170.648 69.1432L171.738 62.3668ZM219.579 92.0938L225.566 95.45L227.207 92.5218L225.904 89.4284L219.579 92.0938ZM218.285 94.4659L215.316 100.654L221.259 103.506L224.348 97.682L218.285 94.4659ZM201.894 82.4955L207.223 78.1699L202.784 72.7016L197.432 77.2802L201.894 82.4955ZM185.696 99.8911L180.545 104.427L186.781 111.51L191.598 103.394L185.696 99.8911ZM182.305 79.1809L189.019 80.6093L191.023 71.1876L181.463 72.3693L182.305 79.1809ZM164.559 100.735L164.178 107.588L169.443 107.88L171.082 102.868L164.559 100.735ZM162.151 100.6L156.02 103.684L157.803 107.229L161.764 107.453L162.151 100.6ZM132.958 72.6652L135.615 66.3368L119.583 59.6062L126.695 75.4726L132.958 72.6652ZM121.805 97.8849L117.517 103.244L120.736 105.82L124.521 104.188L121.805 97.8849ZM116.092 93.2839L120.405 87.9452L120.398 87.9395L120.391 87.9337L116.092 93.2839ZM116.089 93.2818L111.236 98.135L111.5 98.3985L111.79 98.6319L116.089 93.2818ZM116.089 93.2818L120.942 88.4286L120.685 88.1716L120.403 87.9431L116.089 93.2818ZM53.7514 62.2885V55.425H38.3123L48.656 66.8868L53.7514 62.2885ZM68.9951 94.3075L68.4783 101.152L76.3556 101.746L75.8442 93.8632L68.9951 94.3075ZM36.5665 91.7839L36.0159 98.6252L36.0159 98.6252L36.5665 91.7839ZM34.781 94.6625L28.6861 97.8182L28.6861 97.8182L34.781 94.6625ZM54.2952 181.947L47.5206 180.847L47.5206 180.847L54.2952 181.947ZM109.744 186.994L106.785 193.187L106.785 193.187L109.744 186.994ZM185.056 216.506L186.883 209.89L186.883 209.89L185.056 216.506ZM340.609 195.692L347.461 196.076L348.046 185.641L338.238 189.251L340.609 195.692ZM351.513 210.824L351.057 217.673L351.057 217.673L351.513 210.824ZM371.815 199.255L365.606 196.331L365.606 196.331L371.815 199.255ZM388.779 185.016L389.168 191.869L389.168 191.869L388.779 185.016ZM400.512 184.351L400.124 177.498L400.124 177.498L400.512 184.351ZM402.34 182.689L395.558 181.636L395.558 181.636L402.34 182.689ZM442.076 94.9028L437.274 89.9984L437.274 89.9985L442.076 94.9028ZM440.571 91.4351L440.975 98.2866L440.975 98.2866L440.571 91.4351ZM420.908 92.6352L414.18 91.2817L412.417 100.046L421.339 99.4852L420.908 92.6352ZM422.658 62.4748L429.463 61.5858L429.463 61.5857L422.658 62.4748ZM420.877 62.0416L426.412 66.1002L426.412 66.1001L420.877 62.0416ZM375.038 92.8743L371.012 98.4327L374.028 100.618L377.504 99.2794L375.038 92.8743ZM372.885 69.8697L379.157 72.6578L379.157 72.6577L372.885 69.8697ZM371.455 68.5231L374.706 74.5677L374.706 74.5677L371.455 68.5231ZM359.389 74.4361L356.862 80.8173L359.575 81.8919L362.231 80.6837L359.389 74.4361ZM363.873 16.06C349.403 22.2331 339.661 29.827 332.21 39.2671C324.916 48.5086 320.053 59.2554 314.984 71.0188L327.59 76.4515C332.707 64.5761 336.952 55.415 342.985 47.7716C348.861 40.3269 356.665 34.0591 369.259 28.6859L363.873 16.06ZM245.811 68.1814C271.88 40.4546 313.356 16.9044 364.994 29.0539L368.138 15.6919C310.199 2.05971 264.004 28.7915 235.81 58.7787L245.811 68.1814ZM174.986 68.4128C189.046 60.8588 200.919 58.5148 210.87 59.1864C220.815 59.8577 229.369 63.5766 236.74 69.0061L244.881 57.954C235.784 51.2524 224.78 46.3671 211.794 45.4907C198.815 44.6146 184.386 47.7796 168.489 56.3208L174.986 68.4128ZM225.904 89.4284C222.726 81.8881 218.878 74.456 210.498 68.4061C202.368 62.5374 190.668 58.4601 172.828 55.5905L170.648 69.1432C187.694 71.8851 196.9 75.5198 202.463 79.5358C207.775 83.3707 210.404 87.9963 213.254 94.7592L225.904 89.4284ZM224.348 97.682C224.738 96.946 225.144 96.2018 225.566 95.45L213.592 88.7375C213.119 89.5805 212.662 90.4182 212.221 91.2498L224.348 97.682ZM196.565 86.8211C202.376 93.9786 207.276 96.7965 215.316 100.654L221.254 88.2778C214.003 84.7992 211.186 83.0518 207.223 78.1699L196.565 86.8211ZM191.598 103.394C193.75 99.7679 197.531 95.2607 206.356 87.7108L197.432 77.2802C188.156 85.2162 183.068 90.8705 179.794 96.388L191.598 103.394ZM175.592 77.7526C173.312 88.4701 174.161 97.1768 180.545 104.427L190.847 95.3555C188.464 92.6494 187.213 89.0945 189.019 80.6093L175.592 77.7526ZM171.082 102.868C173.429 95.6911 175.391 91.5867 177.321 89.1846C178.915 87.2002 180.515 86.3179 183.147 85.9925L181.463 72.3693C175.425 73.1158 170.538 75.7112 166.621 80.5861C163.039 85.0434 160.462 91.18 158.035 98.6016L171.082 102.868ZM164.94 93.8819C164.142 93.8376 163.341 93.7928 162.538 93.7474L161.764 107.453C162.572 107.498 163.376 107.543 164.178 107.588L164.94 93.8819ZM130.302 78.9936C143.351 84.472 150.046 91.8059 156.02 103.684L168.283 97.5161C161.098 83.2307 152.172 73.2876 135.615 66.3368L130.302 78.9936ZM124.521 104.188C132.787 100.626 139.348 96.3077 141.842 89.4735C144.32 82.6809 141.867 75.7604 139.221 69.8577L126.695 75.4726C129.358 81.4134 129.358 83.6421 128.947 84.7683C128.551 85.8528 126.882 88.2231 119.088 91.5819L124.521 104.188ZM111.778 98.6225C113.657 100.14 115.571 101.687 117.517 103.244L126.093 92.5259C124.177 90.9929 122.288 89.4662 120.405 87.9452L111.778 98.6225ZM111.79 98.6319L111.793 98.634L120.391 87.9337L120.388 87.9317L111.79 98.6319ZM111.236 98.135L111.236 98.135L120.942 88.4286L120.942 88.4286L111.236 98.135ZM53.7514 69.152C74.8865 69.152 90.8836 81.7401 111.776 98.6204L120.403 87.9431C100.364 71.7522 80.5734 55.425 53.7514 55.425V69.152ZM75.8442 93.8632C75.0187 81.1394 69.739 69.7598 58.8467 57.6902L48.656 66.8868C58.0038 77.245 61.5663 85.8159 62.1461 94.7519L75.8442 93.8632ZM69.5119 87.4636C54.3477 86.3185 42.61 85.3846 37.1171 84.9425L36.0159 98.6252C41.5259 99.0687 53.2866 100.004 68.4783 101.152L69.5119 87.4636ZM37.1171 84.9425C29.4561 84.326 25.8538 92.3479 28.6861 97.8182L40.876 91.5069C41.6543 93.01 41.5615 94.8051 40.696 96.2286C39.7896 97.7197 38.0161 98.7862 36.0159 98.6252L37.1171 84.9425ZM28.6861 97.8182C37.9077 115.629 43.8535 127.892 46.9364 139.964C49.9509 151.767 50.2997 163.737 47.5206 180.847L61.0699 183.048C64.066 164.603 63.8343 150.655 60.2364 136.567C56.7067 122.746 50.0078 109.144 40.876 91.5069L28.6861 97.8182ZM47.5206 180.847C46.6679 186.096 50.6626 191.124 56.2371 191.124V177.398C59.3773 177.398 61.5323 180.201 61.0699 183.047L47.5206 180.847ZM56.2371 191.124H97.8632V177.398H56.2371V191.124ZM97.8632 191.124C100.911 191.124 103.953 191.834 106.785 193.187L112.702 180.801C108.105 178.604 103.048 177.398 97.8632 177.398V191.124ZM106.785 193.187C119.84 199.423 153.65 214.955 183.23 223.122L186.883 209.89C158.564 202.071 125.693 187.007 112.702 180.801L106.785 193.187ZM183.23 223.122C213.299 231.423 253.669 225.822 285.552 218.651C301.687 215.023 316.012 210.903 326.303 207.692C331.452 206.085 335.6 204.703 338.471 203.719C339.906 203.227 341.022 202.835 341.785 202.563C342.167 202.427 342.46 202.322 342.66 202.249C342.76 202.213 342.837 202.185 342.891 202.165C342.917 202.156 342.938 202.148 342.953 202.143C342.96 202.14 342.966 202.138 342.971 202.136C342.973 202.135 342.975 202.134 342.976 202.134C342.978 202.133 342.979 202.133 340.609 195.692C338.238 189.251 338.239 189.251 338.239 189.25C338.238 189.251 338.238 189.251 338.238 189.251C338.236 189.252 338.233 189.253 338.228 189.254C338.219 189.258 338.204 189.263 338.183 189.271C338.14 189.287 338.075 189.31 337.986 189.343C337.808 189.407 337.539 189.504 337.181 189.631C336.467 189.886 335.401 190.261 334.019 190.734C331.255 191.682 327.229 193.024 322.214 194.588C312.178 197.72 298.222 201.732 282.54 205.259C250.788 212.4 213.383 217.206 186.883 209.89L183.23 223.122ZM340.609 195.692C333.756 195.308 333.756 195.311 333.756 195.313C333.756 195.314 333.755 195.317 333.755 195.319C333.755 195.323 333.755 195.328 333.755 195.332C333.754 195.342 333.754 195.352 333.753 195.363C333.752 195.384 333.751 195.41 333.749 195.439C333.747 195.497 333.744 195.57 333.742 195.656C333.737 195.827 333.733 196.053 333.733 196.325C333.735 196.868 333.754 197.61 333.824 198.488C333.96 200.211 334.302 202.635 335.177 205.19C336.048 207.733 337.554 210.71 340.206 213.166C342.964 215.721 346.607 217.376 351.057 217.673L351.969 203.976C350.564 203.882 349.917 203.451 349.533 203.096C349.043 202.641 348.554 201.884 348.163 200.742C347.776 199.61 347.587 198.398 347.508 197.405C347.47 196.926 347.461 196.54 347.46 196.295C347.46 196.174 347.462 196.09 347.463 196.051C347.464 196.031 347.464 196.023 347.464 196.027C347.464 196.029 347.464 196.034 347.463 196.042C347.463 196.046 347.463 196.051 347.462 196.057C347.462 196.059 347.462 196.062 347.462 196.066C347.462 196.067 347.462 196.07 347.462 196.071C347.461 196.073 347.461 196.076 340.609 195.692ZM351.057 217.673C358.149 218.145 364.022 216.526 368.682 213.393C373.255 210.318 376.17 206.118 378.025 202.18L365.606 196.331C364.484 198.714 362.987 200.681 361.023 202.001C359.146 203.263 356.356 204.268 351.969 203.976L351.057 217.673ZM378.025 202.18C381.038 195.782 385.282 192.089 389.168 191.869L388.391 178.164C376.703 178.826 369.239 188.617 365.606 196.331L378.025 202.18ZM389.168 191.869L400.901 191.203L400.124 177.498L388.391 178.164L389.168 191.869ZM400.901 191.203C405.077 190.967 408.487 187.836 409.122 183.742L395.558 181.636C395.91 179.371 397.796 177.63 400.124 177.498L400.901 191.203ZM409.122 183.742C414.003 152.311 418.562 127.529 446.877 99.807L437.274 89.9985C405.638 120.972 400.538 149.56 395.558 181.636L409.122 183.742ZM446.877 99.8071C452.56 94.2432 448.579 84.0872 440.167 84.5835L440.975 98.2866C436.243 98.5658 434.225 92.984 437.274 89.9984L446.877 99.8071ZM440.167 84.5835C433.466 84.9788 426.899 85.3815 420.478 85.7853L421.339 99.4852C427.746 99.0823 434.295 98.6807 440.975 98.2866L440.167 84.5835ZM415.852 63.3638C416.972 71.939 416.712 78.6919 414.18 91.2817L427.637 93.9887C430.383 80.3361 430.826 72.0219 429.463 61.5858L415.852 63.3638ZM426.412 66.1001C423.504 70.0659 416.588 69.0011 415.852 63.364L429.463 61.5857C428.497 54.1878 419.3 52.5853 415.342 57.9831L426.412 66.1001ZM377.504 99.2794C402.555 89.6345 415.894 80.4442 426.412 66.1002L415.342 57.9831C406.941 69.4396 396.243 77.3557 372.572 86.4691L377.504 99.2794ZM366.614 67.0817C363.909 73.1662 362.193 79.0108 362.692 84.4839C363.241 90.4982 366.345 95.052 371.012 98.4327L379.064 87.3158C377.019 85.8341 376.49 84.6349 376.363 83.2371C376.186 81.2982 376.75 78.0718 379.157 72.6578L366.614 67.0817ZM374.706 74.5677C372.117 75.9601 369.415 75.0929 367.924 73.6852C366.445 72.2886 365.448 69.7035 366.614 67.0817L379.157 72.6577C382.105 66.0266 375.034 58.8047 368.204 62.4784L374.706 74.5677ZM362.231 80.6837C366.514 78.7354 370.656 76.7461 374.706 74.5677L368.204 62.4784C364.514 64.4628 360.669 66.3139 356.548 68.1886L362.231 80.6837ZM323.52 80.2251C333.582 76.7626 344.807 76.0422 356.862 80.8173L361.917 68.055C346.362 61.8938 331.719 62.8868 319.053 67.2452L323.52 80.2251Z" fill="#341A39" mask="url(#path-1-outside-1_901_1466)"/>
<path d="M171.747 62.3668C235.591 72.6363 205.797 96.9744 248.215 137.16C261.093 133.138 268.022 130.301 277.06 118.149C277.06 118.149 248.212 21.2828 171.747 62.3668Z" fill="#269926"/>
<path d="M171.747 62.3668C248.215 56.8516 246.314 112.489 248.215 137.16C261.093 133.138 268.022 130.301 277.06 118.149C277.06 118.149 248.212 21.2829 171.747 62.3668Z" fill="#16CB16"/>
<path d="M366.576 22.373C318.753 42.7753 330.368 77.6361 284.48 142.574C266.223 140.642 227.876 139.427 212.575 125.621C197.273 111.816 261.957 -2.24227 366.576 22.373Z" fill="#269926"/>
<path d="M367.466 22.0349C319.493 42.0804 330.848 77.0268 284.478 141.621C266.235 139.553 245.11 125.88 245.11 125.88C245.11 125.88 287.813 9.6163 367.466 22.0349Z" fill="#16CB16"/>
<path d="M372.289 68.0857C353.78 78.4013 325.057 91.8792 296.556 111.575L363.654 98.5408C356.457 84.1476 369.488 80.7355 373.609 69.1417C373.896 68.3357 373.037 67.6693 372.289 68.0857Z" fill="#1F7618"/>
<path d="M373.332 82.0386C340.983 81.8455 338.982 104.62 296.713 130.328C286.769 124.705 281.539 121.123 276.222 109.454C276.222 109.454 320.381 45.0187 373.332 82.0386Z" fill="#269926"/>
<path d="M373.334 82.0387C339.072 74.413 302.53 79.5289 296.714 130.328C286.771 124.705 281.541 121.123 276.224 109.454C276.224 109.454 320.383 45.0187 373.334 82.0387Z" fill="#16CB16"/>
<path d="M53.761 62.2886C64.8105 74.5323 69.0662 85.2996 69.1058 97.3148L125.028 100.441C100.609 81.1595 81.156 62.2886 53.761 62.2886Z" fill="#0B8F00"/>
<path d="M53.8453 62.3431C69.3501 68.4608 92.0927 88.4043 92.1323 100.419H125.145C99.8316 80.5904 81.2403 62.3431 53.8453 62.3431Z" fill="url(#paint0_linear_901_1466)"/>
<path d="M132.968 72.665C138.404 84.7926 137.85 91.2704 120.631 98.3839L118.541 107.166L164.38 105.268C157.277 89.527 149.465 79.5908 132.968 72.665Z" fill="#0B8F00"/>
<path d="M132.968 72.665C144.218 81.2738 152.767 94.8083 135.548 101.922L118.541 107.166L164.38 105.268C157.277 89.527 149.465 79.5908 132.968 72.665Z" fill="url(#paint1_linear_901_1466)"/>
<path d="M182.315 79.181C172.149 80.4377 167.989 88.3077 162.033 109.081L202.179 110.545C184.846 102.37 178.677 96.2779 182.315 79.181Z" fill="#0B8F00"/>
<path d="M182.315 79.181C172.149 80.4377 167.989 88.3077 162.033 109.081L202.179 110.545C184.846 102.37 165.761 101.207 182.315 79.181Z" fill="url(#paint2_linear_901_1466)"/>
<path d="M201.904 82.4954C209.945 92.4017 215.203 92.1874 239.134 104.682L182.495 106.821C185.083 99.8338 188.207 94.2132 201.904 82.4954Z" fill="#198110"/>
<path d="M201.904 82.4954C209.945 92.4017 215.203 92.1874 239.134 104.682L203.927 109.609C202.944 102.101 198.028 94.8603 201.904 82.4954Z" fill="url(#paint3_linear_901_1466)"/>
<path d="M420.886 62.0415C408.707 78.6515 392.285 88.0548 350.736 101.294L419.811 97.8719C423.444 81.3796 424.065 73.1771 422.667 62.4747C422.552 61.5944 421.411 61.3255 420.886 62.0415Z" fill="#0B8F00"/>
<path d="M422.32 60.0259C419.811 80.2163 416.504 90.7583 350.736 101.294L419.811 97.8719C423.715 80.1456 424.141 71.9961 422.32 60.0259Z" fill="url(#paint4_linear_901_1466)"/>
<path d="M37.2743 96.0063C54.5161 133.51 61.5434 145.803 56.381 179.55C56.198 180.746 57.1158 181.847 58.3258 181.847H104.441C104.441 181.847 151.413 217.226 225.74 217.226C300.067 217.226 336.306 187.084 349.515 188.618C362.724 190.152 362.834 201.241 357.96 202.815C353.087 204.388 351.952 203.037 354.177 197.029C344.386 201.702 339.712 210.826 356.18 211.493C365.335 211.865 370.413 203.267 373.118 195.558C375.446 188.924 380.979 183.411 387.988 182.858L399.371 181.959C400.214 181.892 400.922 181.284 401.121 180.462C409.021 147.853 411.101 125.578 441.179 96.404C442.467 95.1548 441.526 92.9336 439.732 92.9575C343.635 94.2382 340.648 110.359 279.93 104.511C272.141 103.761 269.243 102.45 269.634 99.8927C269.976 97.652 267.59 94.0961 265.477 94.9165C256.241 98.5028 244.909 101.656 233.757 103.533C221.451 105.604 69.5791 94.0978 40.1216 91.8376C37.8875 91.6662 36.3383 93.9704 37.2743 96.0063Z" fill="#14672C"/>
<path d="M112.567 156.903C112.166 157.249 112.087 157.847 112.404 158.271L121.645 170.656C122.127 171.303 121.666 172.223 120.859 172.223H100.798C100.489 172.223 100.198 172.077 100.013 171.83L93.1515 162.663C92.9664 162.415 92.6755 162.27 92.3665 162.27H91.2892C90.7477 162.27 90.3087 162.709 90.3087 163.25V171.242C90.3087 171.784 89.8697 172.223 89.3282 172.223H74.3468C73.7683 172.223 73.3159 171.722 73.3692 171.146C75.3843 149.366 74.8424 130.115 64.802 108.766C64.4444 108.006 65.153 107.166 65.9658 107.379C101.488 116.679 109.749 119.879 114.031 124.227C118.579 128.738 120.854 133.695 120.854 139.098C120.854 145.524 118.579 151.005 114.031 155.542C113.555 156.02 113.067 156.474 112.567 156.903ZM90.2437 143.842C90.2823 144.272 90.5914 144.624 91.0181 144.692C93.7919 145.131 103.732 146.217 103.318 139.098C102.922 132.274 93.434 130.558 90.1297 130.166C89.5359 130.096 89.0553 130.594 89.1087 131.189L90.2437 143.842Z" fill="white"/>
<path d="M161.67 132.649C161.67 133.19 161.231 133.629 160.689 133.629H140.889C140.347 133.629 139.908 134.068 139.908 134.61V136.111C139.908 136.652 140.347 137.091 140.889 137.091H153.475C154.016 137.091 154.455 137.53 154.455 138.072V150.982C154.455 151.523 154.016 151.962 153.475 151.962H140.889C140.347 151.962 139.908 152.401 139.908 152.943V154.719C139.908 155.261 140.347 155.7 140.889 155.7H160.768C161.309 155.7 161.748 156.139 161.748 156.68V171.242C161.748 171.784 161.309 172.223 160.768 172.223H122.891C122.35 172.223 121.911 171.784 121.911 171.242V118.559C121.911 118.017 122.35 117.578 122.891 117.578H160.689C161.231 117.578 161.67 118.017 161.67 118.559V132.649Z" fill="white"/>
<path d="M209.323 165.496C204.318 172.769 196.449 174.308 188.503 174.308C180.582 174.308 173.72 171.436 167.917 165.692C162.219 159.896 159.369 153.011 159.369 145.038C159.369 136.987 162.219 130.102 167.917 124.384C173.668 118.614 180.53 115.729 188.503 115.729C195.303 115.729 201.462 117.956 206.981 122.41C207.425 122.768 207.451 123.431 207.048 123.835L195.54 135.381C195.21 135.712 194.694 135.761 194.291 135.524C192.414 134.418 190.484 133.865 188.503 133.865C185.392 133.865 182.752 134.954 180.582 137.131C178.439 139.308 177.367 141.943 177.367 145.038C177.367 148.107 178.439 150.756 180.582 152.985C182.804 155.136 185.444 156.211 188.503 156.211C189.298 156.211 189.962 156.163 190.495 156.067C190.905 155.993 191.169 155.617 191.169 155.2V142.635C191.169 142.094 191.608 141.655 192.15 141.655H208.71C209.085 141.655 209.428 141.868 209.588 142.208C212.889 149.259 214.466 158.023 209.323 165.496Z" fill="white"/>
<path d="M254.853 156.75C254.391 157.156 254.376 157.881 254.842 158.282L269.021 170.5C269.709 171.093 269.286 172.223 268.377 172.223C258.74 172.223 253.425 172.223 245.563 172.223C245.307 172.223 245.059 172.123 244.876 171.944L235.253 162.549C235.07 162.37 234.824 162.27 234.568 162.27H233.399C232.857 162.27 232.418 162.709 232.418 163.25V171.242C232.418 171.784 231.979 172.223 231.438 172.223H215.401C214.86 172.223 214.421 171.784 214.421 171.242V165.758C214.421 165.586 214.468 165.415 214.553 165.265C219.899 155.877 219.486 149.317 214.559 140.9C214.47 140.749 214.421 140.574 214.421 140.398V118.559C214.421 118.017 214.86 117.578 215.401 117.578H239.751C246.312 117.578 251.775 119.795 256.141 124.227C260.689 128.738 262.963 133.695 262.963 139.098C262.963 145.524 260.689 151.005 256.141 155.542C255.721 155.964 255.292 156.366 254.853 156.75ZM232.418 143.586C232.418 144.127 232.857 144.566 233.399 144.566H239.751C241.267 144.566 245.162 142.977 245.162 139.098C245.162 135.219 241.267 133.708 239.751 133.708H233.399C232.857 133.708 232.418 134.147 232.418 134.689V143.586Z" fill="white"/>
<path d="M311.53 165.692C305.753 171.436 298.891 174.308 290.944 174.308C283.024 174.308 276.162 171.436 270.359 165.692C264.66 159.896 261.811 153.011 261.811 145.038C261.811 136.987 264.66 130.102 270.359 124.384C276.11 118.614 282.971 115.729 290.944 115.729C298.943 115.729 305.805 118.614 311.53 124.384C317.307 130.049 320.195 136.934 320.195 145.038C320.195 153.064 317.307 159.948 311.53 165.692ZM298.786 137.131C296.617 134.954 294.003 133.865 290.944 133.865C287.833 133.865 285.193 134.954 283.024 137.131C280.88 139.308 279.808 141.943 279.808 145.038C279.808 148.107 280.88 150.756 283.024 152.985C285.246 155.136 287.886 156.211 290.944 156.211C294.003 156.211 296.617 155.136 298.786 152.985C301.034 150.808 302.158 148.159 302.158 145.038C302.158 141.865 301.034 139.229 298.786 137.131Z" fill="white"/>
<path d="M355.617 158.638C355.318 157.746 354.055 157.747 353.757 158.64L349.457 171.552C349.324 171.953 348.949 172.223 348.527 172.223H330.259C329.836 172.223 329.461 171.952 329.328 171.551L311.88 118.882C311.676 118.266 312.117 117.626 312.765 117.595C319.228 117.291 323.268 117.195 329.885 117.541C330.296 117.563 330.649 117.84 330.769 118.234L338.508 143.692C338.789 144.615 340.093 144.621 340.382 143.701L348.021 119.347C348.14 118.966 348.478 118.695 348.876 118.663L360.327 117.722C360.787 117.684 361.211 117.972 361.345 118.413L369.031 143.63C369.314 144.558 370.629 144.555 370.908 143.626L380.407 111.994C380.5 111.681 380.745 111.436 381.056 111.337C387.773 109.2 392.776 106.497 404.073 106.773C404.806 106.791 405.248 107.589 404.886 108.227C392.253 130.5 383.69 151.74 380.702 173.226C380.622 173.803 380.059 174.187 379.492 174.053C372.002 172.284 367.611 171.753 360.933 172.172C360.486 172.2 360.074 171.927 359.932 171.503L355.617 158.638Z" fill="white"/>
<path d="M158.311 201.741C158.087 202.302 158.417 202.93 159.006 203.063L164.578 204.315C165.066 204.424 165.558 204.149 165.72 203.676L170.087 190.941C170.228 190.54 170.337 190.16 170.413 189.802C170.495 189.465 170.557 189.18 170.6 188.949C170.605 188.925 170.625 188.908 170.649 188.908V188.908C170.673 188.908 170.693 188.924 170.698 188.947C170.75 189.178 170.813 189.464 170.884 189.802C170.971 190.15 171.085 190.529 171.226 190.941L175.73 203.85C175.867 204.243 176.239 204.507 176.656 204.507H183.418C184.109 204.507 184.584 203.811 184.331 203.168L175.765 181.38C175.617 181.005 175.255 180.758 174.852 180.758H167.384C166.983 180.758 166.622 181.002 166.473 181.374L158.311 201.741ZM163.918 199.762C163.741 200.388 164.211 201.01 164.861 201.01H176.949C177.602 201.01 178.072 200.384 177.891 199.757L176.864 196.204C176.742 195.784 176.358 195.496 175.922 195.496H165.867C165.429 195.496 165.044 195.787 164.924 196.209L163.918 199.762Z" fill="white"/>
<path d="M189.429 203.527C189.429 204.068 189.868 204.507 190.409 204.507H196.76C197.302 204.507 197.741 204.068 197.741 203.527V198.412C197.741 197.87 198.18 197.431 198.721 197.431H201.824C204.632 197.399 206.915 196.645 208.672 195.17C210.428 193.696 211.307 191.624 211.307 188.957C211.307 186.332 210.456 184.321 208.753 182.922C207.061 181.523 204.773 180.823 201.889 180.823H190.409C189.868 180.823 189.429 181.262 189.429 181.804V203.527ZM198.689 191.982C198.147 191.982 197.708 191.543 197.708 191.002V187.595C197.708 187.053 198.147 186.614 198.689 186.614H200.49C201.325 186.614 201.937 186.837 202.328 187.281C202.729 187.715 202.93 188.393 202.93 189.315C202.93 190.182 202.729 190.844 202.328 191.299C201.937 191.754 201.325 191.982 200.49 191.982H198.689ZM203.104 203.945C203.266 204.288 203.611 204.507 203.991 204.507H210.894C211.634 204.507 212.107 203.719 211.759 203.066L206.748 193.659C206.555 193.297 206.157 193.093 205.75 193.149L199.811 193.964C199.156 194.054 198.776 194.754 199.058 195.353L203.104 203.945Z" fill="white"/>
<path d="M217.716 203.527C217.716 204.068 218.155 204.507 218.697 204.507H236.174C236.716 204.507 237.155 204.068 237.155 203.527V199.355C237.155 198.814 236.716 198.375 236.174 198.375H226.732C226.191 198.375 225.752 197.936 225.752 197.394V196.362C225.752 195.821 226.191 195.382 226.732 195.382H234.515C235.056 195.382 235.495 194.943 235.495 194.401V190.653C235.495 190.111 235.056 189.672 234.515 189.672H226.732C226.191 189.672 225.752 189.233 225.752 188.692V188.099C225.752 187.558 226.191 187.119 226.732 187.119H235.93C236.472 187.119 236.911 186.68 236.911 186.138V181.804C236.911 181.262 236.472 180.823 235.93 180.823H218.697C218.155 180.823 217.716 181.262 217.716 181.804V203.527Z" fill="white"/>
<path d="M243.402 203.527C243.402 204.068 243.841 204.507 244.382 204.507H249.284C249.826 204.507 250.265 204.067 250.264 203.525L250.25 193.885C250.25 193.549 250.239 193.229 250.217 192.926C250.197 192.635 250.177 192.326 250.157 191.999C250.154 191.955 250.19 191.917 250.234 191.917V191.917C250.271 191.917 250.303 191.944 250.31 191.98C250.376 192.321 250.475 192.696 250.608 193.105C250.759 193.527 250.944 193.934 251.161 194.325L256.445 203.997C256.617 204.312 256.947 204.507 257.305 204.507H264.12C264.662 204.507 265.101 204.068 265.101 203.527V181.804C265.101 181.262 264.662 180.823 264.12 180.823H259.217C258.675 180.823 258.236 181.262 258.236 181.804V191.397C258.236 191.776 258.242 192.123 258.253 192.438C258.263 192.721 258.278 193.032 258.297 193.371C258.299 193.412 258.267 193.446 258.226 193.446V193.446C258.194 193.446 258.166 193.424 258.157 193.393C258.072 193.071 257.957 192.72 257.813 192.34C257.673 191.928 257.515 191.548 257.342 191.201L252.04 181.34C251.869 181.022 251.537 180.823 251.176 180.823H244.382C243.841 180.823 243.402 181.262 243.402 181.804V203.527Z" fill="white"/>
<path d="M270.13 203.17C269.879 203.813 270.353 204.507 271.044 204.507H276.91C277.329 204.507 277.702 204.241 277.837 203.845L282.262 190.941C282.403 190.54 282.512 190.16 282.588 189.802C282.67 189.465 282.732 189.18 282.775 188.949C282.78 188.925 282.8 188.908 282.825 188.908V188.908C282.848 188.908 282.868 188.924 282.873 188.947C282.925 189.178 282.988 189.464 283.059 189.802C283.146 190.15 283.26 190.529 283.401 190.941L287.853 203.7C288.014 204.162 288.492 204.435 288.973 204.338L295.381 203.043C295.981 202.922 296.324 202.286 296.097 201.717L287.942 181.374C287.793 181.002 287.433 180.758 287.032 180.758H279.565C279.161 180.758 278.799 181.006 278.651 181.382L270.13 203.17ZM276.093 199.762C275.916 200.388 276.386 201.01 277.036 201.01H289.124C289.777 201.01 290.247 200.384 290.066 199.757L289.039 196.204C288.917 195.784 288.533 195.496 288.097 195.496H278.043C277.604 195.496 277.219 195.787 277.099 196.209L276.093 199.762Z" fill="white"/>
<defs>
<linearGradient id="paint0_linear_901_1466" x1="89.4954" y1="62.3431" x2="89.4954" y2="100.419" gradientUnits="userSpaceOnUse">
<stop stop-color="#09EE20"/>
<stop offset="1" stop-color="#09EE20" stop-opacity="0"/>
</linearGradient>
<linearGradient id="paint1_linear_901_1466" x1="141.46" y1="72.665" x2="141.46" y2="107.166" gradientUnits="userSpaceOnUse">
<stop stop-color="#09EE20"/>
<stop offset="1" stop-color="#09EE20" stop-opacity="0"/>
</linearGradient>
<linearGradient id="paint2_linear_901_1466" x1="182.106" y1="79.181" x2="182.106" y2="110.545" gradientUnits="userSpaceOnUse">
<stop stop-color="#09EE20"/>
<stop offset="1" stop-color="#09EE20" stop-opacity="0"/>
</linearGradient>
<linearGradient id="paint3_linear_901_1466" x1="219.785" y1="82.4954" x2="219.785" y2="109.609" gradientUnits="userSpaceOnUse">
<stop stop-color="#09EE20"/>
<stop offset="1" stop-color="#09EE20" stop-opacity="0"/>
</linearGradient>
<linearGradient id="paint4_linear_901_1466" x1="412.237" y1="57.4023" x2="387.046" y2="93.7568" gradientUnits="userSpaceOnUse">
<stop stop-color="#0CD81C"/>
<stop offset="1" stop-color="#0CD81C" stop-opacity="0"/>
</linearGradient>
</defs>
</svg>
