<?xml version="1.0" encoding="UTF-8"?>
<svg width="24" height="24" viewBox="0 0 24 24" fill="none" xmlns="http://www.w3.org/2000/svg">
    <path d="M16.66 5.32L17.79 4.19C18.18 3.8 18.18 3.17 17.79 2.78C17.4 2.39 16.77 2.39 16.38 2.78L15.06 4.1C13.9 3.4 12.5 3 11 3C9.5 3 8.1 3.4 6.94 4.1L5.62 2.78C5.23 2.39 4.6 2.39 4.21 2.78C3.82 3.17 3.82 3.8 4.21 4.19L5.34 5.32C3.9 6.92 3 9.1 3 11.5H19C19 9.1 18.1 6.92 16.66 5.32ZM8 9H6V7H8V9ZM14 9H12V7H14V9Z" fill="currentColor"/>
    <path d="M3 12.5V17.5C3 18.6 3.9 19.5 5 19.5H7V22.5C7 23.33 7.67 24 8.5 24C9.33 24 10 23.33 10 22.5V19.5H14V22.5C14 23.33 14.67 24 15.5 24C16.33 24 17 23.33 17 22.5V19.5H19C20.1 19.5 21 18.6 21 17.5V12.5H3Z" fill="currentColor"/>
</svg>
