<svg width="190" height="57" viewBox="0 0 190 57" fill="none" xmlns="http://www.w3.org/2000/svg">
<rect x="0.723877" y="0.51001" width="189" height="56" rx="8.72806" fill="black"/>
<path d="M124.66 27.3914V30.5988H122.65V32.7022H124.66V39.8492C124.66 42.2896 125.764 43.2658 128.541 43.2658C129.03 43.2658 129.494 43.2077 129.901 43.138V41.0578C129.552 41.0927 129.332 41.1159 128.948 41.1159C127.705 41.1159 127.159 40.5348 127.159 39.21V32.7022H129.901V30.5988H127.159V27.3914H124.66Z" fill="white"/>
<path d="M136.977 43.4401C140.672 43.4401 142.938 40.9648 142.938 36.8626C142.938 32.7836 140.66 30.2967 136.977 30.2967C133.281 30.2967 131.003 32.7836 131.003 36.8626C131.003 40.9648 133.269 43.4401 136.977 43.4401ZM136.977 41.2205C134.803 41.2205 133.583 39.6284 133.583 36.8626C133.583 34.12 134.803 32.5163 136.977 32.5163C139.138 32.5163 140.37 34.12 140.37 36.8626C140.37 39.6168 139.138 41.2205 136.977 41.2205Z" fill="white"/>
<path d="M144.877 43.1961H147.376V35.7237C147.376 33.9457 148.712 32.7487 150.606 32.7487C151.048 32.7487 151.792 32.8301 152.001 32.8998V30.4361C151.733 30.3664 151.257 30.3315 150.885 30.3315C149.235 30.3315 147.829 31.238 147.468 32.4814H147.283V30.5407H144.877V43.1961Z" fill="white"/>
<path d="M158.205 32.4233C160.052 32.4233 161.261 33.7133 161.319 35.7005H154.927C155.067 33.7249 156.357 32.4233 158.205 32.4233ZM161.307 39.7795C160.843 40.7673 159.808 41.3135 158.297 41.3135C156.299 41.3135 155.009 39.9073 154.927 37.6877V37.5482H163.864V36.6766C163.864 32.7022 161.737 30.2967 158.216 30.2967C154.648 30.2967 152.382 32.8649 152.382 36.9091C152.382 40.9532 154.602 43.4401 158.228 43.4401C161.121 43.4401 163.143 42.0456 163.713 39.7795H161.307Z" fill="white"/>
<path d="M108.275 38.5226C108.468 41.6302 111.057 43.6176 114.912 43.6176C119.031 43.6176 121.609 41.5339 121.609 38.2095C121.609 35.5957 120.139 34.1503 116.574 33.3192L114.659 32.8495C112.394 32.3195 111.479 31.6089 111.479 30.3682C111.479 28.8024 112.9 27.7786 115.032 27.7786C117.056 27.7786 118.453 28.7783 118.706 30.3803H121.332C121.175 27.4534 118.598 25.3937 115.068 25.3937C111.274 25.3937 108.745 27.4534 108.745 30.5489C108.745 33.1024 110.178 34.6201 113.322 35.3548L115.562 35.8968C117.863 36.4389 118.875 37.2338 118.875 38.5588C118.875 40.1005 117.285 41.2207 115.117 41.2207C112.792 41.2207 111.178 40.1728 110.949 38.5226H108.275Z" fill="white"/>
<path d="M82.3927 30.3315C80.6728 30.3315 79.1853 31.1915 78.4183 32.6325H78.2324V30.5407H75.8268V47.4029H78.3254V41.2786H78.5229C79.1853 42.615 80.6147 43.4053 82.416 43.4053C85.6118 43.4053 87.6455 40.8835 87.6455 36.8626C87.6455 32.8417 85.6118 30.3315 82.3927 30.3315ZM81.6839 41.1624C79.5921 41.1624 78.2789 39.5122 78.2789 36.8742C78.2789 34.2246 79.5921 32.5744 81.6955 32.5744C83.8105 32.5744 85.0772 34.1897 85.0772 36.8626C85.0772 39.547 83.8105 41.1624 81.6839 41.1624Z" fill="white"/>
<path d="M96.3883 30.3315C94.6683 30.3315 93.1808 31.1915 92.4138 32.6325H92.2279V30.5407H89.8223V47.4029H92.3209V41.2786H92.5184C93.1808 42.615 94.6102 43.4053 96.4115 43.4053C99.6073 43.4053 101.641 40.8835 101.641 36.8626C101.641 32.8417 99.6073 30.3315 96.3883 30.3315ZM95.6794 41.1624C93.5876 41.1624 92.2744 39.5122 92.2744 36.8742C92.2744 34.2246 93.5876 32.5744 95.691 32.5744C97.806 32.5744 99.0727 34.1897 99.0727 36.8626C99.0727 39.547 97.806 41.1624 95.6794 41.1624Z" fill="white"/>
<path d="M71.344 43.1961H74.2107L67.9353 25.8152H65.0325L58.7571 43.1961H61.5274L63.1294 38.5829H69.7541L71.344 43.1961ZM66.3454 28.971H66.5501L69.0675 36.3184H63.8159L66.3454 28.971Z" fill="white"/>
<path d="M60.4355 12.7056V21.0903H63.4628C65.9614 21.0903 67.4082 19.5505 67.4082 16.8718C67.4082 14.2338 65.9498 12.7056 63.4628 12.7056H60.4355ZM61.7371 13.891H63.3176C65.0549 13.891 66.0834 14.995 66.0834 16.8892C66.0834 18.8125 65.0724 19.9049 63.3176 19.9049H61.7371V13.891Z" fill="white"/>
<path d="M71.8393 21.2123C73.6871 21.2123 74.8201 19.9746 74.8201 17.9235C74.8201 15.884 73.6813 14.6406 71.8393 14.6406C69.9916 14.6406 68.8527 15.884 68.8527 17.9235C68.8527 19.9746 69.9858 21.2123 71.8393 21.2123ZM71.8393 20.1025C70.7528 20.1025 70.1426 19.3064 70.1426 17.9235C70.1426 16.5522 70.7528 15.7504 71.8393 15.7504C72.9201 15.7504 73.536 16.5522 73.536 17.9235C73.536 19.3006 72.9201 20.1025 71.8393 20.1025Z" fill="white"/>
<path d="M84.4691 14.7626H83.2199L82.0926 19.5911H81.9938L80.6923 14.7626H79.4953L78.1937 19.5911H78.1008L76.9677 14.7626H75.701L77.4442 21.0903H78.7283L80.0299 16.4302H80.1286L81.436 21.0903H82.7318L84.4691 14.7626Z" fill="white"/>
<path d="M85.9078 21.0903H87.1571V17.3889C87.1571 16.4011 87.744 15.7852 88.6678 15.7852C89.5917 15.7852 90.0333 16.2907 90.0333 17.3076V21.0903H91.2826V16.9938C91.2826 15.4889 90.504 14.6406 89.092 14.6406C88.1391 14.6406 87.5115 15.0647 87.2036 15.7678H87.1106V14.7626H85.9078V21.0903Z" fill="white"/>
<path d="M93.25 21.0903H94.4993V12.2931H93.25V21.0903Z" fill="white"/>
<path d="M99.1977 21.2123C101.045 21.2123 102.179 19.9746 102.179 17.9235C102.179 15.884 101.04 14.6406 99.1977 14.6406C97.3499 14.6406 96.2111 15.884 96.2111 17.9235C96.2111 19.9746 97.3441 21.2123 99.1977 21.2123ZM99.1977 20.1025C98.1111 20.1025 97.501 19.3064 97.501 17.9235C97.501 16.5522 98.1111 15.7504 99.1977 15.7504C100.278 15.7504 100.894 16.5522 100.894 17.9235C100.894 19.3006 100.278 20.1025 99.1977 20.1025Z" fill="white"/>
<path d="M105.901 20.1431C105.221 20.1431 104.727 19.8119 104.727 19.2425C104.727 18.6847 105.122 18.3884 105.994 18.3302L107.539 18.2315V18.7602C107.539 19.5447 106.842 20.1431 105.901 20.1431ZM105.581 21.1948C106.412 21.1948 107.104 20.8346 107.481 20.2012H107.58V21.0903H108.783V16.7672C108.783 15.4308 107.888 14.6406 106.302 14.6406C104.866 14.6406 103.844 15.3378 103.716 16.4244H104.925C105.064 15.977 105.546 15.7213 106.244 15.7213C107.098 15.7213 107.539 16.099 107.539 16.7672V17.3134L105.825 17.4122C104.32 17.5052 103.472 18.1617 103.472 19.3006C103.472 20.4569 104.361 21.1948 105.581 21.1948Z" fill="white"/>
<path d="M113.022 21.1948C113.894 21.1948 114.632 20.7823 115.009 20.0908H115.108V21.0903H116.305V12.2931H115.056V15.7678H114.963C114.62 15.0705 113.888 14.658 113.022 14.658C111.424 14.658 110.396 15.9247 110.396 17.9235C110.396 19.9281 111.413 21.1948 113.022 21.1948ZM113.377 15.7794C114.422 15.7794 115.079 16.6103 115.079 17.9293C115.079 19.2541 114.428 20.0734 113.377 20.0734C112.319 20.0734 111.686 19.2657 111.686 17.9235C111.686 16.5929 112.325 15.7794 113.377 15.7794Z" fill="white"/>
<path d="M124.406 21.2123C126.254 21.2123 127.387 19.9746 127.387 17.9235C127.387 15.884 126.248 14.6406 124.406 14.6406C122.558 14.6406 121.42 15.884 121.42 17.9235C121.42 19.9746 122.553 21.2123 124.406 21.2123ZM124.406 20.1025C123.32 20.1025 122.709 19.3064 122.709 17.9235C122.709 16.5522 123.32 15.7504 124.406 15.7504C125.487 15.7504 126.103 16.5522 126.103 17.9235C126.103 19.3006 125.487 20.1025 124.406 20.1025Z" fill="white"/>
<path d="M129.041 21.0903H130.29V17.3889C130.29 16.4011 130.877 15.7852 131.801 15.7852C132.725 15.7852 133.166 16.2907 133.166 17.3076V21.0903H134.415V16.9938C134.415 15.4889 133.637 14.6406 132.225 14.6406C131.272 14.6406 130.644 15.0647 130.336 15.7678H130.243V14.7626H129.041V21.0903Z" fill="white"/>
<path d="M140.169 13.1879V14.7916H139.164V15.8433H140.169V19.4168C140.169 20.637 140.721 21.1251 142.11 21.1251C142.354 21.1251 142.586 21.0961 142.79 21.0612V20.0211C142.615 20.0385 142.505 20.0502 142.313 20.0502C141.691 20.0502 141.418 19.7596 141.418 19.0972V15.8433H142.79V14.7916H141.418V13.1879H140.169Z" fill="white"/>
<path d="M144.467 21.0903H145.716V17.3948C145.716 16.436 146.285 15.791 147.308 15.791C148.191 15.791 148.662 16.3024 148.662 17.3134V21.0903H149.911V17.0054C149.911 15.5005 149.08 14.6464 147.732 14.6464C146.779 14.6464 146.111 15.0705 145.803 15.7794H145.704V12.2931H144.467V21.0903Z" fill="white"/>
<path d="M154.418 15.7039C155.342 15.7039 155.946 16.3489 155.975 17.3425H152.779C152.849 16.3547 153.494 15.7039 154.418 15.7039ZM155.969 19.382C155.737 19.8759 155.219 20.1489 154.464 20.1489C153.465 20.1489 152.82 19.4459 152.779 18.3361V18.2663H157.247V17.8305C157.247 15.8433 156.184 14.6406 154.423 14.6406C152.64 14.6406 151.507 15.9247 151.507 17.9468C151.507 19.9688 152.616 21.2123 154.429 21.2123C155.876 21.2123 156.887 20.515 157.172 19.382H155.969Z" fill="white"/>
<path d="M45.2004 28.9314C45.2307 26.578 46.4946 24.3511 48.4996 23.1185C47.2347 21.312 45.1161 20.1667 42.9119 20.0977C40.561 19.851 38.2819 21.5045 37.0839 21.5045C35.8627 21.5045 34.0182 20.1222 32.032 20.1631C29.443 20.2467 27.0295 21.7187 25.7699 23.9821C23.0623 28.6699 25.0819 35.5594 27.6756 39.3486C28.9732 41.2041 30.4898 43.2768 32.4742 43.2033C34.4161 43.1227 35.1414 41.965 37.4854 41.965C39.8077 41.965 40.4881 43.2033 42.5128 43.1565C44.5965 43.1227 45.9094 41.2928 47.1615 39.4197C48.0939 38.0976 48.8113 36.6364 49.2873 35.0902C46.8385 34.0545 45.2032 31.5902 45.2004 28.9314Z" fill="white"/>
<path d="M41.376 17.6057C42.5122 16.2418 43.0719 14.4888 42.9364 12.7189C41.2006 12.9012 39.5972 13.7308 38.4458 15.0423C37.3198 16.3238 36.7338 18.046 36.8446 19.7483C38.581 19.7661 40.288 18.9591 41.376 17.6057Z" fill="white"/>
</svg>
