<svg width="190" height="57" viewBox="0 0 190 57" fill="none" xmlns="http://www.w3.org/2000/svg">
<rect x="0.723877" y="0.195068" width="189" height="56" rx="8.72806" fill="black"/>
<path d="M96.114 30.647C92.8212 30.647 90.1374 33.1516 90.1374 36.6012C90.1374 40.0298 92.8212 42.5554 96.114 42.5554C99.4082 42.5554 102.092 40.0298 102.092 36.6012C102.091 33.1516 99.4068 30.647 96.114 30.647ZM96.114 40.2118C94.3094 40.2118 92.754 38.7236 92.754 36.6026C92.754 34.4592 94.3108 32.9934 96.114 32.9934C97.9186 32.9934 99.474 34.4592 99.474 36.6026C99.474 38.7222 97.9186 40.2118 96.114 40.2118ZM83.0744 30.647C79.7816 30.647 77.0978 33.1516 77.0978 36.6012C77.0978 40.0298 79.7816 42.5554 83.0744 42.5554C86.3686 42.5554 89.0524 40.0298 89.0524 36.6012C89.0524 33.1516 86.3686 30.647 83.0744 30.647ZM83.0744 40.2118C81.2698 40.2118 79.7144 38.7236 79.7144 36.6026C79.7144 34.4592 81.2712 32.9934 83.0744 32.9934C84.879 32.9934 86.4344 34.4592 86.4344 36.6026C86.4358 38.7222 84.879 40.2118 83.0744 40.2118ZM67.5652 32.4754V35.001H73.6104C73.4298 36.422 72.9566 37.4594 72.2342 38.1804C71.355 39.0596 69.9788 40.0298 67.5652 40.0298C63.844 40.0298 60.9348 37.0296 60.9348 33.3084C60.9348 29.5872 63.844 26.587 67.5652 26.587C69.5728 26.587 71.0386 27.3766 72.1208 28.3916L73.903 26.6094C72.391 25.166 70.3848 24.0614 67.5652 24.0614C62.4678 24.0614 58.1824 28.211 58.1824 33.3084C58.1824 38.4058 62.4678 42.5554 67.5652 42.5554C70.3162 42.5554 72.3924 41.6524 74.015 39.9612C75.6838 38.2924 76.2032 35.946 76.2032 34.0518C76.2032 33.4666 76.1584 32.9248 76.0674 32.474H67.5652V32.4754ZM130.996 34.4368C130.501 33.1068 128.989 30.647 125.899 30.647C122.832 30.647 120.282 33.0606 120.282 36.6012C120.282 39.9388 122.809 42.5554 126.192 42.5554C128.92 42.5554 130.499 40.8866 131.155 39.9164L129.125 38.5626C128.448 39.5552 127.523 40.209 126.192 40.209C124.862 40.209 123.914 39.6 123.305 38.4044L131.267 35.1116L130.996 34.4368ZM122.876 36.422C122.809 34.1204 124.659 32.9486 125.99 32.9486C127.027 32.9486 127.907 33.468 128.201 34.2114L122.876 36.422ZM116.404 42.1956H119.019V24.6942H116.404V42.1956ZM112.117 31.9784H112.028C111.441 31.2784 110.313 30.647 108.893 30.647C105.915 30.647 103.187 33.2636 103.187 36.625C103.187 39.9626 105.915 42.5568 108.893 42.5568C110.314 42.5568 111.441 41.9254 112.028 41.2044H112.117V42.0612C112.117 44.339 110.899 45.557 108.938 45.557C107.336 45.557 106.344 44.4076 105.938 43.4374L103.66 44.3852C104.314 45.963 106.05 47.9034 108.938 47.9034C112.005 47.9034 114.6 46.0988 114.6 41.7V31.0096H112.119V31.9784H112.117ZM109.119 40.2118C107.314 40.2118 105.803 38.6998 105.803 36.625C105.803 34.5264 107.314 32.9934 109.119 32.9934C110.899 32.9934 112.298 34.5264 112.298 36.625C112.298 38.6998 110.899 40.2118 109.119 40.2118ZM143.252 24.6942H136.993V42.1956H139.604V35.5652H143.251C146.146 35.5652 148.993 33.4694 148.993 30.1304C148.993 26.7914 146.147 24.6942 143.252 24.6942ZM143.319 33.1292H139.604V27.1302H143.319C145.272 27.1302 146.381 28.7472 146.381 30.1304C146.381 31.4856 145.272 33.1292 143.319 33.1292ZM159.464 30.6162C157.573 30.6162 155.614 31.4492 154.803 33.2958L157.122 34.2632C157.617 33.2958 158.541 32.9794 159.509 32.9794C160.86 32.9794 162.233 33.79 162.256 35.2306V35.4112C161.782 35.141 160.769 34.7364 159.531 34.7364C157.032 34.7364 154.487 36.1098 154.487 38.676C154.487 41.0182 156.537 42.526 158.833 42.526C160.588 42.526 161.557 41.7378 162.165 40.8138H162.254V42.1648H164.777V35.4546C164.778 32.3494 162.457 30.6162 159.464 30.6162ZM159.148 40.2076C158.294 40.2076 157.099 39.7792 157.099 38.7208C157.099 37.3698 158.586 36.8518 159.87 36.8518C161.017 36.8518 161.558 37.0996 162.256 37.437C162.053 39.0596 160.657 40.2076 159.148 40.2076ZM173.964 30.9984L170.969 38.5864H170.88L167.772 30.9984H164.958L169.618 41.6034L166.961 47.503H169.685L176.869 30.9984H173.964ZM150.435 42.1956H153.046V24.6942H150.435V42.1956Z" fill="white"/>
<path d="M67.1086 14.535C67.1086 15.7082 66.7614 16.642 66.0656 17.3392C65.276 18.168 64.2456 18.5824 62.98 18.5824C61.7676 18.5824 60.7358 18.1624 59.8888 17.3224C59.0404 16.481 58.6162 15.4394 58.6162 14.1962C58.6162 12.9516 59.0404 11.91 59.8888 11.07C60.7358 10.2286 61.7676 9.80864 62.98 9.80864C63.582 9.80864 64.1574 9.92624 64.7034 10.16C65.2508 10.3952 65.689 10.7074 66.0166 11.098L65.2788 11.8372C64.723 11.1722 63.9572 10.8404 62.9786 10.8404C62.0938 10.8404 61.3294 11.1512 60.684 11.7728C60.0386 12.3944 59.7166 13.2022 59.7166 14.1948C59.7166 15.1874 60.0386 15.9952 60.684 16.6168C61.3294 17.2384 62.0938 17.5492 62.9786 17.5492C63.9166 17.5492 64.6992 17.237 65.325 16.6112C65.731 16.2038 65.9662 15.6368 66.0292 14.9102H62.9786V13.9008H67.0484C67.0904 14.1206 67.1086 14.332 67.1086 14.535Z" fill="white"/>
<path d="M73.5627 11.0267H69.7379V13.6895H73.1875V14.6989H69.7379V17.3617H73.5627V18.3949H68.6585V9.99492H73.5627V11.0267Z" fill="white"/>
<path d="M78.114 18.3949H77.0346V11.0267H74.6882V9.99492H80.4604V11.0267H78.114V18.3949Z" fill="white"/>
<path d="M84.6365 18.3949V9.99492H85.7159V18.3949H84.6365Z" fill="white"/>
<path d="M90.5027 18.3949H89.4233V11.0267H87.0769V9.99492H92.8491V11.0267H90.5027V18.3949Z" fill="white"/>
<path d="M103.776 17.3099C102.95 18.1583 101.924 18.5825 100.696 18.5825C99.468 18.5825 98.4418 18.1583 97.6172 17.3099C96.7912 16.4615 96.3796 15.4227 96.3796 14.1949C96.3796 12.9671 96.7912 11.9283 97.6172 11.0799C98.4418 10.2315 99.468 9.80591 100.696 9.80591C101.917 9.80591 102.941 10.2329 103.77 11.0855C104.599 11.9381 105.013 12.9741 105.013 14.1949C105.013 15.4227 104.6 16.4615 103.776 17.3099ZM98.4138 16.6057C99.0354 17.2357 99.7956 17.5493 100.696 17.5493C101.596 17.5493 102.358 17.2343 102.978 16.6057C103.599 15.9757 103.912 15.1721 103.912 14.1949C103.912 13.2177 103.599 12.4141 102.978 11.7841C102.358 11.1541 101.596 10.8405 100.696 10.8405C99.7956 10.8405 99.0354 11.1555 98.4138 11.7841C97.7936 12.4141 97.4814 13.2177 97.4814 14.1949C97.4814 15.1721 97.7936 15.9757 98.4138 16.6057Z" fill="white"/>
<path d="M106.528 18.3949V9.99492H107.841L111.924 16.5287H111.97L111.924 14.9103V9.99492H113.003V18.3949H111.876L107.605 11.5433H107.559L107.605 13.1617V18.3949H106.528Z" fill="white"/>
<path d="M67.1086 14.535C67.1086 15.7082 66.7614 16.642 66.0656 17.3392C65.276 18.168 64.2456 18.5824 62.98 18.5824C61.7676 18.5824 60.7358 18.1624 59.8888 17.3224C59.0404 16.481 58.6162 15.4394 58.6162 14.1962C58.6162 12.9516 59.0404 11.91 59.8888 11.07C60.7358 10.2286 61.7676 9.80864 62.98 9.80864C63.582 9.80864 64.1574 9.92624 64.7034 10.16C65.2508 10.3952 65.689 10.7074 66.0166 11.098L65.2788 11.8372C64.723 11.1722 63.9572 10.8404 62.9786 10.8404C62.0938 10.8404 61.3294 11.1512 60.684 11.7728C60.0386 12.3944 59.7166 13.2022 59.7166 14.1948C59.7166 15.1874 60.0386 15.9952 60.684 16.6168C61.3294 17.2384 62.0938 17.5492 62.9786 17.5492C63.9166 17.5492 64.6992 17.237 65.325 16.6112C65.731 16.2038 65.9662 15.6368 66.0292 14.9102H62.9786V13.9008H67.0484C67.0904 14.1206 67.1086 14.332 67.1086 14.535Z" stroke="white" stroke-width="0.28" stroke-miterlimit="10"/>
<path d="M73.5627 11.0267H69.7379V13.6895H73.1875V14.6989H69.7379V17.3617H73.5627V18.3949H68.6585V9.99492H73.5627V11.0267Z" stroke="white" stroke-width="0.28" stroke-miterlimit="10"/>
<path d="M78.114 18.3949H77.0346V11.0267H74.6882V9.99492H80.4604V11.0267H78.114V18.3949Z" stroke="white" stroke-width="0.28" stroke-miterlimit="10"/>
<path d="M84.6365 18.3949V9.99492H85.7159V18.3949H84.6365Z" stroke="white" stroke-width="0.28" stroke-miterlimit="10"/>
<path d="M90.5027 18.3949H89.4233V11.0267H87.0769V9.99492H92.8491V11.0267H90.5027V18.3949Z" stroke="white" stroke-width="0.28" stroke-miterlimit="10"/>
<path d="M103.776 17.3099C102.95 18.1583 101.924 18.5825 100.696 18.5825C99.468 18.5825 98.4418 18.1583 97.6172 17.3099C96.7912 16.4615 96.3796 15.4227 96.3796 14.1949C96.3796 12.9671 96.7912 11.9283 97.6172 11.0799C98.4418 10.2315 99.468 9.80591 100.696 9.80591C101.917 9.80591 102.941 10.2329 103.77 11.0855C104.599 11.9381 105.013 12.9741 105.013 14.1949C105.013 15.4227 104.6 16.4615 103.776 17.3099ZM98.4138 16.6057C99.0354 17.2357 99.7956 17.5493 100.696 17.5493C101.596 17.5493 102.358 17.2343 102.978 16.6057C103.599 15.9757 103.912 15.1721 103.912 14.1949C103.912 13.2177 103.599 12.4141 102.978 11.7841C102.358 11.1541 101.596 10.8405 100.696 10.8405C99.7956 10.8405 99.0354 11.1555 98.4138 11.7841C97.7936 12.4141 97.4814 13.2177 97.4814 14.1949C97.4814 15.1721 97.7936 15.9757 98.4138 16.6057Z" stroke="white" stroke-width="0.28" stroke-miterlimit="10"/>
<path d="M106.528 18.3949V9.99492H107.841L111.924 16.5287H111.97L111.924 14.9103V9.99492H113.003V18.3949H111.876L107.605 11.5433H107.559L107.605 13.1617V18.3949H106.528Z" stroke="white" stroke-width="0.28" stroke-miterlimit="10"/>
<mask id="mask0_516_299" style="mask-type:alpha" maskUnits="userSpaceOnUse" x="14" y="10" width="34" height="36">
<path d="M14.3627 14.7184C14.3337 11.6716 17.5858 9.71238 20.2657 11.1621L45.374 24.7441C48.1714 26.2573 48.1694 30.272 45.3706 31.7824L20.5157 45.1958C17.865 46.6263 14.644 44.7246 14.6162 41.7127L14.4878 27.8487L14.3627 14.7184Z" fill="url(#paint0_linear_516_299)"/>
</mask>
<g mask="url(#mask0_516_299)">
<rect x="32.3799" y="27.2635" width="25.9887" height="25.9887" transform="rotate(44.6452 32.3799 27.2635)" fill="#F44336"/>
<rect x="50.6423" y="8.77307" width="25.9887" height="25.9887" transform="rotate(44.6452 50.6423 8.77307)" fill="#FFC107"/>
<rect x="13.8896" y="9.00061" width="25.9887" height="25.9887" transform="rotate(44.6452 13.8896 9.00061)" fill="#2196F3"/>
<rect x="32.1521" y="-9.48962" width="25.9887" height="25.9887" transform="rotate(44.6452 32.1521 -9.48962)" fill="#4CAF50"/>
</g>
<defs>
<linearGradient id="paint0_linear_516_299" x1="10.9404" y1="0.444328" x2="25.1677" y2="14.6716" gradientUnits="userSpaceOnUse">
<stop stop-color="#32A071"/>
<stop offset="0.0685" stop-color="#2DA771"/>
<stop offset="0.4762" stop-color="#15CF74"/>
<stop offset="0.8009" stop-color="#06E775"/>
<stop offset="1" stop-color="#00F076"/>
</linearGradient>
</defs>
</svg>
