<svg width="100" height="100" viewBox="0 0 100 100" fill="none" xmlns="http://www.w3.org/2000/svg">
<path d="M84.8412 20.4182C81.8081 22.6479 78.4498 24.3532 74.8956 25.4686C72.988 23.1827 70.4528 21.5626 67.6329 20.8273C64.813 20.0919 61.8444 20.2769 59.1286 21.3572C56.4129 22.4374 54.081 24.3608 52.4483 26.8672C50.8157 29.3736 49.961 32.3421 50 35.3712V38.6721C44.4338 38.8225 38.9182 37.536 33.9446 34.9271C28.9709 32.3182 24.6936 28.4679 21.4936 23.7191C21.4936 23.7191 8.82405 53.427 37.3305 66.6306C30.8073 71.2451 23.0366 73.5589 15.1588 73.2324C43.6652 89.7368 78.5064 73.2324 78.5064 35.2722C78.5035 34.3527 78.4187 33.4356 78.253 32.5324C81.4857 29.2101 83.7669 25.0154 84.8412 20.4182V20.4182Z" fill="white"/>
</svg>
