<svg width="100" height="100" viewBox="0 0 100 100" fill="none" xmlns="http://www.w3.org/2000/svg">
<path d="M71.2946 52.4827C71.3723 46.4554 74.6092 40.7522 79.7442 37.5953C76.5047 32.9688 71.0788 30.0355 65.4337 29.8588C59.4127 29.2268 53.5757 33.4617 50.5075 33.4617C47.3799 33.4617 42.656 29.9216 37.569 30.0262C30.9385 30.2405 24.7571 34.0102 21.5312 39.8071C14.5968 51.813 19.7692 69.4576 26.4119 79.1623C29.7353 83.9144 33.6194 89.2226 38.7018 89.0344C43.6751 88.8281 45.5326 85.863 51.5358 85.863C57.4834 85.863 59.2261 89.0344 64.4115 88.9147C69.7482 88.8281 73.1105 84.1415 76.3173 79.3444C78.7052 75.9583 80.5427 72.216 81.7617 68.2561C75.4901 65.6035 71.302 59.2921 71.2946 52.4827Z" fill="white"/>
<path d="M61.5002 23.4766C64.4099 19.9835 65.8434 15.4938 65.4963 10.9608C61.0508 11.4277 56.9445 13.5524 53.9954 16.9114C51.1116 20.1934 49.6109 24.6041 49.8946 28.9638C54.3416 29.0096 58.7135 26.9425 61.5002 23.4766Z" fill="white"/>
</svg>
