<?xml version="1.0" encoding="UTF-8"?>
<svg width="24" height="24" viewBox="0 0 24 24" fill="none" xmlns="http://www.w3.org/2000/svg">
    <path d="M17.05 12.314C17.036 10.136 18.834 9.052 18.902 9.012C17.864 7.444 16.252 7.228 15.684 7.208C14.334 7.064 13.026 8.008 12.338 8.008C11.638 8.008 10.574 7.224 9.442 7.248C7.944 7.272 6.556 8.12 5.792 9.476C4.214 12.252 5.394 16.308 6.908 18.444C7.656 19.484 8.532 20.648 9.692 20.608C10.826 20.564 11.266 19.876 12.634 19.876C13.99 19.876 14.398 20.608 15.58 20.584C16.796 20.564 17.558 19.532 18.282 18.48C19.142 17.284 19.498 16.112 19.514 16.052C19.482 16.04 17.068 15.1 17.05 12.314Z" fill="currentColor"/>
    <path d="M15.376 6.024C15.994 5.264 16.408 4.232 16.292 3.2C15.404 3.24 14.314 3.816 13.674 4.56C13.098 5.224 12.602 6.284 12.734 7.288C13.726 7.368 14.742 6.784 15.376 6.024Z" fill="currentColor"/>
</svg>
