<svg width="478" height="240" viewBox="0 0 478 240" fill="none" xmlns="http://www.w3.org/2000/svg">
<path d="M78.0859 55.6228C100.269 77.7166 87.9566 75.2526 95.3511 86.7716L213.662 146.822L451.788 89.6044L457.476 51.6484C442.687 82.2398 431.315 72.6092 394.543 86.7716C389.059 75.6517 394.543 55.0475 394.543 55.0475C394.543 55.0475 336.411 93.0035 335.956 95.2695C335.501 97.5355 319.629 95.2695 327.792 77.1413C297.446 92.4367 292.726 95.2695 292.726 95.2695L295.57 68.6436C290.451 77.5189 279.871 94.703 278.506 92.437C277.141 90.1709 281.054 52.7272 263.148 44.2838C271.476 81.6822 230.537 90.1709 219.919 95.2695C219.919 95.2695 202.082 89.6133 207.405 68.6436C194.842 66.4396 188.635 95.2695 188.635 95.2695C188.635 95.2695 175.916 71.4762 160.763 68.6436C177.054 81.6822 149.387 92.437 149.387 92.437C129.669 82.8062 100.838 52.2238 78.0859 55.6228Z" fill="#10CC00"/>
<path d="M202.968 43.7137C268.082 54.1876 237.694 79.0099 280.956 119.995C294.09 115.893 301.158 113 310.375 100.606C310.375 100.606 280.954 1.81251 202.968 43.7137Z" fill="#269926"/>
<path d="M400.852 2.68358C352.078 23.4918 363.924 59.0461 317.124 125.276C298.503 123.305 288.301 121.329 272.695 107.249C272.695 107.249 297.078 -18.4536 400.852 2.68358Z" fill="#269926"/>
<path d="M400.146 74.802C367.153 74.605 365.113 97.8328 322.002 124.052C311.861 118.317 306.527 114.664 301.104 102.763C301.104 102.763 346.142 37.0455 400.146 74.802Z" fill="#269926"/>
<path d="M316.39 56.9036C297.682 56.9036 267.175 117.446 363.452 117.446C387.979 117.446 398.994 124.976 419.617 117.446C380.482 85.9888 304.482 113.934 316.393 74.0126C324.432 65.4695 336.244 70.3534 336.244 84.2783C346.496 82.0315 344.919 56.8979 316.39 56.9036Z" fill="#00590E"/>
<path fill-rule="evenodd" clip-rule="evenodd" d="M67.6949 186.142C73.4061 140.528 68.2004 118.539 52.8457 76.6222C52.8457 76.6222 115.169 90.9878 138.514 94.0596C157.096 94.0596 240.272 94.0596 240.272 94.0596C240.272 94.0596 279.452 96.2669 292.377 109.334C303.229 98.3629 309.847 93.0569 323.225 94.0596C362.966 97.0383 477.195 84.5728 477.195 84.5728C477.195 84.5728 430.358 116.278 439.496 184.071L365.25 179.791L357.989 171.43C349.422 187.069 319.775 190.203 319.775 190.203C304.375 165.783 240.655 184.071 218.471 184.071C201.909 184.071 188.49 171.43 188.49 171.43L182.491 179.791C135.471 174.902 112.547 181.468 67.6949 186.142Z" fill="#00590E"/>
<path d="M13.936 119.71C-2.2993 110.257 21.4901 40.4151 73.3161 76.5515C106.401 99.6201 73.7456 101.835 73.7456 101.835C73.7456 101.835 33.1926 69.6574 22.2436 105.443C24.9253 116.873 40.4126 114.98 47.4072 102.968C55.1721 110.085 38.6802 134.125 13.936 119.71Z" fill="#00590E"/>
<path d="M124.6 151.774L135.797 166.78H112.843L105.244 156.629H102.645V166.78H87.9374L82.8186 107.384L110.123 111.049C116.815 111.049 122.387 113.309 126.839 117.83C131.478 122.43 133.797 127.486 133.797 132.996C133.797 139.55 131.478 145.14 126.839 149.768C126.119 150.49 125.373 151.159 124.6 151.774ZM102.645 138.574H110.123C111.669 138.574 112.962 138.012 114.002 136.888C115.095 135.845 115.642 134.548 115.642 132.996C115.642 131.418 115.095 130.107 114.002 129.064C112.962 128.021 111.669 127.499 110.123 127.499H102.645V138.574Z" fill="white"/>
<path d="M180.186 127.419H157.992V130.95H172.828V146.117H157.992V149.928H180.266V166.78H139.636V111.049H180.186V127.419Z" fill="white"/>
<path d="M235.773 159.919C229.721 165.911 222.643 168.907 214.538 168.907C206.46 168.907 199.462 165.978 193.543 160.12C187.731 154.208 184.825 147.187 184.825 139.055C184.825 130.843 187.731 123.821 193.543 117.99C199.408 112.105 206.407 109.163 214.538 109.163C221.816 109.163 228.375 111.664 234.213 116.666L221.136 129.786C219.004 128.369 216.804 127.66 214.538 127.66C211.366 127.66 208.673 128.77 206.46 130.99C204.274 133.21 203.181 135.899 203.181 139.055C203.181 142.185 204.274 144.886 206.46 147.16C208.726 149.353 211.419 150.45 214.538 150.45C215.738 150.45 216.644 150.343 217.257 150.129V135.604H235.773V159.919Z" fill="white"/>
<path d="M281.282 151.774L292.479 166.78H269.525L261.927 156.629H259.327V166.78H240.972V111.049H266.806C273.497 111.049 279.069 113.309 283.522 117.83C288.16 122.43 290.48 127.486 290.48 132.996C290.48 139.55 288.16 145.14 283.522 149.768C282.802 150.49 282.055 151.159 281.282 151.774ZM259.327 138.574H266.806C268.352 138.574 269.645 138.012 270.685 136.888C271.778 135.845 272.324 134.548 272.324 132.996C272.324 131.418 271.778 130.107 270.685 129.064C269.645 128.021 268.352 127.499 266.806 127.499H259.327V138.574Z" fill="white"/>
<path d="M346.106 160.12C340.215 165.978 333.216 168.907 325.112 168.907C317.033 168.907 310.035 165.978 304.117 160.12C298.305 154.208 295.399 147.187 295.399 139.055C295.399 130.843 298.305 123.821 304.117 117.99C309.982 112.105 316.98 109.163 325.112 109.163C333.27 109.163 340.268 112.105 346.106 117.99C351.998 123.768 354.944 130.79 354.944 139.055C354.944 147.24 351.998 154.262 346.106 160.12ZM333.11 130.99C330.897 128.77 328.231 127.66 325.112 127.66C321.939 127.66 319.246 128.77 317.033 130.99C314.847 133.21 313.754 135.899 313.754 139.055C313.754 142.185 314.847 144.886 317.033 147.16C319.3 149.353 321.992 150.45 325.112 150.45C328.231 150.45 330.897 149.353 333.11 147.16C335.402 144.94 336.549 142.238 336.549 139.055C336.549 135.818 335.402 133.13 333.11 130.99Z" fill="white"/>
<path d="M395.471 150.089L389.912 166.78H369.837L351.401 111.129H370.917L379.914 140.78L388.832 111.129H402.029L411.067 140.78L419.945 111.129L441.701 107.384L421.104 166.78H401.069L395.471 150.089Z" fill="white"/>
<path d="M209.692 205.284C179.258 205.953 145.046 171.765 142.764 168.899H117.101C145.806 192.396 165.136 223.622 209.692 223.622C306.071 215.027 408.724 157.717 370.514 217.892C360.249 223.622 347.132 216.757 347.132 201.273C335.156 208.723 341.767 239.106 362.53 239.106C401.31 239.106 417.278 169.179 365.382 169.179C313.485 169.179 295.236 203.405 209.692 205.284Z" fill="#00590E"/>
<path d="M169.856 193.567C169.856 192.536 170.144 191.635 170.718 190.862C171.293 190.089 172.085 189.485 173.096 189.049C174.106 188.593 175.266 188.365 176.573 188.365C177.207 188.365 177.831 188.425 178.446 188.544C179.06 188.643 179.595 188.791 180.051 188.989V188.306C180.051 187.454 179.793 186.8 179.278 186.344C178.763 185.889 177.98 185.661 176.93 185.661C176.058 185.661 175.236 185.809 174.463 186.106C173.71 186.404 172.908 186.83 172.056 187.384L170.629 184.353C171.659 183.679 172.729 183.174 173.839 182.837C174.968 182.5 176.157 182.332 177.405 182.332C179.744 182.332 181.557 182.897 182.845 184.026C184.152 185.136 184.806 186.75 184.806 188.871V192.942C184.806 193.418 184.875 193.755 185.014 193.953C185.173 194.131 185.44 194.24 185.817 194.28V198.233C185.42 198.312 185.044 198.372 184.687 198.411C184.35 198.451 184.053 198.471 183.796 198.471C182.904 198.471 182.22 198.292 181.745 197.936C181.289 197.579 181.002 197.094 180.883 196.479L180.794 195.796C180.1 196.687 179.268 197.371 178.297 197.846C177.346 198.302 176.345 198.53 175.295 198.53C174.265 198.53 173.334 198.312 172.501 197.876C171.689 197.44 171.045 196.846 170.57 196.093C170.094 195.34 169.856 194.498 169.856 193.567ZM179.308 194.161C179.526 193.983 179.704 193.785 179.843 193.567C179.981 193.349 180.051 193.141 180.051 192.942V191.546C179.654 191.387 179.209 191.268 178.713 191.189C178.238 191.09 177.792 191.04 177.376 191.04C176.504 191.04 175.781 191.238 175.206 191.635C174.631 192.011 174.344 192.516 174.344 193.15C174.344 193.507 174.443 193.834 174.641 194.131C174.84 194.428 175.107 194.666 175.444 194.845C175.801 195.023 176.217 195.112 176.692 195.112C177.168 195.112 177.643 195.023 178.119 194.845C178.594 194.666 178.991 194.438 179.308 194.161Z" fill="white"/>
<path d="M188.103 192.615V182.629H192.859V191.575C192.859 192.526 193.047 193.259 193.424 193.775C193.8 194.27 194.335 194.518 195.028 194.518C195.464 194.518 195.88 194.448 196.277 194.31C196.673 194.151 197.059 193.903 197.436 193.567C197.812 193.23 198.149 192.794 198.446 192.259V182.629H203.202V192.942C203.202 193.418 203.271 193.755 203.41 193.953C203.568 194.131 203.836 194.24 204.212 194.28V198.233C203.777 198.312 203.39 198.372 203.053 198.411C202.736 198.451 202.449 198.471 202.191 198.471C201.359 198.471 200.695 198.302 200.2 197.965C199.705 197.609 199.398 197.113 199.279 196.479L199.189 195.528C198.476 196.559 197.585 197.321 196.515 197.817C195.464 198.292 194.285 198.53 192.978 198.53C191.393 198.53 190.184 198.025 189.352 197.014C188.519 196.004 188.103 194.537 188.103 192.615Z" fill="white"/>
<path d="M216.904 197.401C216.468 197.579 215.983 197.757 215.448 197.936C214.933 198.114 214.388 198.253 213.813 198.352C213.239 198.471 212.674 198.53 212.119 198.53C211.326 198.53 210.593 198.401 209.92 198.144C209.266 197.866 208.741 197.42 208.344 196.806C207.968 196.192 207.78 195.38 207.78 194.369V186.225H205.788V182.629H207.78V177.666H212.535V182.629H215.715V186.225H212.535V192.734C212.535 193.25 212.664 193.626 212.922 193.864C213.179 194.082 213.506 194.191 213.902 194.191C214.239 194.191 214.596 194.131 214.972 194.012C215.369 193.894 215.705 193.765 215.983 193.626L216.904 197.401Z" fill="white"/>
<path d="M226.013 198.53C224.686 198.53 223.497 198.312 222.447 197.876C221.416 197.44 220.545 196.846 219.831 196.093C219.118 195.34 218.573 194.478 218.197 193.507C217.84 192.536 217.662 191.516 217.662 190.446C217.662 189.356 217.84 188.326 218.197 187.355C218.573 186.384 219.118 185.522 219.831 184.769C220.545 184.016 221.416 183.422 222.447 182.986C223.497 182.55 224.686 182.332 226.013 182.332C227.341 182.332 228.52 182.55 229.55 182.986C230.581 183.422 231.452 184.016 232.166 184.769C232.879 185.522 233.424 186.384 233.8 187.355C234.177 188.326 234.365 189.356 234.365 190.446C234.365 191.516 234.177 192.536 233.8 193.507C233.424 194.478 232.879 195.34 232.166 196.093C231.452 196.846 230.581 197.44 229.55 197.876C228.52 198.312 227.341 198.53 226.013 198.53ZM222.536 190.446C222.536 191.258 222.685 191.972 222.982 192.586C223.299 193.2 223.715 193.676 224.23 194.012C224.745 194.349 225.34 194.518 226.013 194.518C226.667 194.518 227.252 194.349 227.767 194.012C228.302 193.656 228.718 193.17 229.015 192.556C229.312 191.942 229.461 191.238 229.461 190.446C229.461 189.633 229.312 188.92 229.015 188.306C228.718 187.692 228.302 187.216 227.767 186.879C227.252 186.542 226.667 186.374 226.013 186.374C225.34 186.374 224.745 186.542 224.23 186.879C223.715 187.216 223.299 187.692 222.982 188.306C222.685 188.92 222.536 189.633 222.536 190.446Z" fill="white"/>
<path d="M251.121 198.53C249.793 198.53 248.614 198.312 247.584 197.876C246.553 197.44 245.672 196.846 244.939 196.093C244.225 195.34 243.68 194.478 243.304 193.507C242.927 192.536 242.739 191.506 242.739 190.416C242.739 188.989 243.066 187.662 243.72 186.433C244.394 185.205 245.355 184.214 246.603 183.461C247.851 182.708 249.357 182.332 251.121 182.332C252.904 182.332 254.41 182.718 255.638 183.491C256.887 184.244 257.818 185.235 258.432 186.463L253.796 187.86C253.498 187.384 253.112 187.018 252.636 186.76C252.181 186.503 251.666 186.374 251.091 186.374C250.437 186.374 249.843 186.542 249.308 186.879C248.792 187.216 248.376 187.682 248.059 188.276C247.762 188.871 247.614 189.584 247.614 190.416C247.614 191.228 247.772 191.942 248.089 192.556C248.406 193.17 248.822 193.656 249.337 194.012C249.853 194.349 250.437 194.518 251.091 194.518C251.487 194.518 251.854 194.458 252.191 194.339C252.547 194.201 252.864 194.012 253.142 193.775C253.439 193.537 253.667 193.269 253.825 192.972L258.462 194.399C258.085 195.191 257.541 195.905 256.827 196.539C256.134 197.153 255.311 197.638 254.36 197.995C253.409 198.352 252.329 198.53 251.121 198.53Z" fill="white"/>
<path d="M275.65 198.233H270.895V189.465C270.895 188.454 270.687 187.711 270.271 187.236C269.874 186.76 269.339 186.523 268.666 186.523C268.309 186.523 267.903 186.641 267.447 186.879C267.011 187.097 266.605 187.414 266.228 187.83C265.852 188.246 265.565 188.732 265.367 189.287V198.233H260.611V176.536H265.367V185.245C265.941 184.313 266.694 183.6 267.625 183.105C268.576 182.589 269.617 182.332 270.746 182.332C271.816 182.332 272.668 182.51 273.302 182.867C273.956 183.223 274.451 183.699 274.788 184.293C275.125 184.868 275.353 185.502 275.472 186.196C275.591 186.889 275.65 187.573 275.65 188.246V198.233Z" fill="white"/>
<path d="M286.27 198.53C284.942 198.53 283.763 198.322 282.733 197.906C281.703 197.47 280.821 196.885 280.088 196.152C279.374 195.419 278.83 194.577 278.453 193.626C278.077 192.655 277.888 191.645 277.888 190.594C277.888 189.089 278.215 187.721 278.869 186.493C279.543 185.245 280.504 184.244 281.752 183.491C283 182.718 284.506 182.332 286.27 182.332C288.033 182.332 289.529 182.708 290.758 183.461C292.006 184.214 292.957 185.205 293.611 186.433C294.265 187.642 294.592 188.96 294.592 190.386C294.592 190.664 294.572 190.941 294.532 191.219C294.513 191.476 294.493 191.704 294.473 191.902H282.941C283 192.596 283.189 193.18 283.506 193.656C283.843 194.131 284.269 194.498 284.784 194.755C285.299 194.993 285.844 195.112 286.418 195.112C287.132 195.112 287.796 194.944 288.41 194.607C289.044 194.27 289.48 193.814 289.718 193.24L293.76 194.369C293.363 195.181 292.799 195.905 292.066 196.539C291.352 197.153 290.5 197.638 289.51 197.995C288.539 198.352 287.459 198.53 286.27 198.53ZM282.822 188.989H289.599C289.519 188.336 289.331 187.771 289.034 187.295C288.737 186.8 288.34 186.423 287.845 186.166C287.35 185.889 286.805 185.75 286.21 185.75C285.596 185.75 285.041 185.889 284.546 186.166C284.07 186.423 283.684 186.8 283.387 187.295C283.09 187.771 282.901 188.336 282.822 188.989Z" fill="white"/>
<path d="M302.721 198.53C301.394 198.53 300.096 198.312 298.828 197.876C297.56 197.44 296.49 196.796 295.618 195.944L297.252 192.942C298.204 193.636 299.125 194.161 300.017 194.518C300.928 194.874 301.78 195.053 302.573 195.053C303.187 195.053 303.662 194.954 303.999 194.755C304.336 194.557 304.504 194.25 304.504 193.834C304.504 193.537 304.405 193.309 304.207 193.15C304.009 192.972 303.702 192.814 303.286 192.675C302.89 192.536 302.394 192.388 301.8 192.229C300.611 191.833 299.62 191.446 298.828 191.07C298.035 190.693 297.441 190.238 297.044 189.703C296.648 189.148 296.45 188.435 296.45 187.563C296.45 186.513 296.708 185.601 297.223 184.828C297.758 184.036 298.511 183.422 299.482 182.986C300.452 182.55 301.612 182.332 302.959 182.332C304.029 182.332 305.069 182.5 306.08 182.837C307.11 183.174 308.071 183.739 308.963 184.531L307.12 187.503C306.228 186.889 305.436 186.443 304.742 186.166C304.049 185.889 303.375 185.75 302.721 185.75C302.384 185.75 302.077 185.789 301.8 185.869C301.522 185.948 301.295 186.087 301.116 186.285C300.958 186.463 300.878 186.701 300.878 186.998C300.878 187.295 300.958 187.533 301.116 187.711C301.295 187.89 301.562 188.048 301.919 188.187C302.295 188.306 302.761 188.454 303.316 188.633C304.604 189.009 305.674 189.396 306.526 189.792C307.378 190.168 308.012 190.644 308.428 191.219C308.864 191.773 309.082 192.516 309.082 193.448C309.082 195.033 308.507 196.281 307.358 197.193C306.228 198.084 304.683 198.53 302.721 198.53Z" fill="white"/>
<path d="M317.495 198.53C316.167 198.53 314.869 198.312 313.601 197.876C312.333 197.44 311.263 196.796 310.391 195.944L312.026 192.942C312.977 193.636 313.899 194.161 314.79 194.518C315.702 194.874 316.554 195.053 317.346 195.053C317.961 195.053 318.436 194.954 318.773 194.755C319.11 194.557 319.278 194.25 319.278 193.834C319.278 193.537 319.179 193.309 318.981 193.15C318.783 192.972 318.476 192.814 318.06 192.675C317.663 192.536 317.168 192.388 316.574 192.229C315.385 191.833 314.394 191.446 313.601 191.07C312.809 190.693 312.214 190.238 311.818 189.703C311.422 189.148 311.224 188.435 311.224 187.563C311.224 186.513 311.481 185.601 311.996 184.828C312.531 184.036 313.284 183.422 314.255 182.986C315.226 182.55 316.385 182.332 317.733 182.332C318.803 182.332 319.843 182.5 320.853 182.837C321.884 183.174 322.845 183.739 323.736 184.531L321.894 187.503C321.002 186.889 320.209 186.443 319.516 186.166C318.822 185.889 318.149 185.75 317.495 185.75C317.158 185.75 316.851 185.789 316.574 185.869C316.296 185.948 316.068 186.087 315.89 186.285C315.731 186.463 315.652 186.701 315.652 186.998C315.652 187.295 315.731 187.533 315.89 187.711C316.068 187.89 316.336 188.048 316.692 188.187C317.069 188.306 317.535 188.454 318.089 188.633C319.377 189.009 320.447 189.396 321.299 189.792C322.151 190.168 322.785 190.644 323.201 191.219C323.637 191.773 323.855 192.516 323.855 193.448C323.855 195.033 323.281 196.281 322.131 197.193C321.002 198.084 319.457 198.53 317.495 198.53Z" fill="white"/>
<path fill-rule="evenodd" clip-rule="evenodd" d="M180.883 196.479C180.903 196.587 180.929 196.691 180.96 196.79C181.022 196.988 181.104 197.17 181.207 197.337C181.262 197.426 181.322 197.51 181.388 197.59C181.427 197.637 181.468 197.683 181.511 197.727C181.583 197.801 181.661 197.87 181.744 197.936C181.903 198.054 182.085 198.154 182.289 198.233C182.432 198.288 182.586 198.334 182.751 198.37C182.842 198.389 182.936 198.406 183.034 198.42C183.068 198.425 183.102 198.43 183.137 198.434C183.342 198.458 183.562 198.471 183.795 198.471C183.925 198.471 184.064 198.466 184.213 198.456C184.361 198.446 184.519 198.431 184.687 198.411C184.914 198.386 185.149 198.353 185.392 198.311C185.463 198.299 185.535 198.287 185.608 198.273C185.677 198.26 185.746 198.247 185.816 198.233V194.28C185.778 194.276 185.74 194.271 185.704 194.265C185.386 194.217 185.156 194.113 185.014 193.953C184.99 193.919 184.969 193.882 184.949 193.84C184.942 193.825 184.935 193.808 184.928 193.792C184.919 193.77 184.911 193.747 184.903 193.724C184.858 193.589 184.829 193.424 184.815 193.227C184.809 193.139 184.806 193.044 184.806 192.942V188.871C184.806 188.678 184.8 188.49 184.79 188.306C184.713 187.003 184.368 185.909 183.752 185.023C183.496 184.655 183.194 184.322 182.844 184.026C182.693 183.894 182.536 183.769 182.371 183.653C182.225 183.55 182.073 183.453 181.916 183.361C181.718 183.247 181.512 183.142 181.296 183.046C181.096 182.958 180.888 182.877 180.673 182.805C180.337 182.693 179.983 182.6 179.61 182.528C179.547 182.516 179.485 182.504 179.421 182.493C178.942 182.41 178.432 182.359 177.893 182.34C177.733 182.335 177.571 182.332 177.405 182.332C177.246 182.332 177.087 182.335 176.93 182.34C176.81 182.344 176.691 182.35 176.573 182.357C175.637 182.415 174.735 182.572 173.869 182.828C173.859 182.831 173.849 182.834 173.838 182.837C173.65 182.894 173.463 182.956 173.277 183.023C173.268 183.026 173.259 183.03 173.249 183.033C172.471 183.315 171.713 183.682 170.975 184.134C170.95 184.149 170.925 184.164 170.9 184.18C170.809 184.236 170.719 184.294 170.629 184.353L172.055 187.384C172.106 187.351 172.157 187.319 172.207 187.287C172.231 187.271 172.256 187.256 172.28 187.24C172.289 187.235 172.298 187.229 172.308 187.223C172.31 187.222 172.311 187.221 172.313 187.22C172.358 187.191 172.403 187.163 172.448 187.136C173.155 186.701 173.826 186.358 174.463 186.106C174.568 186.066 174.673 186.029 174.78 185.994C174.785 185.992 174.79 185.99 174.795 185.989C174.976 185.93 175.158 185.88 175.344 185.837C175.742 185.745 176.151 185.689 176.573 185.669C176.691 185.663 176.81 185.661 176.93 185.661C177.084 185.661 177.233 185.666 177.375 185.675C177.385 185.676 177.395 185.677 177.405 185.678C177.981 185.72 178.462 185.844 178.848 186.049C178.872 186.062 178.897 186.075 178.92 186.089C178.923 186.09 178.925 186.091 178.927 186.093C179.055 186.167 179.172 186.251 179.278 186.344C179.342 186.401 179.403 186.462 179.459 186.525C179.524 186.597 179.583 186.674 179.637 186.754C179.758 186.935 179.853 187.137 179.921 187.359C179.929 187.387 179.937 187.415 179.945 187.443C180.015 187.703 180.05 187.991 180.05 188.306V188.989C179.982 188.96 179.912 188.931 179.84 188.904C179.811 188.892 179.781 188.881 179.751 188.871C179.586 188.811 179.412 188.757 179.23 188.708C179.192 188.698 179.153 188.688 179.114 188.679C179.055 188.664 178.994 188.65 178.932 188.636C178.896 188.628 178.859 188.62 178.822 188.613C178.798 188.608 178.774 188.603 178.75 188.598C178.695 188.587 178.639 188.577 178.582 188.567C178.537 188.559 178.491 188.551 178.445 188.544C178.118 188.48 177.788 188.434 177.455 188.404C177.439 188.403 177.422 188.401 177.405 188.4C177.395 188.399 177.385 188.398 177.375 188.397C177.299 188.391 177.223 188.386 177.147 188.382C177.074 188.377 177.002 188.374 176.93 188.372C176.85 188.369 176.771 188.367 176.692 188.366C176.652 188.365 176.613 188.365 176.573 188.365C176.275 188.365 175.985 188.377 175.702 188.401C175.645 188.406 175.589 188.411 175.532 188.416C175.523 188.417 175.513 188.418 175.503 188.419C175.462 188.424 175.422 188.428 175.381 188.433C175.374 188.434 175.366 188.435 175.359 188.436C175.137 188.463 174.92 188.497 174.708 188.539C174.617 188.557 174.528 188.576 174.439 188.597C174.416 188.603 174.393 188.608 174.37 188.614C174.095 188.681 173.829 188.761 173.572 188.855C173.522 188.873 173.471 188.892 173.422 188.912C173.397 188.921 173.372 188.931 173.348 188.941C173.309 188.957 173.27 188.973 173.231 188.989C173.197 189.004 173.163 189.019 173.129 189.034C173.118 189.039 173.107 189.044 173.095 189.049C172.971 189.103 172.849 189.159 172.731 189.218C171.892 189.637 171.221 190.185 170.718 190.862C170.222 191.529 169.94 192.292 169.872 193.15C169.861 193.287 169.856 193.425 169.856 193.567C169.856 194.498 170.094 195.34 170.569 196.093C170.682 196.271 170.804 196.441 170.936 196.601C171.003 196.684 171.074 196.765 171.147 196.843C171.529 197.252 171.98 197.597 172.501 197.876C172.852 198.06 173.221 198.205 173.608 198.312C173.633 198.319 173.658 198.325 173.683 198.332C173.688 198.333 173.693 198.334 173.698 198.336C174.201 198.465 174.733 198.53 175.295 198.53C175.771 198.53 176.236 198.483 176.692 198.39C176.877 198.352 177.06 198.306 177.241 198.253C177.286 198.24 177.331 198.226 177.375 198.212C177.379 198.211 177.382 198.21 177.385 198.209C177.457 198.186 177.529 198.161 177.601 198.136C177.836 198.053 178.068 197.956 178.297 197.846C178.327 197.832 178.356 197.817 178.386 197.802C178.455 197.767 178.524 197.731 178.591 197.693C178.734 197.615 178.874 197.531 179.011 197.443C179.033 197.429 179.055 197.414 179.077 197.4C179.101 197.384 179.125 197.368 179.149 197.352C179.337 197.223 179.52 197.085 179.696 196.938C179.808 196.844 179.918 196.747 180.025 196.645C180.047 196.624 180.069 196.604 180.09 196.583C180.311 196.368 180.521 196.136 180.72 195.888C180.736 195.869 180.752 195.849 180.767 195.829C180.776 195.818 180.785 195.807 180.793 195.796L180.883 196.479ZM179.307 194.161C179.525 193.983 179.704 193.784 179.842 193.567C179.933 193.424 179.994 193.285 180.026 193.15C180.042 193.08 180.05 193.011 180.05 192.942V191.545C179.75 191.426 179.422 191.328 179.066 191.254C179.038 191.248 179.01 191.242 178.983 191.237C178.894 191.219 178.804 191.203 178.713 191.189C178.48 191.14 178.255 191.104 178.036 191.079C178.01 191.076 177.983 191.073 177.956 191.07C177.785 191.053 177.619 191.043 177.457 191.041C177.43 191.04 177.403 191.04 177.375 191.04C177.365 191.04 177.356 191.04 177.346 191.04C177.203 191.041 177.064 191.047 176.93 191.059C176.88 191.063 176.83 191.068 176.781 191.074C176.757 191.076 176.732 191.079 176.708 191.083C176.702 191.083 176.697 191.084 176.692 191.085C176.669 191.088 176.647 191.091 176.624 191.095C176.607 191.097 176.59 191.1 176.573 191.103C176.53 191.11 176.487 191.118 176.444 191.126C176.428 191.129 176.413 191.133 176.397 191.136C176.305 191.155 176.216 191.178 176.128 191.203C176.054 191.225 175.981 191.248 175.91 191.274C175.708 191.347 175.519 191.438 175.343 191.545C175.34 191.547 175.338 191.549 175.335 191.55C175.322 191.559 175.308 191.567 175.295 191.575C175.294 191.576 175.293 191.576 175.293 191.577C175.276 191.588 175.259 191.599 175.242 191.61C175.23 191.618 175.218 191.626 175.206 191.635C175.112 191.696 175.027 191.76 174.949 191.828C174.833 191.929 174.733 192.037 174.65 192.153C174.617 192.199 174.587 192.247 174.56 192.295C174.547 192.317 174.535 192.339 174.524 192.361C174.433 192.539 174.377 192.733 174.355 192.942C174.347 193.01 174.344 193.079 174.344 193.15C174.344 193.294 174.36 193.433 174.392 193.567C174.395 193.578 174.397 193.589 174.4 193.6C174.406 193.621 174.412 193.642 174.418 193.662C174.45 193.769 174.493 193.872 174.546 193.972C174.554 193.988 174.563 194.003 174.571 194.018C174.593 194.056 174.616 194.094 174.641 194.131C174.709 194.234 174.786 194.329 174.871 194.418C174.995 194.547 175.136 194.66 175.295 194.759C175.343 194.789 175.392 194.817 175.443 194.845C175.504 194.875 175.567 194.903 175.632 194.928C175.677 194.946 175.722 194.962 175.769 194.977C175.97 195.042 176.187 195.084 176.42 195.102C176.47 195.106 176.521 195.108 176.573 195.11C176.612 195.111 176.652 195.112 176.692 195.112C176.73 195.112 176.769 195.111 176.808 195.11C176.856 195.109 176.905 195.106 176.953 195.103C176.962 195.102 176.972 195.102 176.981 195.101C177.048 195.096 177.114 195.089 177.18 195.081C177.245 195.072 177.31 195.062 177.375 195.051C177.382 195.049 177.389 195.048 177.396 195.047C177.404 195.045 177.411 195.044 177.418 195.043C177.424 195.042 177.43 195.04 177.436 195.039C177.47 195.033 177.505 195.025 177.539 195.018C177.55 195.015 177.561 195.013 177.572 195.01C177.694 194.982 177.816 194.948 177.938 194.908C177.998 194.888 178.058 194.867 178.118 194.845C178.122 194.843 178.125 194.842 178.129 194.841C178.217 194.807 178.303 194.772 178.386 194.735C178.562 194.657 178.726 194.571 178.878 194.477C178.919 194.452 178.959 194.426 178.998 194.399C179.055 194.361 179.11 194.321 179.163 194.28C179.213 194.241 179.261 194.202 179.307 194.161ZM176.207 193.087L176.172 193.11ZM176.692 192.764L176.573 192.843ZM177.615 192.149L177.572 192.177ZM163.964 187.64C162.915 189.486 162.425 191.517 162.425 193.567C162.425 195.835 163.026 198.064 164.287 200.061C165.472 201.937 167.087 203.403 168.988 204.424L169.02 204.441L169.053 204.458C171.05 205.504 173.182 205.96 175.295 205.96C176.842 205.96 178.354 205.716 179.802 205.236C181.271 205.769 182.69 205.901 183.795 205.901C184.408 205.901 184.997 205.856 185.531 205.793C186.118 205.727 186.7 205.634 187.273 205.519L188.641 205.245C190.064 205.745 191.544 205.96 192.977 205.96C194.68 205.96 196.395 205.721 198.064 205.174C199.538 205.738 200.987 205.901 202.191 205.901C202.809 205.901 203.401 205.855 203.947 205.788C204.468 205.726 205.005 205.641 205.541 205.543L207.53 205.182C209.047 205.724 210.597 205.96 212.119 205.96C213.164 205.96 214.192 205.853 215.194 205.653C216.083 205.494 216.966 205.27 217.834 204.972C218.265 204.828 218.689 204.678 219.101 204.521C219.25 204.589 219.4 204.655 219.551 204.719L219.574 204.729L219.598 204.739C221.689 205.607 223.869 205.96 226.013 205.96C228.153 205.96 230.344 205.608 232.445 204.719C234.344 203.916 236.088 202.757 237.559 201.203C237.911 200.832 238.242 200.446 238.552 200.047C238.862 200.446 239.193 200.832 239.544 201.203L239.579 201.24L239.615 201.276C241.082 202.784 242.806 203.923 244.688 204.719C246.789 205.608 248.981 205.96 251.12 205.96C252.207 205.96 253.311 205.87 254.411 205.663H257.936V211.437L261.498 205.663H282.943C284.053 205.87 285.168 205.96 286.269 205.96C288.196 205.96 290.151 205.672 292.048 204.978C292.802 204.706 293.541 204.379 294.256 203.993C294.953 204.347 295.674 204.649 296.412 204.903C298.449 205.603 300.563 205.96 302.721 205.96C305.028 205.96 307.528 205.561 309.846 204.379C310.285 204.573 310.732 204.747 311.186 204.903C313.223 205.603 315.337 205.96 317.494 205.96C320.525 205.96 323.89 205.271 326.735 203.025L326.742 203.019L326.748 203.014C329.833 200.568 331.285 197.091 331.285 193.448C331.285 191.896 331.008 190.081 330.125 188.328L333.346 183.132L328.672 178.978C327.1 177.58 325.268 176.467 323.183 175.781C321.417 175.195 319.59 174.901 317.732 174.901C315.605 174.901 313.358 175.243 311.211 176.207C310.939 176.33 310.67 176.461 310.404 176.601C309.767 176.284 309.102 176.009 308.409 175.781C306.644 175.195 304.817 174.901 302.959 174.901C300.832 174.901 298.584 175.243 296.438 176.207C295.835 176.478 295.248 176.792 294.684 177.153C294.662 177.139 294.64 177.126 294.617 177.112C291.99 175.508 289.088 174.901 286.269 174.901C283.468 174.901 280.612 175.51 278.018 177.065C277.657 176.81 277.284 176.577 276.9 176.366C275.526 175.602 274.107 175.214 272.797 175.036V169.106H253.18V175.014C252.492 174.937 251.804 174.901 251.12 174.901C248.289 174.901 245.393 175.514 242.765 177.099C241.137 178.08 239.714 179.324 238.551 180.814C238.241 180.415 237.91 180.029 237.559 179.659C236.088 178.105 234.344 176.946 232.445 176.143C230.344 175.254 228.153 174.901 226.013 174.901C224.92 174.901 223.817 174.993 222.721 175.199H219.965V170.235H200.349V175.199H180.831C179.68 174.989 178.527 174.901 177.405 174.901C175.48 174.901 173.573 175.162 171.715 175.717L171.697 175.722L171.68 175.727C169.855 176.281 168.147 177.098 166.562 178.134L161.154 181.67L163.964 187.64ZM188.103 192.615C188.103 192.726 188.104 192.835 188.107 192.942C188.119 193.418 188.158 193.863 188.224 194.28C188.389 195.319 188.721 196.174 189.22 196.846C189.239 196.872 189.259 196.898 189.279 196.924C189.303 196.955 189.327 196.985 189.351 197.014C189.815 197.577 190.396 197.983 191.093 198.233C191.409 198.346 191.749 198.427 192.113 198.475C192.388 198.512 192.676 198.53 192.977 198.53C193.068 198.53 193.157 198.529 193.247 198.527C193.871 198.511 194.464 198.439 195.028 198.312C195.549 198.194 196.045 198.029 196.514 197.817C196.605 197.775 196.694 197.731 196.782 197.685C196.833 197.659 196.884 197.631 196.934 197.603C197.074 197.526 197.21 197.444 197.343 197.356C197.383 197.33 197.423 197.303 197.463 197.276C197.721 197.097 197.967 196.899 198.2 196.682C198.239 196.645 198.278 196.607 198.317 196.569C198.632 196.26 198.923 195.912 199.189 195.528L199.278 196.479C199.299 196.587 199.324 196.691 199.355 196.791C199.417 196.988 199.5 197.17 199.604 197.336C199.757 197.579 199.955 197.789 200.2 197.965C200.355 198.071 200.527 198.16 200.716 198.233C200.784 198.259 200.853 198.283 200.925 198.304C201.192 198.385 201.487 198.436 201.812 198.458C201.934 198.466 202.061 198.471 202.191 198.471C202.449 198.471 202.736 198.451 203.053 198.411C203.07 198.409 203.088 198.407 203.106 198.405C203.171 198.397 203.238 198.388 203.307 198.379C203.458 198.358 203.619 198.334 203.788 198.306C203.924 198.284 204.065 198.26 204.212 198.233V194.28C203.858 194.243 203.601 194.144 203.44 193.985C203.429 193.974 203.419 193.964 203.41 193.953C203.359 193.88 203.317 193.789 203.285 193.68C203.283 193.672 203.281 193.664 203.278 193.656C203.264 193.605 203.252 193.55 203.242 193.491C203.215 193.335 203.202 193.152 203.202 192.942V182.629H198.446V192.259C198.417 192.311 198.387 192.363 198.358 192.413C198.245 192.603 198.128 192.779 198.005 192.942C197.826 193.179 197.637 193.387 197.436 193.567C197.268 193.716 197.099 193.848 196.928 193.963C196.714 194.106 196.497 194.221 196.276 194.31C196.142 194.356 196.006 194.395 195.868 194.426C195.597 194.487 195.317 194.518 195.028 194.518C195.025 194.518 195.023 194.518 195.02 194.518C195.009 194.518 194.998 194.517 194.987 194.517C194.313 194.508 193.792 194.26 193.423 193.775C193.406 193.751 193.389 193.727 193.373 193.703C193.328 193.636 193.286 193.565 193.247 193.491C193.131 193.273 193.041 193.025 192.977 192.747C192.967 192.704 192.958 192.66 192.949 192.615C192.927 192.501 192.909 192.382 192.895 192.259C192.871 192.045 192.858 191.817 192.858 191.575V182.629H188.103V192.615ZM215.982 193.626C215.963 193.636 215.942 193.646 215.922 193.656C215.806 193.711 215.68 193.766 215.544 193.818C215.514 193.83 215.483 193.841 215.452 193.853C215.375 193.881 215.294 193.91 215.21 193.937C215.185 193.946 215.16 193.954 215.135 193.962C215.082 193.979 215.027 193.996 214.972 194.012C214.703 194.097 214.443 194.152 214.194 194.176C214.179 194.178 214.163 194.179 214.148 194.18C214.065 194.187 213.983 194.191 213.902 194.191C213.835 194.191 213.77 194.188 213.707 194.181C213.46 194.157 213.243 194.084 213.056 193.964C213.044 193.956 213.032 193.948 213.02 193.94C212.986 193.916 212.953 193.891 212.921 193.864C212.919 193.862 212.917 193.86 212.914 193.858C212.901 193.845 212.888 193.832 212.875 193.818C212.828 193.769 212.787 193.715 212.75 193.656C212.606 193.426 212.535 193.119 212.535 192.734V186.225H215.715V182.629H212.535V177.666H207.779V182.629H205.788V186.225H207.779V194.369C207.779 195.38 207.968 196.192 208.344 196.806C208.604 197.209 208.919 197.539 209.29 197.797C209.315 197.815 209.339 197.831 209.364 197.848C209.404 197.874 209.445 197.899 209.486 197.924C209.623 198.006 209.768 198.079 209.919 198.144C210.002 198.175 210.086 198.205 210.17 198.233C210.634 198.385 211.125 198.479 211.642 198.514C211.799 198.525 211.957 198.53 212.119 198.53C212.174 198.53 212.229 198.529 212.284 198.528C212.324 198.527 212.365 198.526 212.405 198.525C212.868 198.508 213.337 198.45 213.813 198.352C213.843 198.347 213.872 198.341 213.902 198.336C214.444 198.238 214.959 198.105 215.447 197.936C215.668 197.862 215.879 197.789 216.083 197.715C216.1 197.709 216.118 197.703 216.135 197.696C216.407 197.598 216.663 197.499 216.904 197.401L215.982 193.626ZM217.862 188.512C217.728 189.134 217.661 189.779 217.661 190.446C217.661 191.236 217.758 191.998 217.953 192.734C217.987 192.863 218.024 192.991 218.064 193.118C218.105 193.249 218.149 193.378 218.196 193.507C218.216 193.557 218.235 193.606 218.256 193.656C218.396 193.997 218.557 194.325 218.74 194.638C218.76 194.673 218.781 194.708 218.802 194.743C219.093 195.226 219.436 195.676 219.831 196.093C219.988 196.258 220.152 196.416 220.324 196.566C220.786 196.969 221.304 197.318 221.877 197.611C222.061 197.705 222.251 197.793 222.446 197.876C223.169 198.176 223.958 198.373 224.813 198.467C225.199 198.509 225.599 198.53 226.013 198.53C227.341 198.53 228.52 198.312 229.55 197.876C229.745 197.793 229.935 197.705 230.119 197.611C230.131 197.605 230.142 197.599 230.154 197.593C230.925 197.194 231.596 196.694 232.165 196.093C232.595 195.64 232.963 195.147 233.27 194.615C233.474 194.263 233.65 193.894 233.8 193.507C234.177 192.536 234.365 191.516 234.365 190.446C234.365 189.356 234.177 188.326 233.8 187.355C233.65 186.968 233.474 186.599 233.27 186.247C232.963 185.715 232.595 185.222 232.165 184.769C231.591 184.163 230.914 183.659 230.134 183.258C230.112 183.247 230.09 183.236 230.068 183.225C229.9 183.14 229.727 183.061 229.55 182.986C228.52 182.55 227.341 182.332 226.013 182.332C224.972 182.332 224.016 182.466 223.145 182.734C222.906 182.808 222.673 182.892 222.446 182.986C222.246 183.071 222.051 183.162 221.862 183.258C221.631 183.378 221.408 183.506 221.194 183.643C220.689 183.968 220.235 184.343 219.831 184.769C219.43 185.192 219.082 185.65 218.788 186.141C218.771 186.169 218.755 186.197 218.739 186.225C218.734 186.232 218.73 186.24 218.726 186.247C218.523 186.599 218.346 186.968 218.196 187.355C218.058 187.731 217.946 188.117 217.862 188.512ZM222.891 192.385C222.919 192.453 222.95 192.52 222.981 192.586C223.033 192.686 223.088 192.783 223.145 192.877C223.155 192.893 223.165 192.909 223.175 192.925C223.302 193.125 223.441 193.307 223.594 193.472C223.746 193.638 223.912 193.786 224.09 193.916C224.098 193.922 224.106 193.928 224.114 193.934C224.152 193.961 224.191 193.987 224.23 194.012C224.745 194.349 225.339 194.518 226.013 194.518C226.667 194.518 227.251 194.349 227.767 194.012C227.805 193.986 227.844 193.96 227.881 193.933C228.255 193.662 228.566 193.324 228.816 192.92C228.887 192.804 228.954 192.683 229.015 192.556C229.033 192.519 229.05 192.482 229.067 192.445C229.163 192.228 229.242 192.001 229.303 191.764C229.318 191.706 229.332 191.648 229.345 191.59C229.358 191.528 229.37 191.466 229.381 191.402C229.434 191.099 229.461 190.781 229.461 190.446C229.461 190.109 229.435 189.79 229.384 189.488C229.374 189.424 229.362 189.361 229.349 189.299C229.335 189.232 229.319 189.165 229.302 189.099C229.247 188.881 229.177 188.673 229.092 188.475C229.067 188.417 229.042 188.361 229.015 188.306C228.953 188.179 228.887 188.058 228.815 187.943C228.564 187.538 228.25 187.207 227.873 186.949C227.838 186.925 227.803 186.902 227.767 186.879C227.251 186.542 226.667 186.374 226.013 186.374C225.339 186.374 224.745 186.542 224.23 186.879C224.194 186.903 224.159 186.926 224.124 186.951C224.116 186.957 224.108 186.963 224.1 186.969C223.745 187.225 223.441 187.552 223.187 187.948C223.173 187.97 223.159 187.993 223.145 188.015C223.088 188.108 223.033 188.205 222.981 188.306C222.956 188.358 222.932 188.412 222.908 188.465C222.833 188.641 222.769 188.824 222.716 189.015C222.709 189.043 222.701 189.071 222.694 189.099C222.664 189.216 222.638 189.337 222.617 189.46C222.616 189.462 222.616 189.464 222.616 189.466C222.562 189.775 222.536 190.101 222.536 190.446C222.536 190.782 222.561 191.102 222.612 191.404C222.633 191.527 222.658 191.648 222.687 191.766C222.694 191.794 222.701 191.822 222.709 191.849C222.72 191.892 222.732 191.934 222.745 191.975C222.787 192.116 222.836 192.253 222.891 192.385ZM225.931 191.064L226.005 191.1ZM225.865 191.097L225.931 191.064L226.931 190.547C226.933 190.516 226.934 190.482 226.934 190.446C226.934 190.409 226.933 190.376 226.932 190.345L225.812 189.767C225.506 189.781 225.355 189.827 225.309 189.843C225.255 189.867 225.224 189.886 225.212 189.894C225.185 189.923 225.166 189.95 225.148 189.986C225.147 189.991 225.145 189.996 225.144 190.001L225.796 190.998M225.796 190.998L225.739 190.971L225.13 190.057C225.12 190.098 225.112 190.145 225.106 190.197C225.097 190.268 225.092 190.35 225.092 190.446C225.092 190.528 225.096 190.599 225.104 190.664M225.104 190.664L224.654 190.446ZM225.104 190.664C225.114 190.745 225.129 190.814 225.148 190.875C225.148 190.877 225.149 190.879 225.15 190.88C225.165 190.909 225.181 190.932 225.2 190.955C225.204 190.959 225.208 190.964 225.212 190.968C225.224 190.976 225.255 190.994 225.31 191.019C225.355 191.035 225.51 191.081 225.822 191.096L225.739 190.971M225.86 191.097L225.796 190.998ZM225.865 191.097C225.864 191.097 225.862 191.097 225.86 191.097ZM225.991 189.762C225.996 189.762 226 189.762 226.005 189.762C226.008 189.762 226.01 189.762 226.013 189.762C226.049 189.762 226.083 189.763 226.116 189.763C226.475 189.772 226.634 189.822 226.657 189.83C226.73 189.861 226.77 189.884 226.785 189.894C226.814 189.926 226.835 189.956 226.854 189.998C226.86 190.011 226.866 190.025 226.872 190.041C226.888 190.082 226.905 190.135 226.918 190.21L225.991 189.762ZM226.913 190.683L226.053 191.099C226.082 191.099 226.109 191.099 226.135 191.098C226.48 191.088 226.634 191.04 226.657 191.032C226.73 191.001 226.77 190.978 226.785 190.968C226.81 190.94 226.829 190.914 226.846 190.88C226.855 190.863 226.863 190.844 226.872 190.821C226.888 190.78 226.902 190.736 226.913 190.683ZM270.894 198.233H275.65V188.246C275.65 188.204 275.65 188.162 275.649 188.12C275.646 187.797 275.628 187.472 275.598 187.144C275.568 186.83 275.526 186.514 275.471 186.196C275.365 185.573 275.17 184.998 274.888 184.472C274.863 184.425 274.837 184.379 274.811 184.333C274.803 184.32 274.796 184.307 274.788 184.293C274.787 184.292 274.786 184.291 274.785 184.289C274.681 184.105 274.561 183.933 274.427 183.772C274.399 183.739 274.37 183.706 274.341 183.674C274.056 183.358 273.71 183.089 273.302 182.867C273.146 182.779 272.978 182.703 272.797 182.637C272.719 182.609 272.639 182.582 272.557 182.558C272.045 182.407 271.442 182.332 270.746 182.332C270.015 182.332 269.321 182.44 268.665 182.655C268.453 182.725 268.245 182.806 268.041 182.898C267.901 182.962 267.762 183.03 267.625 183.105C267.061 183.405 266.562 183.784 266.129 184.244C266.117 184.257 266.105 184.271 266.093 184.284C265.996 184.388 265.902 184.497 265.812 184.61C265.653 184.809 265.505 185.02 265.366 185.245V176.536H260.611V198.233H265.366V189.287C265.425 189.122 265.492 188.963 265.566 188.811C265.743 188.45 265.963 188.123 266.228 187.83C266.491 187.54 266.768 187.298 267.06 187.104C267.186 187.02 267.315 186.945 267.447 186.879C267.557 186.822 267.665 186.771 267.769 186.727C267.862 186.689 267.953 186.655 268.041 186.627C268.264 186.558 268.472 186.523 268.665 186.523C268.984 186.523 269.271 186.576 269.528 186.682C269.543 186.688 269.558 186.695 269.573 186.702C269.738 186.775 269.89 186.871 270.029 186.99C270.05 187.008 270.071 187.027 270.092 187.046C270.113 187.066 270.134 187.086 270.154 187.107C270.194 187.148 270.233 187.191 270.27 187.236C270.39 187.372 270.492 187.531 270.577 187.711C270.59 187.738 270.602 187.766 270.614 187.794C270.632 187.836 270.649 187.88 270.666 187.924C270.695 188.005 270.722 188.089 270.746 188.177C270.752 188.2 270.758 188.223 270.764 188.246C270.793 188.365 270.818 188.489 270.837 188.62C270.861 188.779 270.877 188.947 270.886 189.125C270.888 189.164 270.89 189.204 270.891 189.245C270.891 189.259 270.892 189.273 270.892 189.287C270.894 189.345 270.894 189.405 270.894 189.465V198.233ZM252.143 182.377C251.813 182.347 251.472 182.332 251.12 182.332C251.11 182.332 251.1 182.332 251.091 182.332C249.528 182.336 248.168 182.636 247.011 183.233C246.989 183.244 246.967 183.256 246.946 183.267C246.829 183.329 246.715 183.394 246.603 183.461C245.479 184.139 244.587 185.01 243.929 186.074C243.908 186.109 243.886 186.144 243.865 186.179C243.815 186.263 243.767 186.347 243.72 186.433C243.066 187.662 242.739 188.989 242.739 190.416C242.739 191.506 242.927 192.536 243.304 193.507C243.468 193.932 243.666 194.337 243.895 194.72C244.19 195.212 244.537 195.67 244.938 196.093C245.501 196.671 246.152 197.156 246.89 197.547C246.924 197.565 246.957 197.582 246.991 197.6C247.183 197.698 247.38 197.79 247.583 197.876C248.606 198.309 249.775 198.527 251.091 198.53C251.1 198.53 251.11 198.53 251.12 198.53C251.467 198.53 251.803 198.515 252.128 198.486C252.492 198.453 252.843 198.402 253.18 198.333C253.312 198.306 253.441 198.276 253.568 198.243C253.582 198.24 253.595 198.236 253.608 198.233C253.637 198.225 253.666 198.217 253.695 198.21C253.923 198.147 254.145 198.076 254.36 197.995C254.92 197.785 255.436 197.53 255.906 197.231C255.949 197.204 255.991 197.176 256.033 197.148C256.314 196.962 256.579 196.758 256.827 196.539C257.258 196.155 257.628 195.743 257.936 195.302C257.959 195.269 257.982 195.235 258.005 195.201C258.178 194.943 258.33 194.676 258.462 194.399L253.825 192.972C253.806 193.009 253.785 193.045 253.763 193.08C253.762 193.083 253.761 193.085 253.759 193.087C253.613 193.326 253.42 193.545 253.18 193.743C253.167 193.753 253.154 193.764 253.141 193.775C253.051 193.852 252.957 193.924 252.858 193.991C252.654 194.129 252.431 194.246 252.19 194.339C251.862 194.455 251.505 194.515 251.12 194.518C251.11 194.518 251.1 194.518 251.091 194.518C250.437 194.518 249.852 194.349 249.337 194.012C249.306 193.991 249.276 193.969 249.246 193.947C248.875 193.673 248.557 193.328 248.294 192.914C248.282 192.896 248.271 192.877 248.259 192.859C248.2 192.762 248.143 192.661 248.089 192.556C248.083 192.546 248.078 192.536 248.073 192.526C247.953 192.288 247.857 192.036 247.784 191.77C247.772 191.726 247.761 191.682 247.75 191.638C247.659 191.259 247.613 190.852 247.613 190.416C247.613 190.16 247.627 189.915 247.655 189.682C247.697 189.333 247.771 189.01 247.875 188.712C247.882 188.693 247.888 188.675 247.895 188.656C247.917 188.596 247.941 188.536 247.966 188.478C247.995 188.409 248.026 188.342 248.059 188.276C248.281 187.861 248.551 187.508 248.869 187.218C249.006 187.094 249.152 186.981 249.307 186.879C249.842 186.542 250.437 186.374 251.091 186.374C251.1 186.374 251.11 186.374 251.12 186.374C251.683 186.378 252.188 186.507 252.636 186.76C252.833 186.867 253.014 186.992 253.18 187.136C253.216 187.167 253.251 187.198 253.285 187.231C253.306 187.251 253.326 187.27 253.346 187.291C253.513 187.459 253.663 187.649 253.795 187.86L258.432 186.463C258.285 186.169 258.119 185.888 257.936 185.621C257.88 185.54 257.822 185.459 257.763 185.38C257.204 184.638 256.496 184.008 255.638 183.491C255.356 183.314 255.06 183.157 254.75 183.021C254.726 183.01 254.702 183 254.678 182.99C254.212 182.791 253.712 182.637 253.18 182.528C252.847 182.46 252.502 182.41 252.143 182.377ZM278.248 188.01C278.225 188.088 278.203 188.167 278.182 188.246C278.166 188.305 278.152 188.363 278.138 188.422C278.056 188.761 277.994 189.109 277.952 189.465C277.909 189.832 277.888 190.209 277.888 190.594C277.888 191.182 277.947 191.757 278.065 192.32C278.132 192.642 278.219 192.959 278.325 193.273C278.365 193.391 278.407 193.509 278.453 193.626C278.807 194.52 279.309 195.318 279.961 196.019C279.988 196.049 280.016 196.078 280.044 196.107C280.058 196.122 280.073 196.137 280.087 196.152C280.179 196.244 280.273 196.333 280.369 196.42C281.043 197.029 281.831 197.524 282.733 197.906C282.801 197.934 282.871 197.96 282.941 197.986C282.987 198.003 283.033 198.02 283.08 198.036C283.098 198.043 283.116 198.049 283.134 198.055C283.17 198.067 283.207 198.079 283.244 198.091C284.148 198.384 285.156 198.53 286.269 198.53C286.319 198.53 286.369 198.53 286.418 198.529C286.809 198.524 287.189 198.5 287.556 198.455C287.807 198.425 288.053 198.386 288.293 198.337C288.716 198.252 289.121 198.138 289.509 197.995C289.707 197.924 289.9 197.847 290.087 197.765C290.102 197.759 290.117 197.753 290.131 197.746C290.861 197.423 291.506 197.02 292.065 196.539C292.111 196.499 292.155 196.46 292.199 196.42C292.385 196.252 292.558 196.078 292.721 195.899C293.028 195.558 293.295 195.197 293.521 194.813C293.522 194.811 293.524 194.808 293.525 194.805C293.609 194.663 293.687 194.517 293.759 194.369L289.717 193.24C289.682 193.325 289.642 193.407 289.598 193.487C289.578 193.525 289.556 193.562 289.533 193.599C289.532 193.601 289.53 193.603 289.529 193.606C289.275 194.011 288.902 194.345 288.409 194.607C288.376 194.625 288.342 194.643 288.309 194.66C288.302 194.664 288.295 194.667 288.288 194.671C288.104 194.764 287.915 194.843 287.722 194.907C287.307 195.044 286.873 195.112 286.418 195.112C286.368 195.112 286.319 195.111 286.269 195.109C285.749 195.091 285.254 194.973 284.783 194.755C284.58 194.654 284.391 194.535 284.216 194.4C284.199 194.387 284.182 194.373 284.165 194.36C283.916 194.16 283.696 193.925 283.505 193.656C283.393 193.487 283.296 193.304 283.216 193.108C283.208 193.088 283.2 193.068 283.192 193.047C283.15 192.938 283.113 192.824 283.08 192.706C283.012 192.456 282.965 192.189 282.941 191.902H294.473C294.477 191.86 294.481 191.816 294.485 191.77C294.491 191.711 294.497 191.65 294.502 191.586C294.504 191.562 294.506 191.538 294.508 191.514C294.51 191.493 294.512 191.472 294.514 191.451C294.52 191.376 294.526 191.299 294.532 191.219C294.533 191.215 294.533 191.212 294.533 191.209C294.572 190.935 294.592 190.66 294.592 190.386C294.592 189.89 294.552 189.406 294.473 188.936C294.443 188.759 294.407 188.584 294.367 188.411C294.298 188.123 294.215 187.84 294.115 187.563C294.047 187.372 293.972 187.184 293.889 186.998C293.836 186.879 293.78 186.76 293.72 186.643C293.685 186.573 293.648 186.503 293.611 186.433C293.569 186.356 293.527 186.28 293.484 186.204C293.313 185.909 293.125 185.628 292.919 185.362C292.849 185.271 292.776 185.182 292.702 185.095C292.685 185.075 292.667 185.055 292.65 185.035C292.479 184.839 292.298 184.651 292.105 184.472C291.703 184.097 291.254 183.76 290.757 183.461C290.47 183.285 290.168 183.13 289.852 182.995C289.79 182.968 289.727 182.943 289.664 182.918C289.642 182.909 289.62 182.901 289.598 182.892C289.584 182.887 289.57 182.881 289.555 182.876C288.589 182.513 287.494 182.332 286.269 182.332C286.25 182.332 286.23 182.332 286.21 182.332C284.948 182.338 283.818 182.544 282.822 182.948C282.817 182.951 282.811 182.953 282.806 182.955C282.79 182.961 282.774 182.968 282.758 182.975C282.624 183.031 282.492 183.091 282.362 183.154C282.152 183.257 281.949 183.369 281.752 183.491C281.271 183.781 280.832 184.108 280.437 184.472C280.227 184.664 280.029 184.868 279.844 185.081C279.827 185.1 279.81 185.12 279.793 185.139C279.692 185.258 279.594 185.38 279.5 185.505C279.268 185.815 279.057 186.144 278.869 186.493C278.611 186.977 278.404 187.483 278.248 188.01ZM289.034 187.295C289.087 187.382 289.138 187.471 289.185 187.563C289.343 187.875 289.46 188.222 289.536 188.602C289.539 188.613 289.541 188.623 289.543 188.634C289.565 188.749 289.584 188.868 289.598 188.989H282.822C282.836 188.875 282.853 188.763 282.873 188.654C282.875 188.645 282.877 188.636 282.879 188.627C282.897 188.533 282.918 188.442 282.941 188.352C282.95 188.317 282.96 188.281 282.97 188.246C283.001 188.135 283.037 188.026 283.077 187.921C283.162 187.698 283.265 187.489 283.386 187.295C283.495 187.114 283.615 186.949 283.748 186.8C283.758 186.788 283.768 186.777 283.779 186.766C284.002 186.522 284.257 186.322 284.546 186.166C284.57 186.152 284.595 186.139 284.619 186.126C285.096 185.875 285.626 185.75 286.21 185.75C286.23 185.75 286.25 185.75 286.269 185.75C286.841 185.759 287.366 185.898 287.845 186.166C288.171 186.335 288.454 186.556 288.694 186.828C288.7 186.836 288.707 186.843 288.713 186.851C288.826 186.981 288.929 187.123 289.022 187.276C289.026 187.283 289.03 187.289 289.034 187.295ZM297.715 184.213C297.693 184.236 297.671 184.26 297.65 184.284C297.494 184.455 297.352 184.636 297.222 184.828C296.938 185.256 296.731 185.725 296.604 186.237C296.543 186.481 296.501 186.735 296.476 186.998C296.463 187.132 296.455 187.268 296.451 187.406C296.45 187.458 296.45 187.51 296.45 187.563C296.45 187.769 296.461 187.966 296.483 188.155C296.554 188.763 296.741 189.279 297.044 189.703C297.091 189.766 297.14 189.827 297.192 189.888C297.342 190.063 297.515 190.229 297.711 190.386C297.78 190.441 297.851 190.495 297.925 190.548C297.945 190.562 297.965 190.576 297.985 190.59C298.035 190.624 298.085 190.657 298.137 190.69C298.303 190.797 298.482 190.898 298.673 190.994C298.723 191.02 298.775 191.045 298.827 191.07C299.156 191.226 299.52 191.384 299.917 191.544C300.009 191.581 300.101 191.617 300.196 191.654C300.302 191.696 300.411 191.737 300.522 191.778C300.599 191.807 300.677 191.836 300.757 191.865C300.797 191.88 300.837 191.895 300.878 191.91C300.924 191.926 300.97 191.943 301.017 191.96C301.024 191.962 301.03 191.964 301.037 191.966C301.281 192.054 301.535 192.141 301.799 192.229C301.83 192.237 301.86 192.245 301.89 192.253C301.894 192.254 301.898 192.256 301.902 192.257C301.933 192.265 301.963 192.273 301.993 192.281C302.039 192.294 302.085 192.307 302.13 192.319C302.164 192.328 302.197 192.338 302.23 192.347C302.242 192.35 302.254 192.354 302.265 192.357C302.371 192.387 302.474 192.417 302.572 192.446C302.6 192.454 302.628 192.463 302.655 192.471C302.677 192.478 302.699 192.484 302.721 192.491C302.787 192.511 302.851 192.531 302.913 192.551C303.046 192.593 303.17 192.634 303.286 192.675C303.362 192.7 303.434 192.726 303.503 192.753C303.55 192.771 303.595 192.79 303.638 192.808C303.697 192.834 303.752 192.859 303.804 192.886C303.862 192.915 303.917 192.945 303.967 192.975C304 192.995 304.031 193.015 304.061 193.036C304.072 193.044 304.084 193.052 304.095 193.06C304.135 193.09 304.173 193.12 304.207 193.15C304.308 193.231 304.383 193.33 304.433 193.448C304.443 193.472 304.452 193.497 304.461 193.523C304.463 193.532 304.466 193.541 304.468 193.55C304.492 193.636 304.504 193.731 304.504 193.834C304.504 193.919 304.497 193.999 304.483 194.075C304.459 194.203 304.416 194.318 304.352 194.421C304.323 194.467 304.29 194.511 304.253 194.551C304.183 194.629 304.098 194.697 303.999 194.755C303.937 194.792 303.871 194.825 303.8 194.854C303.624 194.928 303.42 194.981 303.187 195.013C303.042 195.034 302.887 195.046 302.721 195.051C302.709 195.051 302.698 195.051 302.686 195.051C302.649 195.052 302.611 195.053 302.572 195.053C302.547 195.053 302.521 195.052 302.495 195.052C302.495 195.052 302.494 195.052 302.493 195.052C302.48 195.052 302.467 195.052 302.454 195.051C302.442 195.051 302.429 195.051 302.417 195.05C302.308 195.047 302.197 195.041 302.085 195.031C301.966 195.02 301.846 195.006 301.725 194.988C301.694 194.984 301.664 194.979 301.633 194.974C301.579 194.965 301.525 194.955 301.47 194.945C301.413 194.934 301.355 194.923 301.298 194.91C301.231 194.896 301.164 194.88 301.097 194.864C301.043 194.851 300.989 194.837 300.935 194.822C300.762 194.776 300.587 194.722 300.409 194.662C300.279 194.617 300.148 194.569 300.016 194.518C300.006 194.514 299.996 194.51 299.986 194.505C299.967 194.498 299.949 194.49 299.93 194.483C299.8 194.429 299.669 194.372 299.537 194.311C299.234 194.171 298.927 194.012 298.617 193.834C298.423 193.722 298.227 193.603 298.029 193.476C297.942 193.42 297.854 193.362 297.767 193.303C297.708 193.264 297.65 193.224 297.591 193.184C297.479 193.106 297.366 193.025 297.252 192.942L295.617 195.944C295.788 196.111 295.966 196.269 296.151 196.42C296.183 196.446 296.216 196.472 296.249 196.498C296.285 196.527 296.322 196.555 296.359 196.583C296.955 197.034 297.624 197.408 298.366 197.705C298.473 197.748 298.582 197.789 298.692 197.829C298.7 197.832 298.709 197.835 298.717 197.838C298.754 197.851 298.79 197.863 298.827 197.876C299.085 197.965 299.343 198.044 299.603 198.115C299.639 198.125 299.676 198.134 299.713 198.144C299.748 198.153 299.783 198.162 299.819 198.171C299.918 198.196 300.018 198.22 300.118 198.242C300.122 198.243 300.127 198.244 300.131 198.245C300.151 198.25 300.171 198.254 300.192 198.259C300.548 198.336 300.906 198.397 301.267 198.441C301.273 198.442 301.28 198.443 301.286 198.444C301.31 198.447 301.335 198.45 301.36 198.452C301.705 198.492 302.052 198.517 302.402 198.526C302.458 198.527 302.515 198.528 302.572 198.529C302.605 198.53 302.637 198.53 302.67 198.53C302.687 198.53 302.704 198.53 302.721 198.53C303.947 198.53 305.011 198.356 305.912 198.007C306.452 197.798 306.934 197.527 307.357 197.193C307.471 197.103 307.579 197.009 307.681 196.913C307.847 196.756 307.999 196.59 308.136 196.415C308.445 196.02 308.678 195.581 308.836 195.097C308.964 194.706 309.041 194.284 309.069 193.834C309.077 193.708 309.081 193.579 309.081 193.448C309.081 192.865 308.996 192.355 308.825 191.92C308.817 191.899 308.808 191.879 308.8 191.858C308.702 191.623 308.577 191.409 308.427 191.219C308.314 191.062 308.185 190.913 308.039 190.772C307.849 190.586 307.631 190.413 307.385 190.253C307.267 190.176 307.144 190.102 307.014 190.032C306.942 189.993 306.869 189.955 306.793 189.917C306.707 189.874 306.617 189.833 306.525 189.792C306.289 189.682 306.037 189.573 305.768 189.465C305.685 189.432 305.6 189.398 305.513 189.365C305.309 189.286 305.096 189.208 304.874 189.13C304.772 189.095 304.669 189.059 304.563 189.024C304.545 189.017 304.527 189.011 304.509 189.005C304.377 188.961 304.243 188.917 304.106 188.874C304.094 188.87 304.082 188.866 304.071 188.863C304.043 188.854 304.014 188.845 303.986 188.836C303.968 188.83 303.95 188.825 303.931 188.819C303.905 188.811 303.879 188.803 303.853 188.794C303.805 188.78 303.757 188.765 303.708 188.75C303.657 188.734 303.605 188.719 303.553 188.703C303.475 188.68 303.395 188.656 303.315 188.633C303.217 188.601 303.122 188.571 303.029 188.541C303.005 188.533 302.982 188.526 302.959 188.518C302.906 188.501 302.853 188.485 302.802 188.468C302.775 188.459 302.748 188.451 302.721 188.442C302.67 188.426 302.621 188.41 302.572 188.395C302.572 188.395 302.572 188.394 302.571 188.394C302.553 188.388 302.534 188.383 302.516 188.377C302.503 188.373 302.49 188.369 302.477 188.364C302.467 188.361 302.456 188.358 302.446 188.354C302.441 188.353 302.435 188.351 302.43 188.349C302.244 188.29 302.074 188.236 301.918 188.187C301.902 188.181 301.887 188.175 301.871 188.168C301.845 188.158 301.819 188.147 301.794 188.136C301.597 188.052 301.43 187.961 301.295 187.863C301.228 187.814 301.168 187.763 301.116 187.711C301.107 187.701 301.098 187.691 301.089 187.68C301.06 187.643 301.033 187.604 301.01 187.563C300.968 187.489 300.937 187.409 300.915 187.321C300.912 187.309 300.909 187.297 300.906 187.284C300.887 187.196 300.878 187.101 300.878 186.998C300.878 186.987 300.878 186.975 300.878 186.964C300.879 186.928 300.881 186.892 300.884 186.858C300.89 186.794 300.9 186.733 300.915 186.675C300.933 186.602 300.958 186.534 300.989 186.472C300.999 186.452 301.01 186.433 301.021 186.415C301.039 186.385 301.058 186.356 301.079 186.329C301.091 186.314 301.103 186.299 301.116 186.285C301.206 186.185 301.308 186.1 301.423 186.031C301.536 185.962 301.662 185.908 301.799 185.869C301.974 185.819 302.16 185.785 302.358 185.766C302.429 185.76 302.501 185.755 302.575 185.752C302.612 185.751 302.65 185.75 302.688 185.75C302.699 185.75 302.71 185.75 302.721 185.75C302.769 185.75 302.817 185.751 302.865 185.752C302.896 185.753 302.927 185.754 302.959 185.756C302.994 185.758 303.029 185.76 303.065 185.762C303.138 185.768 303.211 185.775 303.285 185.784C303.307 185.786 303.329 185.789 303.351 185.792C303.404 185.799 303.457 185.807 303.51 185.815C303.638 185.837 303.767 185.863 303.897 185.894C303.901 185.895 303.906 185.896 303.91 185.897C303.973 185.913 304.037 185.929 304.1 185.947C304.124 185.954 304.148 185.961 304.172 185.968C304.36 186.023 304.55 186.089 304.742 186.166C304.808 186.192 304.874 186.22 304.942 186.249C304.948 186.252 304.955 186.255 304.961 186.258C305.091 186.315 305.225 186.377 305.362 186.446C305.391 186.46 305.421 186.475 305.45 186.49C305.526 186.529 305.604 186.57 305.682 186.612C305.896 186.728 306.118 186.857 306.347 186.998C306.436 187.053 306.527 187.11 306.618 187.169C306.64 187.183 306.663 187.198 306.685 187.212C306.827 187.305 306.972 187.402 307.12 187.503L308.962 184.531C308.935 184.507 308.908 184.483 308.881 184.46C308.806 184.395 308.731 184.331 308.655 184.269C308.57 184.2 308.484 184.132 308.398 184.067C307.96 183.735 307.506 183.454 307.036 183.225C306.843 183.131 306.648 183.046 306.451 182.969C306.444 182.967 306.438 182.965 306.432 182.962C306.315 182.917 306.198 182.876 306.079 182.837C306.078 182.836 306.076 182.836 306.074 182.835C306.053 182.828 306.033 182.822 306.012 182.815C305.761 182.733 305.509 182.662 305.254 182.601C305.199 182.588 305.144 182.575 305.089 182.563C305.002 182.544 304.914 182.526 304.826 182.509C304.608 182.467 304.388 182.432 304.167 182.405C304.031 182.388 303.894 182.374 303.757 182.364C303.493 182.342 303.227 182.332 302.959 182.332C302.879 182.332 302.799 182.333 302.721 182.334C302.304 182.342 301.906 182.372 301.527 182.423C301.294 182.455 301.068 182.494 300.849 182.542C300.578 182.601 300.318 182.672 300.069 182.756C299.866 182.824 299.67 182.901 299.481 182.986C299.027 183.19 298.62 183.433 298.261 183.715C298.254 183.72 298.248 183.725 298.242 183.73C298.081 183.858 297.93 183.994 297.788 184.137C297.763 184.162 297.739 184.188 297.715 184.213ZM310.541 196.087C310.49 196.04 310.44 195.992 310.391 195.944L312.026 192.942C312.133 193.021 312.241 193.097 312.348 193.172C312.412 193.216 312.476 193.26 312.54 193.303C312.613 193.352 312.686 193.4 312.759 193.448C312.774 193.457 312.789 193.467 312.803 193.476C313 193.603 313.196 193.722 313.391 193.834C313.701 194.012 314.007 194.171 314.31 194.311C314.442 194.372 314.573 194.429 314.704 194.483C314.722 194.49 314.741 194.498 314.76 194.505C314.77 194.51 314.78 194.514 314.79 194.518C314.922 194.569 315.053 194.617 315.183 194.662C315.361 194.722 315.536 194.776 315.709 194.822C315.763 194.837 315.817 194.851 315.871 194.864C315.938 194.88 316.005 194.896 316.071 194.91C316.129 194.923 316.187 194.934 316.244 194.945C316.304 194.956 316.365 194.967 316.424 194.977C316.571 195 316.716 195.018 316.859 195.031C316.983 195.042 317.106 195.049 317.227 195.051C317.241 195.052 317.254 195.052 317.267 195.052C317.268 195.052 317.268 195.052 317.269 195.052C317.295 195.052 317.32 195.053 317.346 195.053C317.384 195.053 317.422 195.052 317.46 195.051C317.471 195.051 317.483 195.051 317.494 195.051C317.661 195.046 317.816 195.034 317.961 195.013C318.194 194.981 318.398 194.928 318.574 194.854C318.645 194.825 318.711 194.792 318.773 194.755C318.872 194.697 318.957 194.629 319.027 194.551C319.064 194.511 319.097 194.467 319.126 194.421C319.189 194.318 319.233 194.203 319.257 194.075C319.271 193.999 319.278 193.919 319.278 193.834C319.278 193.731 319.266 193.636 319.242 193.55C319.24 193.541 319.237 193.532 319.234 193.523C319.226 193.497 319.217 193.472 319.207 193.448C319.157 193.33 319.082 193.231 318.981 193.15C318.946 193.12 318.909 193.09 318.869 193.06C318.857 193.052 318.846 193.044 318.834 193.036C318.805 193.015 318.774 192.995 318.741 192.975C318.69 192.945 318.636 192.915 318.578 192.886C318.487 192.84 318.386 192.796 318.277 192.753C318.208 192.726 318.135 192.7 318.059 192.675C317.889 192.615 317.701 192.554 317.494 192.491C317.473 192.484 317.451 192.478 317.429 192.471C317.401 192.463 317.374 192.454 317.346 192.446C317.247 192.417 317.145 192.387 317.039 192.357C317.027 192.354 317.015 192.35 317.003 192.347C316.971 192.338 316.937 192.328 316.904 192.319C316.859 192.307 316.813 192.294 316.767 192.281C316.703 192.264 316.639 192.247 316.573 192.229C316.532 192.215 316.49 192.201 316.449 192.188C316.229 192.114 316.016 192.04 315.81 191.966C315.804 191.964 315.797 191.962 315.791 191.96C315.744 191.943 315.698 191.926 315.652 191.91C315.611 191.895 315.571 191.88 315.53 191.865C315.451 191.836 315.373 191.807 315.295 191.778C315.086 191.7 314.884 191.622 314.691 191.544C314.309 191.391 313.959 191.239 313.64 191.088C313.627 191.082 313.614 191.076 313.601 191.07C313.549 191.045 313.497 191.02 313.446 190.994C313.255 190.898 313.077 190.797 312.911 190.69C312.859 190.657 312.808 190.624 312.759 190.59C312.739 190.576 312.719 190.562 312.699 190.548C312.339 190.292 312.046 190.011 311.818 189.703C311.671 189.498 311.552 189.271 311.46 189.023C311.442 188.975 311.425 188.926 311.409 188.876C311.285 188.488 311.223 188.05 311.223 187.563C311.223 187.37 311.232 187.182 311.249 186.998C311.28 186.67 311.339 186.357 311.426 186.059C311.555 185.616 311.745 185.205 311.996 184.828C312.058 184.736 312.124 184.646 312.192 184.558C312.307 184.411 312.43 184.271 312.562 184.137C312.703 183.994 312.855 183.858 313.016 183.73C313.022 183.725 313.028 183.72 313.034 183.715C313.393 183.433 313.8 183.19 314.255 182.986C314.675 182.797 315.131 182.649 315.623 182.542C315.842 182.494 316.067 182.455 316.3 182.423C316.68 182.372 317.078 182.342 317.494 182.334C317.553 182.333 317.613 182.332 317.672 182.332C317.692 182.332 317.712 182.332 317.732 182.332C318 182.332 318.267 182.342 318.531 182.364C318.668 182.374 318.805 182.388 318.941 182.405C319.251 182.443 319.558 182.496 319.863 182.563C319.918 182.575 319.973 182.588 320.028 182.601C320.282 182.662 320.535 182.733 320.786 182.815C320.807 182.822 320.827 182.828 320.848 182.835C320.85 182.836 320.851 182.836 320.853 182.837C320.971 182.876 321.089 182.917 321.205 182.962C321.212 182.965 321.218 182.967 321.224 182.969C321.422 183.046 321.617 183.131 321.81 183.225C322.454 183.539 323.069 183.951 323.655 184.46C323.682 184.483 323.709 184.507 323.736 184.531L321.893 187.503C321.722 187.386 321.555 187.274 321.392 187.169C321.3 187.11 321.21 187.053 321.121 186.998C320.892 186.857 320.67 186.728 320.456 186.612C320.377 186.57 320.3 186.529 320.224 186.49C320.194 186.475 320.165 186.46 320.136 186.446C319.999 186.377 319.865 186.315 319.735 186.258C319.728 186.255 319.722 186.252 319.716 186.249C319.648 186.22 319.581 186.192 319.516 186.166C319.324 186.089 319.134 186.023 318.946 185.968C318.922 185.961 318.898 185.954 318.874 185.947C318.81 185.929 318.747 185.913 318.684 185.897C318.549 185.865 318.416 185.837 318.283 185.815C318.231 185.807 318.178 185.799 318.125 185.792C318.103 185.789 318.081 185.786 318.058 185.784C317.985 185.775 317.912 185.768 317.838 185.762C317.803 185.76 317.768 185.758 317.732 185.756C317.701 185.754 317.67 185.753 317.639 185.752C317.591 185.751 317.543 185.75 317.494 185.75C317.483 185.75 317.473 185.75 317.462 185.75C317.423 185.75 317.386 185.751 317.348 185.752C317.275 185.755 317.203 185.76 317.132 185.766C317.061 185.773 316.991 185.781 316.923 185.792C316.802 185.811 316.685 185.837 316.573 185.869C316.296 185.948 316.068 186.087 315.89 186.285C315.877 186.299 315.865 186.314 315.853 186.329C315.832 186.356 315.812 186.385 315.794 186.415C315.783 186.433 315.773 186.452 315.763 186.472C315.731 186.534 315.707 186.602 315.688 186.675C315.674 186.733 315.664 186.794 315.658 186.858C315.655 186.892 315.653 186.928 315.652 186.964C315.652 186.975 315.652 186.987 315.652 186.998C315.652 187.101 315.661 187.196 315.68 187.284C315.683 187.297 315.685 187.309 315.688 187.321C315.71 187.409 315.742 187.489 315.783 187.563C315.79 187.574 315.797 187.586 315.804 187.597C315.822 187.626 315.842 187.654 315.863 187.68C315.872 187.691 315.88 187.701 315.89 187.711C315.942 187.763 316.001 187.814 316.069 187.863C316.204 187.961 316.37 188.052 316.567 188.136C316.608 188.153 316.649 188.17 316.692 188.187C316.847 188.236 317.018 188.29 317.204 188.349C317.209 188.351 317.214 188.353 317.22 188.354C317.23 188.358 317.241 188.361 317.251 188.364C317.264 188.369 317.277 188.373 317.29 188.377C317.308 188.383 317.326 188.388 317.345 188.394C317.345 188.394 317.346 188.395 317.346 188.395C317.394 188.41 317.444 188.426 317.494 188.442C317.521 188.451 317.549 188.459 317.576 188.468C317.627 188.485 317.679 188.501 317.732 188.518C317.756 188.526 317.779 188.533 317.803 188.541C317.895 188.571 317.991 188.601 318.089 188.633C318.169 188.656 318.248 188.68 318.327 188.703C318.379 188.719 318.431 188.734 318.482 188.75C318.557 188.773 318.632 188.796 318.705 188.819C318.723 188.825 318.741 188.83 318.76 188.836C318.788 188.845 318.816 188.854 318.844 188.863C318.856 188.866 318.868 188.87 318.879 188.874C319.017 188.917 319.151 188.961 319.282 189.005C319.301 189.011 319.319 189.017 319.337 189.024C319.443 189.059 319.546 189.095 319.648 189.13C319.964 189.241 320.262 189.353 320.542 189.465C320.811 189.573 321.063 189.682 321.299 189.792C321.391 189.833 321.48 189.874 321.567 189.917C321.642 189.955 321.716 189.993 321.787 190.032C321.917 190.102 322.041 190.176 322.158 190.253C322.592 190.535 322.94 190.857 323.201 191.219C323.637 191.773 323.855 192.516 323.855 193.448C323.855 193.579 323.851 193.708 323.843 193.834C323.765 195.086 323.302 196.112 322.455 196.913C322.352 197.009 322.244 197.103 322.131 197.193C321.708 197.527 321.226 197.798 320.685 198.007C319.784 198.356 318.721 198.53 317.494 198.53C317.478 198.53 317.461 198.53 317.444 198.53C317.411 198.53 317.378 198.53 317.346 198.529C316.939 198.524 316.535 198.499 316.133 198.452C316.103 198.449 316.072 198.445 316.041 198.441C315.873 198.421 315.705 198.396 315.537 198.369C315.346 198.337 315.155 198.3 314.965 198.259C314.945 198.254 314.925 198.25 314.905 198.245C314.8 198.222 314.696 198.197 314.592 198.171C314.557 198.162 314.522 198.153 314.486 198.144C314.45 198.134 314.413 198.125 314.377 198.115C314.117 198.044 313.858 197.965 313.601 197.876C313.564 197.863 313.527 197.851 313.491 197.838C313.482 197.835 313.474 197.832 313.465 197.829C313.355 197.789 313.247 197.748 313.14 197.705C312.513 197.454 311.939 197.149 311.417 196.788C311.282 196.695 311.15 196.598 311.023 196.498C310.856 196.367 310.695 196.23 310.541 196.087Z" fill="#00590E"/>
</svg>
