<svg width="189" height="57" viewBox="0 0 189 57" fill="none" xmlns="http://www.w3.org/2000/svg">
<rect y="0.63208" width="189" height="56" rx="8.8493" fill="black"/>
<path d="M80.9528 38.9425C83.4814 38.289 85.1479 36.3336 85.1479 33.7774C85.1479 30.615 82.6402 28.3909 79.1233 28.3909H72.8569V45.4097H75.7483V39.1534H77.7985L82.2827 45.4097H85.6789L80.9528 38.9373V38.9425ZM79.1233 31.0472C80.9317 31.0472 82.1829 32.1592 82.1829 33.7774C82.1829 35.3955 80.9317 36.5075 79.1233 36.5075H75.7483V31.0525H79.1233V31.0472Z" fill="white"/>
<path d="M92.186 45.6519C93.7053 45.6519 95.1038 44.856 95.8975 43.5278L96.4495 45.4094H98.5208V32.8547H95.7503V40.123C95.7503 41.9097 94.5676 43.1641 92.9536 43.1641C91.3397 43.1641 90.2568 41.9097 90.2568 40.123V32.8547H87.4863V40.4339C87.4863 43.454 89.5103 45.6519 92.186 45.6519Z" fill="white"/>
<path d="M107.373 45.651C110.58 45.651 113.229 43.8169 113.229 40.7757C113.229 37.3709 110.459 36.3801 108.072 35.5579C106.217 34.9307 104.603 34.3508 104.603 32.8276C104.603 31.4994 105.833 30.7984 107.278 30.7984C108.798 30.7984 109.881 31.5943 110.485 32.9488L113.235 32.4903C112.367 29.834 110.175 28.1421 107.184 28.1421C104.193 28.1421 101.643 29.9288 101.643 32.97C101.643 36.4011 104.413 37.3392 106.8 38.1351C108.63 38.736 110.27 39.3158 110.27 40.8653C110.27 42.2199 109.04 42.9894 107.399 42.9894C105.517 42.9894 104.508 42.0987 103.614 40.4806L100.818 40.9655C101.638 43.8379 104.24 45.651 107.373 45.651Z" fill="white"/>
<path d="M120.761 42.996C119.82 42.996 119.362 42.5375 119.362 41.594V35.2692H123.1V32.8553H119.362V29.2344H117.291L116.592 32.8553H114.542V35.2692H116.592V41.594C116.592 44.0553 118.011 45.41 120.761 45.41H123.1L123.342 42.996H120.761Z" fill="white"/>
<path d="M131.265 45.6523C135.192 45.6523 137.962 42.9484 137.962 39.1325C137.962 35.3166 135.192 32.6128 131.265 32.6128C127.338 32.6128 124.567 35.3166 124.567 39.1325C124.567 42.9484 127.338 45.6523 131.265 45.6523ZM131.265 43.1171C128.999 43.1171 127.459 41.499 127.459 39.1325C127.459 36.766 128.999 35.1479 131.265 35.1479C133.531 35.1479 135.071 36.766 135.071 39.1325C135.071 41.499 133.531 43.1171 131.265 43.1171Z" fill="white"/>
<path d="M143.145 45.4094V37.9989C143.145 36.4072 143.918 35.5112 145.606 35.5112H147.199L146.957 32.8547H146.426C144.954 32.8547 143.824 33.2659 142.977 34.6679L142.446 32.8547H140.375V45.4094H143.145Z" fill="white"/>
<path d="M160.832 38.9888C160.832 35.368 158.135 32.6167 154.324 32.6167C150.512 32.6167 147.815 35.3468 147.815 39.1365C147.815 42.926 150.512 45.6562 154.324 45.6562C156.926 45.6562 159.386 44.4229 160.322 42.0352L157.719 41.5978C157.114 42.4938 155.958 43.121 154.492 43.121C152.373 43.121 150.975 41.8192 150.707 39.8848H160.779C160.805 39.6213 160.826 39.3314 160.826 38.9888M154.318 35.0306C156.053 35.0306 157.357 36.1427 157.814 37.7081H150.875C151.332 36.09 152.636 35.0306 154.324 35.0306" fill="white"/>
<path d="M30.5296 43.0718C32.8869 45.432 36.6761 45.432 44.2601 45.432H45.5981C53.1821 45.432 56.9714 45.432 59.3286 43.0718C61.6859 40.7115 61.6859 36.9088 61.6859 29.3035V27.9606C61.6859 20.3552 61.6859 16.5526 59.3286 14.1923C56.9714 11.832 53.1768 11.832 45.5981 11.832H44.2601C36.6761 11.832 32.8816 11.832 30.5296 14.1923C28.1724 16.5579 28.1724 20.3606 28.1724 27.9606V29.3035C28.1724 36.9088 28.1724 40.7115 30.5296 43.0718Z" fill="#0077FF"/>
<path fill-rule="evenodd" clip-rule="evenodd" d="M54.0445 34.1661L51.7814 33.5996C51.5096 33.5209 51.3162 33.2744 51.3058 32.9912L51.0236 24.6357C50.9399 23.529 50.1246 22.6478 49.2673 22.3908C49.2202 22.3751 49.168 22.3908 49.1419 22.438C49.1105 22.48 49.1263 22.5377 49.1629 22.5692C49.3719 22.7317 49.9573 23.2668 49.9573 24.1899V35.1154C49.9573 36.1696 48.959 36.9459 47.9346 36.6889L45.6347 36.1119C45.3786 36.0227 45.201 35.7867 45.1957 35.5088L44.9135 27.1533C44.8298 26.0466 44.0145 25.1655 43.1574 24.9084C43.1103 24.8927 43.0581 24.9084 43.0318 24.9556C43.0006 24.9976 43.0162 25.0553 43.0528 25.0868C43.2618 25.2493 43.8472 25.7844 43.8472 26.7076V35.813V37.633C43.8472 38.6872 42.8542 39.4635 41.8298 39.2065L35.3382 37.5805C34.4339 37.355 33.8015 36.542 33.8015 35.6137V24.6724C33.8015 23.6182 34.7946 22.8419 35.819 23.0989L39.9116 24.1218V22.1496C39.9116 21.0952 40.9046 20.3189 41.9291 20.576L46.0215 21.5988V19.6266C46.0215 18.5724 47.0146 17.7961 48.039 18.0532L54.5306 19.6791C55.4348 19.9047 56.0672 20.7177 56.0672 21.646V32.5873C56.0672 33.6415 55.0742 34.4178 54.0497 34.1607" fill="white"/>
<path d="M76.8098 20.3525C76.0162 20.3525 75.3028 20.1677 74.6695 19.7979C74.0364 19.4202 73.5394 18.8979 73.1786 18.2309C72.826 17.5638 72.6497 16.8124 72.6497 15.9766C72.6497 15.1408 72.826 14.3934 73.1786 13.7344C73.5394 13.0674 74.0324 12.549 74.6575 12.1794C75.2908 11.8017 76.0042 11.6128 76.7978 11.6128C77.6555 11.6128 78.4171 11.8298 79.0823 12.2638C79.7556 12.6897 80.2366 13.2683 80.5252 13.9996L79.2987 14.1925C79.0743 13.7425 78.7417 13.3929 78.3007 13.1437C77.868 12.8866 77.379 12.758 76.8338 12.758C76.2728 12.758 75.7717 12.8946 75.3309 13.1679C74.898 13.4411 74.5574 13.8228 74.3089 14.3131C74.0684 14.7953 73.9482 15.3497 73.9482 15.9766C73.9482 16.6115 74.0684 17.174 74.3089 17.6643C74.5574 18.1465 74.9021 18.5242 75.3429 18.7975C75.7839 19.0706 76.2888 19.2073 76.858 19.2073C77.4191 19.2073 77.916 19.0787 78.3489 18.8216C78.7898 18.5564 79.1264 18.1867 79.3589 17.7125L80.5852 17.9054C80.2807 18.6527 79.7878 19.2474 79.1063 19.6894C78.425 20.1315 77.6595 20.3525 76.8098 20.3525Z" fill="white"/>
<path d="M86.9831 20.232H85.432L83.1354 17.6524H82.7628V20.232H81.5845V13.9998H82.7628V16.5192H83.1234L85.3237 13.9998H86.7426L84.0733 17.0134L86.9831 20.232Z" fill="white"/>
<path d="M89.9073 13.8794C90.6768 13.8794 91.282 14.1325 91.7229 14.6388C92.1717 15.1371 92.3962 15.8362 92.3962 16.7364V20.2322H91.5545L91.2781 19.2559C91.0777 19.5692 90.8091 19.8304 90.4725 20.0395C90.1358 20.2483 89.731 20.3528 89.258 20.3528C88.8412 20.3528 88.4685 20.2685 88.1398 20.0997C87.8112 19.931 87.5547 19.6979 87.3702 19.4005C87.1859 19.0952 87.0938 18.7536 87.0938 18.3758C87.0938 17.7891 87.3263 17.319 87.7911 16.9655C88.256 16.6118 88.9293 16.435 89.8111 16.435H91.2179C91.1858 15.9447 91.0496 15.567 90.8091 15.3019C90.5685 15.0286 90.2479 14.8919 89.8472 14.8919C89.5426 14.8919 89.2741 14.9643 89.0416 15.1089C88.8091 15.2537 88.6327 15.4426 88.5125 15.6755L87.4184 15.4948C87.5787 14.9965 87.8873 14.6027 88.3442 14.3134C88.8011 14.0241 89.3221 13.8794 89.9073 13.8794ZM89.5105 19.3523C90.0156 19.3523 90.4243 19.1876 90.7369 18.858C91.0576 18.5205 91.2179 18.0585 91.2179 17.4717V17.3993H89.8472C88.8052 17.3993 88.284 17.7128 88.284 18.3397C88.284 18.6451 88.3963 18.8902 88.6207 19.075C88.8453 19.2598 89.1418 19.3523 89.5105 19.3523Z" fill="white"/>
<path d="M97.1322 17.9657C96.9399 18.0542 96.7114 18.1225 96.4468 18.1707C96.1823 18.219 95.9218 18.2431 95.6654 18.2431C94.9199 18.2431 94.3468 18.034 93.9459 17.6161C93.5451 17.1982 93.3447 16.6076 93.3447 15.8442V13.9998H94.523V15.8442C94.523 16.7362 94.952 17.1823 95.8096 17.1823C96.3306 17.1823 96.7715 17.0897 97.1322 16.9049V13.9998H98.3106V20.232H97.1322V17.9657Z" fill="white"/>
<path d="M102.267 13.8794C103.037 13.8794 103.642 14.1325 104.083 14.6388C104.532 15.1371 104.756 15.8362 104.756 16.7364V20.2322H103.915L103.638 19.2559C103.438 19.5692 103.169 19.8304 102.832 20.0395C102.496 20.2483 102.091 20.3528 101.618 20.3528C101.201 20.3528 100.828 20.2685 100.5 20.0997C100.171 19.931 99.9147 19.6979 99.7303 19.4005C99.546 19.0952 99.4539 18.7536 99.4539 18.3758C99.4539 17.7891 99.6862 17.319 100.151 16.9655C100.616 16.6118 101.289 16.435 102.171 16.435H103.578C103.546 15.9447 103.41 15.567 103.169 15.3019C102.929 15.0286 102.608 14.8919 102.207 14.8919C101.903 14.8919 101.634 14.9643 101.402 15.1089C101.169 15.2537 100.993 15.4426 100.873 15.6755L99.7784 15.4948C99.9388 14.9965 100.247 14.6027 100.704 14.3134C101.161 14.0241 101.682 13.8794 102.267 13.8794ZM101.871 19.3523C102.376 19.3523 102.784 19.1876 103.097 18.858C103.418 18.5205 103.578 18.0585 103.578 17.4717V17.3993H102.207C101.165 17.3993 100.644 17.7128 100.644 18.3397C100.644 18.6451 100.756 18.8902 100.981 19.075C101.205 19.2598 101.502 19.3523 101.871 19.3523Z" fill="white"/>
<path d="M107.928 20.2321H106.185V13.9998H107.327V18.9061H107.508L110.021 13.9998H111.764V20.2321H110.622V15.3378H110.441L107.928 20.2321ZM108.987 13.1921C108.466 13.1921 108.029 13.0555 107.676 12.7823C107.331 12.501 107.127 12.0831 107.063 11.5286H108.025C108.065 11.7857 108.165 11.9826 108.325 12.1193C108.494 12.2478 108.714 12.3121 108.987 12.3121C109.259 12.3121 109.476 12.2478 109.636 12.1193C109.804 11.9826 109.904 11.7857 109.936 11.5286H110.91C110.838 12.0831 110.626 12.501 110.273 12.7823C109.929 13.0555 109.5 13.1921 108.987 13.1921Z" fill="white"/>
<path d="M115.985 20.232H114.807V15.0847H112.654V13.9998H118.137V15.0847H115.985V20.232Z" fill="white"/>
<path d="M124.82 17.074C124.82 17.2347 124.816 17.3591 124.808 17.4476H119.674C119.738 18.0022 119.954 18.4442 120.323 18.7736C120.692 19.1031 121.161 19.2679 121.73 19.2679C122.123 19.2679 122.471 19.1915 122.776 19.0389C123.088 18.8782 123.325 18.6691 123.485 18.4119L124.591 18.5928C124.351 19.1554 123.962 19.5894 123.425 19.8947C122.896 20.2002 122.307 20.3528 121.658 20.3528C121.041 20.3528 120.487 20.2161 119.998 19.943C119.509 19.6617 119.129 19.2759 118.856 18.7858C118.584 18.2955 118.447 17.7409 118.447 17.1221C118.447 16.4953 118.584 15.9368 118.856 15.4465C119.129 14.9563 119.505 14.5746 119.986 14.3013C120.467 14.02 121.016 13.8794 121.634 13.8794C122.243 13.8794 122.788 14.02 123.269 14.3013C123.758 14.5746 124.139 14.9563 124.411 15.4465C124.684 15.9288 124.82 16.4711 124.82 17.074ZM121.634 14.9282C121.161 14.9282 120.752 15.0688 120.407 15.35C120.071 15.6314 119.846 16.0091 119.734 16.4832H123.533C123.429 16.0171 123.205 15.6435 122.86 15.3622C122.523 15.0728 122.115 14.9282 121.634 14.9282Z" fill="white"/>
<path d="M130.107 20.232H128.364V13.9998H129.506V18.9061H129.686L132.199 13.9998H133.943V20.232H132.8V15.3378H132.62L130.107 20.232Z" fill="white"/>
<path d="M138.831 17.0498C139.16 17.1462 139.432 17.323 139.649 17.5802C139.865 17.8294 139.974 18.1388 139.974 18.5084C139.974 18.8539 139.873 19.1674 139.673 19.4487C139.473 19.7219 139.184 19.943 138.807 20.1117C138.438 20.2724 138.01 20.3528 137.521 20.3528C136.863 20.3528 136.298 20.2002 135.825 19.8947C135.352 19.5814 135.04 19.1635 134.887 18.641L135.982 18.4603C136.246 19.0389 136.755 19.3281 137.509 19.3281C137.925 19.3281 138.242 19.2518 138.459 19.0991C138.683 18.9384 138.795 18.7174 138.795 18.436C138.795 18.187 138.691 17.9861 138.483 17.8333C138.282 17.6807 137.958 17.6043 137.509 17.6043H136.691V16.5676H137.509C137.893 16.5676 138.186 16.4954 138.386 16.3506C138.595 16.206 138.699 16.0131 138.699 15.772C138.699 15.5148 138.587 15.3059 138.362 15.1452C138.146 14.9845 137.877 14.9041 137.557 14.9041C137.244 14.9041 136.964 14.9804 136.715 15.1331C136.467 15.2857 136.278 15.4948 136.15 15.7599L135.056 15.567C135.24 15.0286 135.557 14.6147 136.006 14.3254C136.463 14.0281 136.992 13.8794 137.593 13.8794C138.026 13.8794 138.414 13.9557 138.759 14.1084C139.112 14.2611 139.384 14.4741 139.577 14.7473C139.777 15.0206 139.877 15.3259 139.877 15.6635C139.877 16.0091 139.781 16.3024 139.589 16.5435C139.396 16.7846 139.144 16.9534 138.831 17.0498Z" fill="white"/>
</svg>
