<svg width="372" height="218" viewBox="0 0 372 218" fill="none" xmlns="http://www.w3.org/2000/svg">
<path d="M56.9872 177.046L54.1685 151.734C64.5736 145.852 67.95 151.731 72.1665 141.913L73.8199 156.733C77.2003 178.951 104.087 177.747 127.018 168.056L129.79 159.559C144.7 175.306 170.013 172.5 182.947 157.591C189.803 167.47 199.056 169.778 220.112 165.221L221.233 154.498L230.514 154.496C228.549 171.934 250.621 175.068 265.917 171.091C267.602 159.841 268.485 162.081 269.89 154.486C283.109 154.483 286.436 156.056 290.136 146.059C281.426 180.656 294.774 183.717 324.742 183.747L333.734 152.552L366.633 119.638C385.189 87.8517 347.778 71.2398 327.251 93.4908C327.247 75.7717 315.712 60.5867 290.119 67.6243C277.877 50.0466 290.822 26.6972 284.763 8.80106C242.573 0.936108 246.792 2.06011 240.325 8.81179C240.325 8.81179 232.728 -4.40508 212.199 5.44379C207.982 16.1321 208.825 13.6007 203.766 24.8521C196.731 10.5098 199.933 1.76336 188.291 0.949182C172.259 -0.171968 173.106 13.6093 173.106 13.6093C168.884 -0.452385 152.42 -3.58697 135.416 5.7433L126.985 32.1833C128.529 11.2802 118.605 5.12958 95.1966 5.75301C67.4343 9.67199 69.3259 25.7283 75.2416 64.5401L21.805 71.8656C5.81652 75.5979 1.48963 82.4304 0.999349 101.965L10.0142 162.995C11.9875 181.557 23.5767 191.859 56.9872 177.046Z" fill="black"/>
<path fill-rule="evenodd" clip-rule="evenodd" d="M317.685 168.483L315.542 168.328C314.35 168.242 312.71 167.964 310.706 167.54C308.679 167.123 306.661 166.56 304.652 165.854C300.242 164.303 296.653 162.225 294.997 159.192C293.297 156.078 293.681 152.228 295.079 148.252L300.307 133.386C299.301 129.755 298.28 125.727 297.244 121.303L297.241 121.29L297.238 121.277C296.152 116.429 295.121 111.553 294.147 106.652L294.144 106.64L294.142 106.627C293.195 101.634 292.37 96.8199 291.666 92.1843L291.662 92.161L291.659 92.1377C291.035 87.5053 290.66 83.4348 290.546 79.9395L290.496 78.4105L291.752 77.5376C293.661 76.2118 295.893 75.2376 298.396 74.5713L298.423 74.5639L298.451 74.557C301.411 73.8336 304.499 74.1155 307.629 75.2161C311.178 76.4642 314.075 78.2974 316.022 80.876C318.064 83.5009 319.219 87.2359 319.782 91.6971L319.783 91.7034L322.344 112.382C323.067 111.592 323.761 110.822 324.426 110.072L324.455 110.039L324.485 110.006C326.233 108.154 327.94 106.288 329.606 104.408C331.313 102.432 333.035 100.414 334.771 98.3557L334.798 98.3236L334.826 98.2924C336.64 96.2678 338.64 93.9812 340.827 91.4316L341.534 90.6082L342.61 90.4724C344.603 90.2209 346.683 90.2287 348.838 90.477C350.979 90.7236 352.99 91.1683 354.86 91.8258C358.232 93.0115 360.927 94.9945 362.74 97.8392C364.869 100.932 365.045 104.526 363.748 108.214C363.248 109.637 362.276 111.135 361.061 112.657C359.852 114.258 357.81 116.358 355.069 118.902C352.379 121.449 348.708 124.698 344.073 128.638C339.554 132.48 333.746 137.261 326.654 142.977L317.685 168.483Z" fill="white"/>
<path fill-rule="evenodd" clip-rule="evenodd" d="M67.8282 73.3163L68.8369 74.4852C69.8129 75.6162 70.6429 77.0431 71.367 78.6699C72.2481 80.436 72.8282 82.3637 73.1304 84.4291C73.6579 88.0358 73.3451 91.4143 71.4625 93.9686C69.7575 96.387 67.2003 97.717 64.1815 98.1586L39.6137 101.752L40.9523 110.904L68.2199 106.915L69.2286 108.084C70.1732 109.179 71.0379 110.564 71.8454 112.163C72.7464 113.882 73.3292 115.8 73.6333 117.879C74.1632 121.502 73.8452 124.894 71.9397 127.453C70.2073 129.779 67.6488 131.041 64.6653 131.478L44.656 134.405L48.6368 161.619L46.6679 162.478C45.5669 162.959 43.9762 163.477 41.9926 164.037C39.9127 164.623 37.772 165.077 35.5719 165.399C30.834 166.092 26.6308 165.922 23.682 164.059L23.6533 164.041L23.625 164.022C20.6411 162.035 19.1892 158.319 18.558 154.004L10.2136 96.958C9.5844 92.6564 10.3096 88.7497 12.7014 85.5382C15.0933 82.3268 18.6286 80.513 22.9302 79.8838L67.8282 73.3163Z" fill="white"/>
<path fill-rule="evenodd" clip-rule="evenodd" d="M73.3115 98.6477L75.5962 97.9718C76.3957 97.7353 77.5285 97.4288 78.976 97.0555C80.5669 96.5761 82.1792 96.2352 83.8114 96.0343C87.2318 95.6132 90.4087 95.786 92.7876 97.1971C95.5134 98.814 96.6516 102.016 97.0707 105.421L101.463 141.098L122.45 138.514L123.432 139.706C124.169 140.6 124.82 141.707 125.41 142.947C126.085 144.366 126.511 145.901 126.712 147.529C127.047 150.256 126.786 152.908 125.338 155.005C123.913 157.069 121.776 158.17 119.308 158.473L93.0795 161.703C89.725 162.116 86.6295 161.487 84.1003 159.513C81.571 157.538 80.2108 154.687 79.7978 151.333L73.3115 98.6477Z" fill="white"/>
<path fill-rule="evenodd" clip-rule="evenodd" d="M133.739 152.487L133.722 152.472C131.158 150.309 129.14 147.693 127.679 144.649L127.663 144.615L127.647 144.58C126.254 141.463 125.504 138.049 125.358 134.374L123.83 95.9782L126.163 95.4934C126.944 95.3312 128.046 95.129 129.451 94.8883C131.007 94.5568 132.573 94.3591 134.148 94.2964C137.441 94.1654 140.484 94.579 142.67 96.1335C145.185 97.9218 146.018 101.11 146.148 104.39L147.295 133.221C147.393 135.677 148.104 137.204 149.117 138.186C150.255 139.227 151.678 139.764 153.616 139.687C155.565 139.609 156.891 138.958 157.87 137.856L157.887 137.837L157.905 137.817C158.89 136.751 159.499 135.182 159.402 132.739L157.886 94.6235L160.219 94.1387C160.999 93.9765 162.101 93.7743 163.506 93.5336C165.063 93.2021 166.629 93.0043 168.203 92.9417C171.497 92.8107 174.54 93.2242 176.726 94.7788C179.241 96.5671 180.073 99.7548 180.204 103.035L181.362 132.146C181.509 135.835 180.997 139.312 179.784 142.541C178.632 145.706 176.853 148.485 174.462 150.852L174.446 150.867L174.43 150.883C172.028 153.188 169.113 154.974 165.741 156.272C162.337 157.583 158.531 158.297 154.362 158.463C150.194 158.629 146.344 158.219 142.846 157.183C139.381 156.156 136.334 154.607 133.756 152.501L133.739 152.487Z" fill="white"/>
<path fill-rule="evenodd" clip-rule="evenodd" d="M234.758 94.2086L235.562 95.5267C236.184 96.5467 236.639 97.7557 236.981 99.0665C237.432 100.538 237.629 102.087 237.598 103.694C237.545 106.471 236.889 109.127 235.011 110.957C233.307 112.682 231.074 113.391 228.663 113.345L211.043 113.009L210.941 118.379L230.98 118.761L231.784 120.08C232.382 121.059 232.866 122.233 233.272 123.529C233.749 124.98 233.95 126.532 233.919 128.152C233.866 130.944 233.204 133.613 231.302 135.444C229.585 137.097 227.361 137.75 224.987 137.705L210.772 137.434L210.387 157.591L208.304 158.117C207.392 158.347 206.128 158.537 204.607 158.706C202.987 158.886 201.339 158.959 199.665 158.927C196.089 158.859 192.813 158.225 190.681 156.326L190.656 156.304L190.631 156.28C188.462 154.252 187.852 151.097 187.915 147.811L188.728 105.195C188.792 101.832 189.846 98.8688 192.148 96.6528C194.45 94.4367 197.452 93.4967 200.815 93.5609L234.758 94.2086Z" fill="white"/>
<path fill-rule="evenodd" clip-rule="evenodd" d="M288.797 98.4866L289.505 99.8585C290.067 100.946 290.445 102.218 290.701 103.591C291.056 105.133 291.145 106.737 290.996 108.384C290.738 111.235 289.871 113.898 287.826 115.624C285.964 117.258 283.635 117.822 281.171 117.599L262.913 115.948L262.395 121.677L283.093 123.549L283.801 124.921C284.341 125.967 284.752 127.206 285.075 128.569C285.458 130.089 285.551 131.694 285.401 133.356C285.142 136.222 284.267 138.898 282.198 140.623C280.329 142.182 278.013 142.689 275.585 142.47L260.838 141.136L258.956 161.934L256.841 162.311C255.89 162.48 254.577 162.583 252.996 162.645C251.315 162.712 249.613 162.666 247.891 162.51C244.211 162.178 240.907 161.285 238.872 159.195L238.848 159.171L238.825 159.146C236.764 156.924 236.364 153.658 236.67 150.28L240.642 106.358C240.954 102.911 242.251 99.9567 244.766 97.8588C247.281 95.761 250.42 95.0156 253.866 95.3273L288.797 98.4866Z" fill="white"/>
<ellipse cx="325.367" cy="23.7078" rx="4.99451" ry="6.1584" transform="rotate(30.3182 325.367 23.7078)" fill="black"/>
<ellipse cx="339.236" cy="19.7793" rx="4.99451" ry="6.5433" transform="rotate(30.3182 339.236 19.7793)" fill="black"/>
<ellipse rx="4.99465" ry="6.54313" transform="matrix(0.796743 0.604318 -0.603972 0.797006 349.549 26.4475)" fill="black"/>
<ellipse rx="4.99465" ry="6.0157" transform="matrix(0.796743 0.604318 -0.603972 0.797006 353.33 39.6449)" fill="black"/>
<path d="M328.197 47.8197C325.081 47.7574 318.765 47.1849 316.808 43.6718C312.066 35.1616 331.279 26.2736 339.685 31.1888C347.313 35.6492 348.857 55.2023 339.943 55.8631C334.593 56.2597 331.782 51.9233 330.623 49.4515C330.182 48.5098 329.237 47.8405 328.197 47.8197Z" fill="black"/>
<path fill-rule="evenodd" clip-rule="evenodd" d="M213.62 64.8366C212.705 65.5525 211.29 66.152 209.374 66.6351C207.522 67.1211 205.493 67.3158 203.287 67.2193C200.64 67.1036 198.388 66.6271 196.53 65.79C194.676 64.89 193.432 63.7333 192.799 62.3198C192.169 60.8435 191.399 58.9516 190.49 56.6441C189.583 54.2738 188.625 51.6493 187.614 48.7705C186.666 45.8944 185.663 42.8585 184.603 39.6626C183.609 36.4065 182.647 33.1205 181.719 29.8043C180.791 26.4882 179.922 23.2377 179.115 20.0528C178.307 16.868 177.617 13.8772 177.044 11.0806C177.965 10.239 179.26 9.5082 180.929 8.88828C182.663 8.20825 184.476 7.90957 186.367 7.99225C188.698 8.09422 190.567 8.67986 191.972 9.74918C193.444 10.7584 194.468 12.5984 195.046 15.2693C196.478 21.5051 197.921 27.4893 199.375 33.2221C200.895 38.8948 202.467 44.8217 204.091 51.0028L204.658 51.0276C206.618 45.1922 208.633 38.8237 210.703 31.9222C212.836 25.0235 214.873 18.1521 216.814 11.308C217.973 10.7917 219.191 10.3726 220.468 10.0504C221.808 9.7311 223.297 9.60725 224.935 9.67891C227.267 9.78088 229.229 10.4021 230.821 11.5426C232.415 12.6201 233.16 14.3535 233.056 16.7426C232.995 18.1257 232.561 20.1224 231.752 22.7327C231.006 25.3457 230.025 28.2949 228.808 31.5801C227.657 34.8053 226.341 38.1808 224.861 41.7066C223.444 45.2351 222.003 48.5736 220.54 51.7221C219.142 54.8105 217.822 57.5559 216.58 59.9583C215.341 62.2978 214.355 63.9239 213.62 64.8366ZM145.827 55.3752L162.967 54.565L164.978 60.9687C165.65 63.1346 166.609 64.6904 167.856 65.6361C169.103 66.5818 171.273 66.9815 174.367 66.8353C176.45 66.7369 178.236 66.3699 179.724 65.7344C181.216 65.1616 182.32 64.4188 183.036 63.5059C181.926 60.1049 180.635 56.2102 179.162 51.8217C177.686 47.3706 176.177 42.8897 174.635 38.3789C173.09 33.8055 171.553 29.3888 170.023 25.1286C168.493 20.8684 167.084 17.1676 165.797 14.0262C165.007 12.0543 163.361 10.6879 160.857 9.92719C158.414 9.10084 155.614 8.76225 152.457 8.91145C150.248 9.01589 148.052 9.40225 145.869 10.0705C143.749 10.7358 142.167 11.4071 141.124 12.0843C140.735 13.2329 140.182 14.923 139.465 17.1545C138.808 19.3204 138.071 21.804 137.255 24.6053C136.435 27.344 135.561 30.2737 134.633 33.3942C133.702 36.4521 132.833 39.4757 132.025 42.465C131.214 45.3917 130.459 48.1587 129.76 50.7661C129.121 53.3079 128.62 55.435 128.258 57.1475C127.999 58.3527 127.763 59.3999 127.552 60.2889C127.341 61.1779 127.257 62.061 127.298 62.9381C127.39 64.8802 128.22 66.3793 129.788 67.4354C131.417 68.4259 133.841 68.845 137.061 68.6928C138.45 68.6272 139.612 68.4467 140.547 68.1513C141.548 67.9156 142.483 67.6202 143.352 67.2652C143.714 65.5528 144.07 63.7151 144.42 61.752C144.833 59.786 145.302 57.6604 145.827 55.3752ZM150.529 32.3603C151.454 29.1771 152.298 26.2803 153.06 23.6699L153.628 23.6431C154.441 26.1162 155.365 28.9295 156.4 32.0828C157.495 35.1706 158.569 38.479 159.621 42.0083L147.879 42.5633C148.72 38.9445 149.604 35.5436 150.529 32.3603ZM105.898 57.3991C104.751 58.4324 102.703 59.0353 99.7542 59.2078C96.8655 59.3768 94.1592 59.052 91.6355 58.2334C89.1719 57.4114 87.0588 56.3876 85.2963 55.1622C84.1314 55.8946 83.0744 56.9226 82.1252 58.2463C81.1725 59.5098 80.7472 61.0141 80.8493 62.7594C80.9479 64.4445 81.5174 65.9208 82.5577 67.1885C83.6547 68.3925 85.1023 69.3948 86.9003 70.1954C88.7551 70.9323 90.8683 71.4428 93.24 71.7267C95.6754 72.0674 98.2773 72.1567 101.046 71.9948C104.897 71.7695 108.273 71.1493 111.172 70.1343C114.132 69.1157 116.561 67.7961 118.459 66.1753C120.414 64.4909 121.841 62.5656 122.741 60.3994C123.637 58.173 124.011 55.7961 123.864 53.2684C123.582 48.4539 121.824 44.7222 118.589 42.0732C115.411 39.3605 110.941 37.2669 105.178 35.7924L100.304 34.5376C98.7109 34.1477 97.5075 33.7048 96.6934 33.2089C95.8759 32.6529 95.4407 31.9235 95.3879 31.0208C95.321 29.8773 95.8983 28.9076 97.1199 28.1114C98.3379 27.2552 100.301 26.7478 103.009 26.5894C105.657 26.4345 108.114 26.6229 110.379 27.1546C112.641 27.6262 114.459 28.2445 115.832 29.0096C116.809 28.1674 117.628 27.1836 118.286 26.058C118.942 24.8723 119.223 23.4971 119.132 21.9324C119.04 20.3677 118.51 19.04 117.54 17.9494C116.567 16.7986 115.247 15.9096 113.58 15.2825C111.969 14.5916 110.04 14.1308 107.792 13.9C105.545 13.6691 103.127 13.6294 100.539 13.7808C93.4375 14.1962 87.9906 16.0547 84.1981 19.3563C80.4659 22.6544 78.7494 26.8611 79.0486 31.9766C79.2035 34.6246 79.7568 36.8567 80.7085 38.6731C81.7168 40.4257 83.0421 41.9182 84.6842 43.1507C86.3264 44.3832 88.2589 45.4175 90.4818 46.2536C92.7011 47.0296 95.1612 47.7915 97.862 48.5394L101.727 49.5814C103.508 50.0811 104.901 50.6639 105.906 51.3297C106.907 51.9354 107.443 52.8401 107.514 54.0437C107.584 55.2473 107.046 56.3658 105.898 57.3991ZM235.259 65.3008C236.606 67.0853 238.626 68.1656 241.32 68.5417L268.752 72.3733C270.506 72.6182 271.954 72.3096 273.096 71.4475C274.247 70.5227 274.984 68.9016 275.308 66.5842C275.491 65.269 275.474 64.0214 275.256 62.8416C275.1 61.6705 274.851 60.7098 274.509 59.9596L250.364 56.5874L251.742 46.7229L268.934 49.1242C270.688 49.3691 272.136 49.0605 273.278 48.1984C274.429 47.2736 275.166 45.6525 275.49 43.3351C275.673 42.0199 275.652 40.8036 275.425 39.6864C275.26 38.5779 275.007 37.6486 274.665 36.8984L253.527 33.9461L254.747 25.209L274.57 27.9776C276.323 28.2226 277.776 27.8826 278.927 26.9579C280.077 26.0331 280.815 24.412 281.138 22.0947C281.322 20.7794 281.3 19.5631 281.073 18.4459C280.909 17.3375 280.655 16.4081 280.313 15.6579L249.311 11.3278C246.617 10.9516 244.379 11.4371 242.594 12.7842C240.81 14.1313 239.729 16.1514 239.353 18.8446L233.803 58.5843C233.427 61.2775 233.912 63.5163 235.259 65.3008Z" fill="#FF004C"/>
<path d="M151.891 86.5819L151.876 86.5686C149.55 84.5763 148.84 81.6914 148.848 78.9534L148.908 60.2115L151.812 59.4293C152.271 59.3058 152.786 59.2127 153.292 59.1371C154.022 59.0057 155.507 58.9479 155.507 58.9479L165.903 57.5958C166.384 57.4664 166.927 57.3704 167.455 57.2929L167.468 57.2909L167.482 57.289C168.185 57.1908 168.904 57.1476 169.634 57.1499C171.059 57.1544 172.982 57.3645 174.544 58.5558C176.134 59.7455 176.667 61.4572 176.823 62.8468C179.672 62.9166 182.402 63.7031 184.538 65.65C185.042 66.1041 185.479 66.5957 185.853 67.1176C186.211 66.7034 186.601 66.3142 187.024 65.9535C188.273 64.8859 189.694 64.0979 191.262 63.61C192.712 63.1358 194.208 62.898 195.732 62.9028C197.377 62.908 198.979 63.1611 200.491 63.7269C201.934 64.2585 203.258 65.0207 204.398 66.0513C205.577 67.0955 206.491 68.3575 207.116 69.8038C207.747 71.2627 208.037 72.8086 208.032 74.3923C208.028 75.7968 207.649 77.3969 206.486 78.7054C206.988 79.6389 207.268 80.6847 207.265 81.7965C207.26 83.1733 206.851 84.5526 205.927 85.7336C205.127 86.7553 204.106 87.4552 203.071 87.933C202.057 88.4115 200.97 88.6957 199.876 88.8526C198.81 89.0284 197.692 89.1058 196.535 89.1022C194.783 89.0966 193.083 88.853 191.461 88.3385L191.416 88.3244L191.372 88.3092C190.049 87.8546 188.824 87.2144 187.725 86.3795L187.721 87.5417L184.817 88.3238C184.323 88.457 183.758 88.5528 183.216 88.6287C182.522 88.7296 181.809 88.7719 181.086 88.7697C179.75 88.7654 177.968 88.5903 176.462 87.5998L173.902 88.2892C173.408 88.4224 172.843 88.5182 172.301 88.5941C171.607 88.695 170.894 88.7373 170.172 88.735C168.764 88.7306 166.861 88.5365 165.308 87.3995L165.262 87.3656L165.217 87.3305L165.185 87.3059C163.401 88.7196 161.054 88.9542 159.24 88.9484C156.611 88.9401 153.983 88.3368 151.907 86.595L151.891 86.5819Z" fill="black"/>
<path d="M159.252 85.0109C157.173 85.0043 155.568 84.5267 154.437 83.5781C153.33 82.6296 152.779 81.0922 152.786 78.9659L152.836 63.2315C153.096 63.1614 153.463 63.0917 153.935 63.0223C154.432 62.9294 154.952 62.8838 155.495 62.8855C156.653 62.8892 157.491 63.0927 158.009 63.4959C158.528 63.8992 158.785 64.6442 158.782 65.731L158.776 67.6446L163.418 67.6594C163.559 67.9197 163.688 68.2509 163.805 68.6529C163.945 69.0313 164.015 69.4568 164.013 69.9293C164.011 70.7562 163.82 71.358 163.441 71.7348C163.085 72.0881 162.6 72.2637 161.986 72.2618L158.761 72.2516L158.741 78.5595C158.739 79.1738 158.927 79.6114 159.304 79.8725C159.705 80.1337 160.26 80.2654 160.968 80.2676C161.323 80.2688 161.689 80.2463 162.067 80.2002C162.445 80.1306 162.776 80.0489 163.06 79.9553C163.272 80.2159 163.448 80.5117 163.589 80.843C163.753 81.1506 163.835 81.5289 163.833 81.9778C163.831 82.8755 163.486 83.6068 162.799 84.1716C162.135 84.7366 160.953 85.0163 159.252 85.0109Z" fill="white"/>
<path d="M183.793 84.5217C183.533 84.5918 183.155 84.6615 182.659 84.7308C182.186 84.8001 181.666 84.8339 181.099 84.8321C179.918 84.8284 179.068 84.6367 178.549 84.257C178.031 83.8538 177.773 83.0969 177.777 81.9865L177.802 74.1193C177.805 73.1507 177.559 72.4766 177.064 72.097C176.593 71.6939 176.003 71.4912 175.294 71.4889C174.822 71.4874 174.384 71.5451 173.982 71.662C173.604 71.7789 173.249 71.9313 172.918 72.1193L172.878 84.4871C172.618 84.5572 172.24 84.6268 171.744 84.6962C171.271 84.7655 170.751 84.7993 170.184 84.7975C169.003 84.7938 168.153 84.6021 167.634 84.2224C167.116 83.8191 166.858 83.0623 166.862 81.9519L166.927 61.3979C167.187 61.3279 167.554 61.2581 168.026 61.1888C168.523 61.1195 169.054 61.0857 169.622 61.0875C170.803 61.0913 171.653 61.2948 172.171 61.6981C172.69 62.0777 172.947 62.8227 172.944 63.9331L172.933 67.4415C173.406 67.254 173.938 67.1021 174.529 66.9858C175.12 66.846 175.758 66.7771 176.443 66.7793C178.782 66.7867 180.599 67.3831 181.895 68.5685C183.191 69.7302 183.835 71.4688 183.827 73.784L183.793 84.5217Z" fill="white"/>
<path d="M192.707 78.3483C193.035 79.1999 193.588 79.8041 194.366 80.1609C195.145 80.4941 196.019 80.6623 196.987 80.6654C197.98 80.6685 198.925 80.5534 199.823 80.32C200.722 80.063 201.444 79.7699 201.988 79.4409C202.365 79.6783 202.683 80.0101 202.942 80.4362C203.2 80.8623 203.329 81.3116 203.327 81.7841C203.325 82.3747 203.158 82.8821 202.826 83.3063C202.494 83.7305 202.02 84.0834 201.405 84.365C200.814 84.6466 200.104 84.8452 199.277 84.9607C198.45 85.0998 197.54 85.1678 196.548 85.1646C195.154 85.1602 193.855 84.9671 192.651 84.5853C191.471 84.1799 190.446 83.586 189.574 82.8036C188.702 82.0212 188.02 81.0386 187.528 79.8557C187.035 78.6729 186.792 77.29 186.797 75.7071C186.802 74.1479 187.054 72.8138 187.554 71.705C188.077 70.5726 188.753 69.6534 189.582 68.9472C190.435 68.2176 191.394 67.689 192.458 67.3616C193.522 67.0106 194.61 66.8369 195.72 66.8404C196.972 66.8444 198.105 67.037 199.12 67.4182C200.158 67.7995 201.043 68.3221 201.773 68.9859C202.527 69.6498 203.103 70.4431 203.502 71.3658C203.901 72.2884 204.098 73.2931 204.095 74.3799C204.092 75.1832 203.866 75.7967 203.416 76.2205C202.965 76.6444 202.339 76.9141 201.535 77.0296L192.707 78.3483ZM195.741 71.2348C194.844 71.232 194.087 71.5013 193.471 72.0427C192.878 72.5842 192.522 73.3509 192.4 74.3428L198.428 73.3696C198.405 73.1333 198.335 72.8968 198.218 72.6602C198.1 72.4 197.936 72.1632 197.724 71.9499C197.512 71.7366 197.241 71.5703 196.91 71.4512C196.58 71.3084 196.19 71.2363 195.741 71.2348Z" fill="white"/>
<g filter="url(#filter0_d_522_979)">
<path d="M115.447 191.107C116.44 191.107 117.197 190.882 117.717 190.433C118.26 189.96 118.532 189.251 118.532 188.306C118.532 187.408 118.248 186.722 117.681 186.249C117.137 185.753 116.334 185.505 115.27 185.505C114.892 185.505 114.573 185.516 114.313 185.54C114.076 185.54 113.828 185.564 113.568 185.611V191.107H115.447ZM113.604 202.488C113.344 202.559 112.93 202.63 112.363 202.701C111.819 202.772 111.275 202.808 110.732 202.808C110.188 202.808 109.703 202.76 109.278 202.666C108.876 202.595 108.533 202.453 108.25 202.24C107.966 202.027 107.753 201.732 107.611 201.354C107.47 200.976 107.399 200.479 107.399 199.865V183.165C107.399 182.668 107.529 182.29 107.789 182.03C108.072 181.746 108.451 181.522 108.923 181.356C109.727 181.073 110.637 180.872 111.653 180.753C112.694 180.612 113.734 180.541 114.774 180.541C118.036 180.541 120.529 181.238 122.255 182.633C123.981 184.027 124.843 185.918 124.843 188.306C124.843 189.464 124.654 190.516 124.276 191.461C123.922 192.383 123.378 193.187 122.645 193.872C121.936 194.534 121.026 195.054 119.915 195.433C118.828 195.787 117.563 195.964 116.121 195.964H113.604V202.488ZM134.648 202.595C134.412 202.666 134.033 202.737 133.513 202.808C133.017 202.878 132.497 202.914 131.953 202.914C131.433 202.914 130.96 202.878 130.535 202.808C130.133 202.737 129.79 202.595 129.507 202.382C129.223 202.169 128.999 201.886 128.833 201.531C128.691 201.153 128.62 200.668 128.62 200.077V189.44C128.62 188.897 128.715 188.436 128.904 188.058C129.117 187.656 129.412 187.301 129.79 186.994C130.169 186.687 130.63 186.415 131.173 186.178C131.741 185.918 132.343 185.694 132.982 185.505C133.62 185.316 134.282 185.174 134.967 185.079C135.653 184.961 136.338 184.902 137.024 184.902C138.158 184.902 139.056 185.126 139.718 185.576C140.38 186.001 140.711 186.71 140.711 187.703C140.711 188.034 140.664 188.365 140.569 188.696C140.475 189.003 140.357 189.287 140.215 189.547C139.718 189.547 139.21 189.57 138.69 189.618C138.17 189.665 137.662 189.736 137.165 189.83C136.669 189.925 136.196 190.031 135.747 190.149C135.322 190.244 134.955 190.362 134.648 190.504V202.595ZM153.425 203.198C152.03 203.198 150.73 203.008 149.525 202.63C148.343 202.228 147.303 201.637 146.405 200.857C145.53 200.077 144.833 199.096 144.313 197.915C143.816 196.733 143.568 195.35 143.568 193.766C143.568 192.206 143.816 190.87 144.313 189.759C144.833 188.625 145.506 187.703 146.334 186.994C147.161 186.261 148.107 185.729 149.17 185.398C150.234 185.044 151.321 184.866 152.432 184.866C153.685 184.866 154.82 185.056 155.836 185.434C156.876 185.812 157.763 186.332 158.495 186.994C159.252 187.656 159.831 188.448 160.233 189.369C160.658 190.291 160.871 191.296 160.871 192.383C160.871 193.187 160.646 193.802 160.197 194.227C159.748 194.652 159.122 194.924 158.318 195.043L149.56 196.354C149.82 197.134 150.352 197.725 151.156 198.127C151.96 198.505 152.881 198.695 153.921 198.695C154.891 198.695 155.801 198.576 156.652 198.34C157.526 198.08 158.235 197.784 158.779 197.454C159.157 197.69 159.476 198.021 159.736 198.446C159.996 198.872 160.126 199.321 160.126 199.794C160.126 200.857 159.63 201.649 158.637 202.169C157.881 202.571 157.03 202.843 156.084 202.985C155.139 203.127 154.252 203.198 153.425 203.198ZM152.432 189.263C151.865 189.263 151.369 189.358 150.943 189.547C150.541 189.736 150.21 189.984 149.95 190.291C149.69 190.575 149.489 190.906 149.348 191.284C149.229 191.639 149.158 192.005 149.135 192.383L155.198 191.39C155.127 190.918 154.867 190.445 154.418 189.972C153.969 189.499 153.307 189.263 152.432 189.263ZM173.807 184.866C174.776 184.866 175.721 185.008 176.643 185.292C177.589 185.552 178.404 185.954 179.09 186.497C179.799 186.025 180.591 185.635 181.465 185.327C182.363 185.02 183.439 184.866 184.692 184.866C185.59 184.866 186.465 184.985 187.316 185.221C188.19 185.457 188.958 185.836 189.62 186.356C190.306 186.852 190.849 187.526 191.251 188.377C191.653 189.204 191.854 190.22 191.854 191.426V202.595C191.618 202.666 191.239 202.737 190.719 202.808C190.223 202.878 189.703 202.914 189.159 202.914C188.639 202.914 188.167 202.878 187.741 202.808C187.339 202.737 186.996 202.595 186.713 202.382C186.429 202.169 186.205 201.886 186.039 201.531C185.897 201.153 185.826 200.668 185.826 200.077V191.603C185.826 190.894 185.626 190.386 185.224 190.079C184.822 189.748 184.278 189.582 183.593 189.582C183.262 189.582 182.907 189.665 182.529 189.83C182.151 189.972 181.867 190.126 181.678 190.291C181.702 190.386 181.713 190.48 181.713 190.575C181.713 190.646 181.713 190.717 181.713 190.788V202.595C181.453 202.666 181.063 202.737 180.543 202.808C180.047 202.878 179.539 202.914 179.019 202.914C178.499 202.914 178.026 202.878 177.6 202.808C177.199 202.737 176.856 202.595 176.572 202.382C176.289 202.169 176.064 201.886 175.899 201.531C175.757 201.153 175.686 200.668 175.686 200.077V191.603C175.686 190.894 175.461 190.386 175.012 190.079C174.587 189.748 174.067 189.582 173.452 189.582C173.027 189.582 172.66 189.653 172.353 189.795C172.046 189.913 171.786 190.031 171.573 190.149V202.595C171.336 202.666 170.958 202.737 170.438 202.808C169.942 202.878 169.422 202.914 168.878 202.914C168.358 202.914 167.885 202.878 167.46 202.808C167.058 202.737 166.715 202.595 166.432 202.382C166.148 202.169 165.923 201.886 165.758 201.531C165.616 201.153 165.545 200.668 165.545 200.077V189.369C165.545 188.731 165.675 188.223 165.935 187.845C166.219 187.467 166.597 187.112 167.07 186.781C167.874 186.214 168.866 185.753 170.048 185.398C171.254 185.044 172.507 184.866 173.807 184.866ZM197.162 180.612C197.162 179.713 197.458 178.957 198.048 178.342C198.663 177.728 199.467 177.421 200.46 177.421C201.452 177.421 202.244 177.728 202.835 178.342C203.45 178.957 203.757 179.713 203.757 180.612C203.757 181.51 203.45 182.266 202.835 182.881C202.244 183.495 201.452 183.803 200.46 183.803C199.467 183.803 198.663 183.495 198.048 182.881C197.458 182.266 197.162 181.51 197.162 180.612ZM203.473 202.595C203.213 202.642 202.823 202.701 202.303 202.772C201.807 202.867 201.299 202.914 200.779 202.914C200.259 202.914 199.786 202.878 199.36 202.808C198.959 202.737 198.616 202.595 198.332 202.382C198.048 202.169 197.824 201.886 197.658 201.531C197.517 201.153 197.446 200.668 197.446 200.077V185.646C197.706 185.599 198.084 185.54 198.58 185.469C199.1 185.375 199.62 185.327 200.14 185.327C200.66 185.327 201.121 185.363 201.523 185.434C201.949 185.505 202.303 185.646 202.587 185.859C202.871 186.072 203.083 186.367 203.225 186.746C203.391 187.1 203.473 187.573 203.473 188.164V202.595ZM209.084 185.646C209.32 185.576 209.686 185.505 210.183 185.434C210.703 185.363 211.235 185.327 211.778 185.327C212.298 185.327 212.759 185.363 213.161 185.434C213.587 185.505 213.941 185.646 214.225 185.859C214.508 186.072 214.721 186.367 214.863 186.746C215.028 187.1 215.111 187.573 215.111 188.164V195.787C215.111 196.756 215.348 197.454 215.82 197.879C216.293 198.281 216.979 198.482 217.877 198.482C218.42 198.482 218.858 198.435 219.189 198.34C219.543 198.245 219.815 198.151 220.004 198.056V185.646C220.241 185.576 220.607 185.505 221.103 185.434C221.623 185.363 222.155 185.327 222.699 185.327C223.219 185.327 223.68 185.363 224.082 185.434C224.507 185.505 224.862 185.646 225.145 185.859C225.429 186.072 225.642 186.367 225.784 186.746C225.949 187.1 226.032 187.573 226.032 188.164V198.943C226.032 200.125 225.535 201.011 224.543 201.602C223.715 202.122 222.723 202.512 221.564 202.772C220.43 203.056 219.189 203.198 217.841 203.198C216.565 203.198 215.383 203.056 214.296 202.772C213.232 202.488 212.31 202.051 211.53 201.46C210.75 200.869 210.147 200.113 209.722 199.191C209.296 198.245 209.084 197.111 209.084 195.787V185.646ZM239.755 184.866C240.724 184.866 241.669 185.008 242.591 185.292C243.537 185.552 244.352 185.954 245.038 186.497C245.747 186.025 246.539 185.635 247.413 185.327C248.312 185.02 249.387 184.866 250.64 184.866C251.538 184.866 252.413 184.985 253.264 185.221C254.138 185.457 254.907 185.836 255.568 186.356C256.254 186.852 256.798 187.526 257.199 188.377C257.601 189.204 257.802 190.22 257.802 191.426V202.595C257.566 202.666 257.188 202.737 256.668 202.808C256.171 202.878 255.651 202.914 255.107 202.914C254.587 202.914 254.115 202.878 253.689 202.808C253.287 202.737 252.945 202.595 252.661 202.382C252.377 202.169 252.153 201.886 251.987 201.531C251.845 201.153 251.775 200.668 251.775 200.077V191.603C251.775 190.894 251.574 190.386 251.172 190.079C250.77 189.748 250.226 189.582 249.541 189.582C249.21 189.582 248.855 189.665 248.477 189.83C248.099 189.972 247.815 190.126 247.626 190.291C247.65 190.386 247.662 190.48 247.662 190.575C247.662 190.646 247.662 190.717 247.662 190.788V202.595C247.402 202.666 247.012 202.737 246.491 202.808C245.995 202.878 245.487 202.914 244.967 202.914C244.447 202.914 243.974 202.878 243.549 202.808C243.147 202.737 242.804 202.595 242.52 202.382C242.237 202.169 242.012 201.886 241.847 201.531C241.705 201.153 241.634 200.668 241.634 200.077V191.603C241.634 190.894 241.409 190.386 240.96 190.079C240.535 189.748 240.015 189.582 239.4 189.582C238.975 189.582 238.608 189.653 238.301 189.795C237.994 189.913 237.734 190.031 237.521 190.149V202.595C237.285 202.666 236.906 202.737 236.386 202.808C235.89 202.878 235.37 202.914 234.826 202.914C234.306 202.914 233.833 202.878 233.408 202.808C233.006 202.737 232.663 202.595 232.38 202.382C232.096 202.169 231.871 201.886 231.706 201.531C231.564 201.153 231.493 200.668 231.493 200.077V189.369C231.493 188.731 231.623 188.223 231.883 187.845C232.167 187.467 232.545 187.112 233.018 186.781C233.822 186.214 234.814 185.753 235.996 185.398C237.202 185.044 238.455 184.866 239.755 184.866Z" fill="white"/>
</g>
<defs>
<filter id="filter0_d_522_979" x="98.5939" y="168.616" width="168.013" height="43.3866" filterUnits="userSpaceOnUse" color-interpolation-filters="sRGB">
<feFlood flood-opacity="0" result="BackgroundImageFix"/>
<feColorMatrix in="SourceAlpha" type="matrix" values="0 0 0 0 0 0 0 0 0 0 0 0 0 0 0 0 0 0 127 0" result="hardAlpha"/>
<feOffset/>
<feGaussianBlur stdDeviation="4.40239"/>
<feComposite in2="hardAlpha" operator="out"/>
<feColorMatrix type="matrix" values="0 0 0 0 1 0 0 0 0 1 0 0 0 0 1 0 0 0 0.54 0"/>
<feBlend mode="normal" in2="BackgroundImageFix" result="effect1_dropShadow_522_979"/>
<feBlend mode="normal" in="SourceGraphic" in2="effect1_dropShadow_522_979" result="shape"/>
</filter>
</defs>
</svg>
