<svg width="256" height="256" viewBox="0 0 256 256" fill="none" xmlns="http://www.w3.org/2000/svg">
<circle cx="128" cy="128" r="120" fill="white"/>
<path d="M211.493 85.9324C209.514 78.4802 203.683 72.6111 196.279 70.6193C182.858 67 129.045 67 129.045 67C129.045 67 75.2311 67 61.8105 70.6193C54.4065 72.6114 48.5751 78.4802 46.596 85.9324C43 99.44 43 127.622 43 127.622C43 127.622 43 155.805 46.596 169.312C48.5751 176.764 54.4065 182.389 61.8105 184.381C75.2311 188 129.045 188 129.045 188C129.045 188 182.858 188 196.279 184.381C203.683 182.389 209.514 176.764 211.493 169.312C215.089 155.805 215.089 127.622 215.089 127.622C215.089 127.622 215.089 99.44 211.493 85.9324ZM111.444 153.21V102.035L156.422 127.623L111.444 153.21Z" fill="#C20303"/>
</svg>
