<svg width="256" height="256" viewBox="0 0 256 256" fill="none" xmlns="http://www.w3.org/2000/svg">
<circle cx="128" cy="128" r="120" fill="#2235E3"/>
<path d="M183.694 77.9473C173.477 73.3432 162.522 69.951 151.067 68.0081C150.858 67.9707 150.65 68.0644 150.543 68.2518C149.134 70.7131 147.573 73.9241 146.48 76.4479C134.16 74.6363 121.903 74.6363 109.835 76.4479C108.742 73.868 107.124 70.7131 105.709 68.2518C105.601 68.0706 105.393 67.9769 105.184 68.0081C93.736 69.9448 82.7804 73.3369 72.5576 77.9473C72.4691 77.9848 72.3933 78.0473 72.3429 78.1285C51.5624 108.621 45.8698 138.364 48.6624 167.738C48.675 167.881 48.7572 168.019 48.8709 168.106C62.5813 177.995 75.8621 183.999 88.8964 187.978C89.105 188.041 89.326 187.966 89.4587 187.797C92.542 183.662 95.2904 179.301 97.6469 174.715C97.786 174.447 97.6533 174.128 97.369 174.022C93.0095 172.398 88.8584 170.417 84.8653 168.169C84.5495 167.987 84.5242 167.544 84.8148 167.331C85.6551 166.713 86.4956 166.069 87.2979 165.42C87.4431 165.301 87.6454 165.276 87.8161 165.351C114.049 177.114 142.449 177.114 168.372 165.351C168.543 165.27 168.745 165.295 168.897 165.413C169.699 166.063 170.54 166.713 171.386 167.331C171.677 167.544 171.658 167.987 171.342 168.169C167.349 170.461 163.198 172.398 158.832 174.016C158.548 174.122 158.421 174.447 158.56 174.715C160.967 179.295 163.716 183.655 166.742 187.791C166.869 187.966 167.096 188.041 167.305 187.978C180.402 183.999 193.683 177.995 207.393 168.106C207.513 168.019 207.589 167.887 207.602 167.744C210.944 133.784 202.004 104.285 183.902 78.1347C183.858 78.0473 183.782 77.9848 183.694 77.9473ZM101.564 149.852C93.6665 149.852 87.1589 142.73 87.1589 133.984C87.1589 125.238 93.5403 118.117 101.564 118.117C109.651 118.117 116.096 125.301 115.97 133.984C115.97 142.73 109.588 149.852 101.564 149.852ZM154.826 149.852C146.929 149.852 140.421 142.73 140.421 133.984C140.421 125.238 146.802 118.117 154.826 118.117C162.914 118.117 169.358 125.301 169.232 133.984C169.232 142.73 162.914 149.852 154.826 149.852Z" fill="white"/>
</svg>
