<svg width="621" height="151" viewBox="0 0 621 151" fill="none" xmlns="http://www.w3.org/2000/svg">
<g clip-path="url(#clip0_1103_81)">
<ellipse cx="75.0496" cy="75.3018" rx="75.0571" ry="75.0496" transform="rotate(-90 75.0496 75.3018)" fill="#FF0000"/>
<ellipse cx="39.5122" cy="39.5838" rx="39.5122" ry="39.5838" transform="matrix(0.192358 -0.981325 0.981466 0.191635 28.7227 106.647)" fill="white"/>
<path d="M69.4078 80.8326L99.9492 32.5927L129.633 24.8865L118.326 53.3991L69.4078 80.8326Z" fill="#1E1E1E"/>
</g>
<g clip-path="url(#clip1_1103_81)">
<path d="M219.462 36.8291V30.1498H187.944V36.8291H200.136V63.7408H206.816V36.8291H219.462Z" fill="white"/>
<path d="M236.48 50.3822C237.842 49.7986 239.204 49.6041 240.695 49.6041C244.003 49.6041 247.31 50.5119 250.812 50.5119C252.174 50.5119 253.471 50.3174 254.768 49.6689V63.7408H261.383V30.1498H254.768V42.8599C253.406 43.5084 251.98 43.7029 250.553 43.7029C247.181 43.7029 243.225 42.7302 240.436 42.7302C239.074 42.7302 237.712 42.9896 236.48 43.5732V30.1498H229.865V63.7408H236.48V50.3822Z" fill="white"/>
<path d="M283.536 51.6792C286.454 50.1228 287.881 49.7338 294.042 49.7338H298.971V43.0544H294.042C290.151 43.0544 286.454 43.3138 283.536 44.9999V36.8291H303.381V30.1498H276.921V63.7408H304.613V56.9967H283.536V51.6792Z" fill="white"/>
<path d="M346.707 46.6859C346.707 53.9488 340.287 57.9694 333.931 57.9694C327.511 57.9694 321.026 54.5325 321.026 46.9453C321.026 39.3581 327.381 35.9212 333.866 35.9212C340.222 35.9212 346.707 39.1636 346.707 46.6859ZM353.711 46.6211C353.711 34.9485 343.983 29.0474 333.866 29.0474C323.814 29.0474 314.021 35.4024 314.021 46.8156C314.021 58.1639 323.62 64.7784 333.801 64.7784C343.983 64.7784 353.711 58.0342 353.711 46.6211Z" fill="white"/>
<path d="M390.545 50.058C395.409 48.5665 398.262 45.389 398.262 40.266C398.262 34.4297 393.852 30.1498 387.691 30.1498H366.03V63.7408H372.84V51.9386C375.564 50.5119 376.99 49.9931 382.243 49.9931H382.697L387.886 58.4233C390.999 63.4814 394.176 63.7408 397.678 63.7408H400.597V56.5427H398.262C396.576 56.5427 394.241 56.2834 392.62 53.5598L390.545 50.058ZM382.243 43.3138C378.741 43.3138 375.434 43.8326 372.84 45.2593V36.8291H386.524C388.858 36.8291 391.452 37.0885 391.452 40.0715C391.452 42.2114 389.701 43.3138 387.691 43.3138H382.243Z" fill="white"/>
<path d="M420.208 51.6792C423.126 50.1228 424.553 49.7338 430.714 49.7338H435.643V43.0544H430.714C426.823 43.0544 423.126 43.3138 420.208 44.9999V36.8291H440.053V30.1498H413.593V63.7408H441.285V56.9967H420.208V51.6792Z" fill="white"/>
<path d="M480.266 36.8291V30.1498H448.748V36.8291H460.94V63.7408H467.62V36.8291H480.266Z" fill="white"/>
<path d="M497.284 63.7408V30.1498H490.669V63.7408H497.284Z" fill="white"/>
<path d="M538.092 54.4028C535.498 56.7373 531.801 58.0342 528.299 58.0342C521.879 58.0342 515.458 54.5325 515.458 46.9453C515.458 39.3581 521.749 35.7915 528.234 35.7915C531.412 35.7915 534.72 36.6994 537.249 38.4503L541.724 33.2625C538.027 30.474 533.163 29.0474 528.234 29.0474C518.182 29.0474 508.389 35.4024 508.389 46.8156C508.389 58.1639 517.988 64.7784 528.17 64.7784C533.293 64.7784 538.287 63.1572 541.983 59.9797L538.092 54.4028Z" fill="white"/>
<path d="M573.011 52.587C566.072 52.587 561.532 54.4028 559.392 55.5052L567.369 40.1363L573.919 52.587H573.011ZM563.932 33.5867L547.848 63.7408H554.852L555.047 63.3517C556.149 61.9251 564.775 58.6827 573.076 58.6827H577.097L579.756 63.7408H587.084L568.925 29.3716H561.727L563.932 33.5867Z" fill="white"/>
<path d="M621.018 63.7408V56.9967H603.184V30.1498H596.245V63.7408H621.018Z" fill="white"/>
<path d="M216.245 90.0041C211.316 86.632 206.712 85.789 201.848 85.789C194.39 85.789 187.969 89.8096 187.969 95.9052C187.969 103.233 193.806 105.892 201.848 105.892C208.852 105.892 212.224 106.54 212.224 109.588C212.224 113.09 207.944 115.035 201.848 115.035C195.881 115.035 193.417 111.663 191.407 109.523L186.607 114.387C190.304 118.732 196.011 121.52 201.848 121.52C211.446 121.52 218.839 117.629 218.839 109.588C218.839 104.141 216.634 99.2773 202.302 99.2773C195.752 99.2773 194.973 97.9155 194.973 95.9052C194.973 93.9598 198.54 92.2738 201.783 92.2738C205.674 92.2738 209.176 93.0519 211.77 95.1919L216.245 90.0041Z" fill="white"/>
<path d="M256.855 93.5707V86.8914H225.337V93.5707H237.529V120.482H244.209V93.5707H256.855Z" fill="white"/>
<path d="M279.721 121.52C289.059 121.52 295.869 117.175 295.869 107.318V86.8914H289.189V107.318C289.189 113.025 285.363 114.776 279.656 114.776C273.949 114.776 270.122 113.025 270.122 107.318V86.8914H263.443V107.318C263.443 117.175 270.252 121.52 279.591 121.52H279.721Z" fill="white"/>
<path d="M326.8 93.5707C333.285 93.5707 336.982 97.0077 336.982 103.557C336.982 110.042 333.285 113.738 326.8 113.738H320.12V93.5707H326.8ZM308.965 93.5707H313.116V120.482H326.8C337.046 120.482 343.791 113.868 343.791 103.428C343.791 92.7277 336.917 86.8914 326.8 86.8914H305.982L308.965 93.5707Z" fill="white"/>
<path d="M362.729 120.482V86.8914H356.114V120.482H362.729Z" fill="white"/>
<path d="M407.723 103.428C407.723 110.69 401.303 114.711 394.947 114.711C388.527 114.711 382.042 111.274 382.042 103.687C382.042 96.0998 388.397 92.6629 394.882 92.6629C401.238 92.6629 407.723 95.9052 407.723 103.428ZM414.727 103.363C414.727 91.6901 404.999 85.789 394.882 85.789C384.83 85.789 375.037 92.1441 375.037 103.557C375.037 114.906 384.636 121.52 394.818 121.52C404.999 121.52 414.727 114.776 414.727 103.363Z" fill="white"/>
</g>
<defs>
<clipPath id="clip0_1103_81">
<rect width="150.122" height="150.122" fill="white" transform="translate(0 0.244629)"/>
</clipPath>
<clipPath id="clip1_1103_81">
<rect width="433.056" height="92.5172" fill="white" transform="translate(187.944 29.0474)"/>
</clipPath>
</defs>
</svg>
